G75*
%MOIN*%
%OFA0B0*%
%FSLAX25Y25*%
%IPPOS*%
%LPD*%
%AMOC8*
5,1,8,0,0,1.08239X$1,22.5*
%
%ADD10R,0.06500X0.06500*%
%ADD11C,0.06500*%
%ADD12OC8,0.05600*%
%ADD13R,0.08858X0.08858*%
%ADD14C,0.08858*%
%ADD15C,0.02400*%
%ADD16C,0.02000*%
%ADD17C,0.01200*%
D10*
X0076600Y0196600D03*
X0121600Y0201600D03*
X0121600Y0226600D03*
X0121600Y0251600D03*
X0206600Y0296600D03*
X0016600Y0296600D03*
X0211600Y0046600D03*
D11*
X0201600Y0046600D03*
X0191600Y0046600D03*
X0181600Y0046600D03*
X0171600Y0046600D03*
X0161600Y0046600D03*
X0151600Y0046600D03*
X0141600Y0046600D03*
X0131600Y0046600D03*
X0206600Y0076600D03*
X0206600Y0086600D03*
X0206600Y0096600D03*
X0206600Y0106600D03*
X0206600Y0116600D03*
X0206600Y0126600D03*
X0206600Y0136600D03*
X0206600Y0146600D03*
X0206600Y0156600D03*
X0206600Y0166600D03*
X0206600Y0176600D03*
X0206600Y0186600D03*
X0206600Y0196600D03*
X0206600Y0206600D03*
X0206600Y0216600D03*
X0206600Y0226600D03*
X0206600Y0236600D03*
X0206600Y0246600D03*
X0206600Y0256600D03*
X0206600Y0266600D03*
X0206600Y0276600D03*
X0206600Y0286600D03*
X0216600Y0286600D03*
X0216600Y0276600D03*
X0216600Y0266600D03*
X0216600Y0256600D03*
X0216600Y0246600D03*
X0216600Y0236600D03*
X0216600Y0226600D03*
X0216600Y0216600D03*
X0216600Y0206600D03*
X0216600Y0196600D03*
X0216600Y0186600D03*
X0216600Y0176600D03*
X0216600Y0166600D03*
X0216600Y0156600D03*
X0216600Y0146600D03*
X0216600Y0136600D03*
X0216600Y0126600D03*
X0216600Y0116600D03*
X0216600Y0106600D03*
X0216600Y0096600D03*
X0216600Y0086600D03*
X0216600Y0076600D03*
X0141600Y0201600D03*
X0131600Y0201600D03*
X0131600Y0226600D03*
X0141600Y0226600D03*
X0141600Y0251600D03*
X0131600Y0251600D03*
X0076600Y0166600D03*
X0066600Y0166600D03*
X0056600Y0166600D03*
X0046600Y0166600D03*
X0026600Y0166600D03*
X0026600Y0176600D03*
X0026600Y0186600D03*
X0026600Y0196600D03*
X0026600Y0206600D03*
X0026600Y0216600D03*
X0026600Y0226600D03*
X0026600Y0236600D03*
X0026600Y0246600D03*
X0026600Y0256600D03*
X0026600Y0266600D03*
X0026600Y0276600D03*
X0026600Y0286600D03*
X0026600Y0296600D03*
X0016600Y0286600D03*
X0016600Y0276600D03*
X0016600Y0266600D03*
X0016600Y0256600D03*
X0016600Y0246600D03*
X0016600Y0236600D03*
X0016600Y0226600D03*
X0016600Y0216600D03*
X0016600Y0206600D03*
X0016600Y0196600D03*
X0016600Y0186600D03*
X0016600Y0176600D03*
X0016600Y0166600D03*
X0016600Y0156600D03*
X0016600Y0146600D03*
X0016600Y0136600D03*
X0016600Y0126600D03*
X0016600Y0116600D03*
X0016600Y0106600D03*
X0016600Y0096600D03*
X0016600Y0086600D03*
X0016600Y0076600D03*
X0026600Y0076600D03*
X0026600Y0086600D03*
X0026600Y0096600D03*
X0026600Y0106600D03*
X0026600Y0116600D03*
X0026600Y0126600D03*
X0026600Y0136600D03*
X0026600Y0146600D03*
X0026600Y0156600D03*
X0046600Y0196600D03*
X0056600Y0196600D03*
X0066600Y0196600D03*
X0216600Y0296600D03*
D12*
X0171600Y0226600D03*
X0171600Y0166600D03*
D13*
X0030222Y0056757D03*
D14*
X0030222Y0037072D03*
X0030222Y0017387D03*
D15*
X0026600Y0176600D02*
X0036600Y0176600D01*
X0046600Y0186600D01*
X0066600Y0186600D01*
X0076600Y0196600D01*
X0046600Y0196600D02*
X0036600Y0186600D01*
X0026600Y0186600D01*
D16*
X0046600Y0166600D02*
X0056600Y0176600D01*
X0076600Y0176600D01*
X0091600Y0186600D01*
X0091600Y0236600D01*
X0096600Y0241600D01*
X0126600Y0241600D01*
X0121600Y0246600D01*
X0121600Y0251600D01*
X0121600Y0261600D02*
X0066600Y0261600D01*
X0056600Y0251600D01*
X0056600Y0196600D01*
X0056600Y0166600D02*
X0056600Y0146600D01*
X0061600Y0141600D01*
X0096600Y0141600D01*
X0111600Y0156600D01*
X0111600Y0176600D01*
X0116600Y0181600D01*
X0156600Y0181600D01*
X0171600Y0166600D01*
X0171600Y0046600D01*
X0162072Y0037072D01*
X0030222Y0037072D01*
X0021600Y0031600D02*
X0026600Y0026600D01*
X0171600Y0026600D01*
X0191600Y0046600D01*
X0181600Y0056600D01*
X0181600Y0176600D01*
X0171600Y0186600D01*
X0101600Y0186600D01*
X0101600Y0156600D01*
X0091600Y0146600D01*
X0076600Y0146600D01*
X0066600Y0156600D01*
X0066600Y0166600D01*
X0076600Y0166600D02*
X0091600Y0166600D01*
X0096600Y0171600D01*
X0096600Y0231600D01*
X0101600Y0236600D01*
X0206600Y0236600D01*
X0171600Y0226600D02*
X0141600Y0226600D01*
X0131600Y0226600D02*
X0131600Y0221600D01*
X0126600Y0216600D01*
X0111600Y0216600D01*
X0101600Y0206600D01*
X0101600Y0186600D01*
X0131600Y0201600D02*
X0141600Y0211600D01*
X0166600Y0211600D01*
X0191600Y0186600D01*
X0191600Y0066600D01*
X0211600Y0046600D01*
X0182387Y0017387D01*
X0030222Y0017387D01*
X0021600Y0031600D02*
X0021600Y0051600D01*
X0026757Y0056757D01*
X0030222Y0056757D01*
X0126600Y0241600D02*
X0151600Y0241600D01*
X0156600Y0246600D01*
X0156600Y0256600D01*
X0136600Y0276600D01*
X0046600Y0276600D01*
X0036600Y0286600D01*
X0026600Y0286600D01*
X0016600Y0286600D01*
X0016600Y0266600D02*
X0026600Y0266600D01*
X0126600Y0266600D01*
X0141600Y0251600D01*
X0131600Y0251600D02*
X0121600Y0261600D01*
D17*
X0004600Y0303600D02*
X0004600Y0004600D01*
X0227301Y0004600D01*
X0227301Y0303600D01*
X0184600Y0303600D01*
X0184600Y0286003D01*
X0184143Y0284901D01*
X0183299Y0284057D01*
X0182197Y0283600D01*
X0051003Y0283600D01*
X0049901Y0284057D01*
X0049057Y0284901D01*
X0048600Y0286003D01*
X0048600Y0303600D01*
X0004600Y0303600D01*
X0004600Y0302632D02*
X0048600Y0302632D01*
X0048600Y0301434D02*
X0027084Y0301434D01*
X0027025Y0301434D02*
X0026175Y0301434D01*
X0026175Y0301443D02*
X0025464Y0301331D01*
X0024738Y0301095D01*
X0024058Y0300748D01*
X0023440Y0300299D01*
X0022901Y0299760D01*
X0022452Y0299142D01*
X0022105Y0298462D01*
X0021869Y0297736D01*
X0021757Y0297025D01*
X0026175Y0297025D01*
X0026175Y0301443D01*
X0026116Y0301434D02*
X0020121Y0301434D01*
X0020061Y0301450D02*
X0017025Y0301450D01*
X0017025Y0297025D01*
X0016175Y0297025D01*
X0016175Y0301450D01*
X0013139Y0301450D01*
X0012732Y0301341D01*
X0012368Y0301130D01*
X0012070Y0300832D01*
X0011859Y0300468D01*
X0011750Y0300061D01*
X0011750Y0297025D01*
X0016175Y0297025D01*
X0016175Y0296175D01*
X0011750Y0296175D01*
X0011750Y0293139D01*
X0011859Y0292732D01*
X0012070Y0292368D01*
X0012368Y0292070D01*
X0012732Y0291859D01*
X0012959Y0291798D01*
X0011302Y0290140D01*
X0010350Y0287843D01*
X0010350Y0285357D01*
X0011302Y0283060D01*
X0012761Y0281600D01*
X0011302Y0280140D01*
X0010350Y0277843D01*
X0010350Y0275357D01*
X0011302Y0273060D01*
X0012761Y0271600D01*
X0011302Y0270140D01*
X0010350Y0267843D01*
X0010350Y0265357D01*
X0011302Y0263060D01*
X0012761Y0261600D01*
X0011302Y0260140D01*
X0010350Y0257843D01*
X0010350Y0255357D01*
X0011302Y0253060D01*
X0012761Y0251600D01*
X0011302Y0250140D01*
X0010350Y0247843D01*
X0010350Y0245357D01*
X0011302Y0243060D01*
X0012761Y0241600D01*
X0011302Y0240140D01*
X0010350Y0237843D01*
X0010350Y0235357D01*
X0011302Y0233060D01*
X0012761Y0231600D01*
X0011302Y0230140D01*
X0010350Y0227843D01*
X0010350Y0225357D01*
X0011302Y0223060D01*
X0012761Y0221600D01*
X0011302Y0220140D01*
X0010350Y0217843D01*
X0010350Y0215357D01*
X0011302Y0213060D01*
X0012761Y0211600D01*
X0011302Y0210140D01*
X0010350Y0207843D01*
X0010350Y0205357D01*
X0011302Y0203060D01*
X0012761Y0201600D01*
X0011302Y0200140D01*
X0010350Y0197843D01*
X0010350Y0195357D01*
X0011302Y0193060D01*
X0012761Y0191600D01*
X0011302Y0190140D01*
X0010350Y0187843D01*
X0010350Y0185357D01*
X0011302Y0183060D01*
X0012761Y0181600D01*
X0011302Y0180140D01*
X0010350Y0177843D01*
X0010350Y0175357D01*
X0011302Y0173060D01*
X0012761Y0171600D01*
X0011302Y0170140D01*
X0010350Y0167843D01*
X0010350Y0165357D01*
X0011302Y0163060D01*
X0012761Y0161600D01*
X0011302Y0160140D01*
X0010350Y0157843D01*
X0010350Y0155357D01*
X0011302Y0153060D01*
X0012761Y0151600D01*
X0011302Y0150140D01*
X0010350Y0147843D01*
X0010350Y0145357D01*
X0011302Y0143060D01*
X0012761Y0141600D01*
X0011302Y0140140D01*
X0010350Y0137843D01*
X0010350Y0135357D01*
X0011302Y0133060D01*
X0012761Y0131600D01*
X0011302Y0130140D01*
X0010350Y0127843D01*
X0010350Y0125357D01*
X0011302Y0123060D01*
X0012761Y0121600D01*
X0011302Y0120140D01*
X0010350Y0117843D01*
X0010350Y0115357D01*
X0011302Y0113060D01*
X0012761Y0111600D01*
X0011302Y0110140D01*
X0010350Y0107843D01*
X0010350Y0105357D01*
X0011302Y0103060D01*
X0012761Y0101600D01*
X0011302Y0100140D01*
X0010350Y0097843D01*
X0010350Y0095357D01*
X0011302Y0093060D01*
X0012761Y0091600D01*
X0011302Y0090140D01*
X0010350Y0087843D01*
X0010350Y0085357D01*
X0011302Y0083060D01*
X0012761Y0081600D01*
X0011302Y0080140D01*
X0010350Y0077843D01*
X0010350Y0075357D01*
X0011302Y0073060D01*
X0013060Y0071302D01*
X0015357Y0070350D01*
X0017843Y0070350D01*
X0020140Y0071302D01*
X0021600Y0072761D01*
X0023060Y0071302D01*
X0025357Y0070350D01*
X0027843Y0070350D01*
X0030140Y0071302D01*
X0031898Y0073060D01*
X0032850Y0075357D01*
X0032850Y0077843D01*
X0031898Y0080140D01*
X0030439Y0081600D01*
X0031898Y0083060D01*
X0032850Y0085357D01*
X0032850Y0087843D01*
X0031898Y0090140D01*
X0030439Y0091600D01*
X0031898Y0093060D01*
X0032850Y0095357D01*
X0032850Y0097843D01*
X0031898Y0100140D01*
X0030439Y0101600D01*
X0031898Y0103060D01*
X0032850Y0105357D01*
X0032850Y0107843D01*
X0031898Y0110140D01*
X0030439Y0111600D01*
X0031898Y0113060D01*
X0032850Y0115357D01*
X0032850Y0117843D01*
X0031898Y0120140D01*
X0030439Y0121600D01*
X0031898Y0123060D01*
X0032850Y0125357D01*
X0032850Y0127843D01*
X0031898Y0130140D01*
X0030439Y0131600D01*
X0031898Y0133060D01*
X0032850Y0135357D01*
X0032850Y0137843D01*
X0031898Y0140140D01*
X0030439Y0141600D01*
X0031898Y0143060D01*
X0032850Y0145357D01*
X0032850Y0147843D01*
X0031898Y0150140D01*
X0030439Y0151600D01*
X0031898Y0153060D01*
X0032850Y0155357D01*
X0032850Y0157843D01*
X0031898Y0160140D01*
X0030439Y0161600D01*
X0031898Y0163060D01*
X0032850Y0165357D01*
X0032850Y0167843D01*
X0031898Y0170140D01*
X0030439Y0171600D01*
X0031239Y0172400D01*
X0037435Y0172400D01*
X0038979Y0173039D01*
X0048340Y0182400D01*
X0067435Y0182400D01*
X0068979Y0183039D01*
X0076290Y0190350D01*
X0080447Y0190350D01*
X0081549Y0190807D01*
X0082393Y0191651D01*
X0082850Y0192753D01*
X0082850Y0200447D01*
X0082393Y0201549D01*
X0081549Y0202393D01*
X0080447Y0202850D01*
X0072753Y0202850D01*
X0071651Y0202393D01*
X0070807Y0201549D01*
X0070350Y0200447D01*
X0070350Y0199690D01*
X0070299Y0199760D01*
X0069760Y0200299D01*
X0069142Y0200748D01*
X0068462Y0201095D01*
X0067736Y0201331D01*
X0067025Y0201443D01*
X0067025Y0197025D01*
X0066175Y0197025D01*
X0066175Y0201443D01*
X0065464Y0201331D01*
X0064738Y0201095D01*
X0064058Y0200748D01*
X0063440Y0200299D01*
X0062901Y0199760D01*
X0062452Y0199142D01*
X0062375Y0198991D01*
X0061898Y0200140D01*
X0060600Y0201439D01*
X0060600Y0249943D01*
X0068257Y0257600D01*
X0117150Y0257600D01*
X0116651Y0257393D01*
X0115807Y0256549D01*
X0115350Y0255447D01*
X0115350Y0247753D01*
X0115807Y0246651D01*
X0116651Y0245807D01*
X0117150Y0245600D01*
X0095804Y0245600D01*
X0094334Y0244991D01*
X0093209Y0243866D01*
X0089334Y0239991D01*
X0088209Y0238866D01*
X0087600Y0237396D01*
X0087600Y0188741D01*
X0075389Y0180600D01*
X0055804Y0180600D01*
X0054334Y0179991D01*
X0047193Y0172850D01*
X0045357Y0172850D01*
X0043060Y0171898D01*
X0041302Y0170140D01*
X0040350Y0167843D01*
X0040350Y0165357D01*
X0041302Y0163060D01*
X0043060Y0161302D01*
X0045357Y0160350D01*
X0047843Y0160350D01*
X0050140Y0161302D01*
X0051600Y0162761D01*
X0052600Y0161761D01*
X0052600Y0145804D01*
X0053209Y0144334D01*
X0054334Y0143209D01*
X0059334Y0138209D01*
X0060804Y0137600D01*
X0097396Y0137600D01*
X0098866Y0138209D01*
X0099991Y0139334D01*
X0114991Y0154334D01*
X0115600Y0155804D01*
X0115600Y0174943D01*
X0118257Y0177600D01*
X0154943Y0177600D01*
X0165800Y0166743D01*
X0165800Y0164198D01*
X0167600Y0162398D01*
X0167600Y0051439D01*
X0166600Y0050439D01*
X0165140Y0051898D01*
X0162843Y0052850D01*
X0160357Y0052850D01*
X0158060Y0051898D01*
X0156600Y0050439D01*
X0155140Y0051898D01*
X0152843Y0052850D01*
X0150357Y0052850D01*
X0148060Y0051898D01*
X0146600Y0050439D01*
X0145140Y0051898D01*
X0142843Y0052850D01*
X0140357Y0052850D01*
X0138060Y0051898D01*
X0136600Y0050439D01*
X0135140Y0051898D01*
X0132843Y0052850D01*
X0130357Y0052850D01*
X0128060Y0051898D01*
X0126302Y0050140D01*
X0125350Y0047843D01*
X0125350Y0045357D01*
X0126302Y0043060D01*
X0128060Y0041302D01*
X0128613Y0041072D01*
X0036606Y0041072D01*
X0036520Y0041281D01*
X0034430Y0043371D01*
X0031700Y0044502D01*
X0028744Y0044502D01*
X0026014Y0043371D01*
X0025600Y0042957D01*
X0025600Y0049328D01*
X0035248Y0049328D01*
X0036351Y0049785D01*
X0037194Y0050629D01*
X0037651Y0051732D01*
X0037651Y0061783D01*
X0037194Y0062886D01*
X0036351Y0063730D01*
X0035248Y0064187D01*
X0025196Y0064187D01*
X0024094Y0063730D01*
X0023250Y0062886D01*
X0022793Y0061783D01*
X0022793Y0058450D01*
X0019334Y0054991D01*
X0018209Y0053866D01*
X0017600Y0052396D01*
X0017600Y0030804D01*
X0018209Y0029334D01*
X0023209Y0024334D01*
X0024334Y0023209D01*
X0025185Y0022857D01*
X0023924Y0021596D01*
X0022793Y0018865D01*
X0022793Y0015910D01*
X0023924Y0013179D01*
X0026014Y0011089D01*
X0028744Y0009958D01*
X0031700Y0009958D01*
X0034430Y0011089D01*
X0036520Y0013179D01*
X0036606Y0013387D01*
X0183183Y0013387D01*
X0184653Y0013996D01*
X0211007Y0040350D01*
X0215447Y0040350D01*
X0216549Y0040807D01*
X0217393Y0041651D01*
X0217850Y0042753D01*
X0217850Y0050447D01*
X0217393Y0051549D01*
X0216549Y0052393D01*
X0215447Y0052850D01*
X0211007Y0052850D01*
X0195600Y0068257D01*
X0195600Y0187396D01*
X0194991Y0188866D01*
X0193866Y0189991D01*
X0193866Y0189991D01*
X0168866Y0214991D01*
X0167396Y0215600D01*
X0140804Y0215600D01*
X0139334Y0214991D01*
X0132193Y0207850D01*
X0130357Y0207850D01*
X0128060Y0206898D01*
X0127486Y0206325D01*
X0127393Y0206549D01*
X0126549Y0207393D01*
X0125447Y0207850D01*
X0117753Y0207850D01*
X0116651Y0207393D01*
X0115807Y0206549D01*
X0115350Y0205447D01*
X0115350Y0197753D01*
X0115807Y0196651D01*
X0116651Y0195807D01*
X0117753Y0195350D01*
X0125447Y0195350D01*
X0126549Y0195807D01*
X0127393Y0196651D01*
X0127486Y0196875D01*
X0128060Y0196302D01*
X0130357Y0195350D01*
X0132843Y0195350D01*
X0135140Y0196302D01*
X0136898Y0198060D01*
X0137375Y0199209D01*
X0137452Y0199058D01*
X0137901Y0198440D01*
X0138440Y0197901D01*
X0139058Y0197452D01*
X0139738Y0197105D01*
X0140464Y0196869D01*
X0141175Y0196757D01*
X0141175Y0201175D01*
X0142025Y0201175D01*
X0142025Y0202025D01*
X0146443Y0202025D01*
X0146331Y0202736D01*
X0146095Y0203462D01*
X0145748Y0204142D01*
X0145299Y0204760D01*
X0144760Y0205299D01*
X0144142Y0205748D01*
X0143462Y0206095D01*
X0142736Y0206331D01*
X0142090Y0206433D01*
X0143257Y0207600D01*
X0164943Y0207600D01*
X0187600Y0184943D01*
X0187600Y0065804D01*
X0188209Y0064334D01*
X0199888Y0052656D01*
X0198060Y0051898D01*
X0196600Y0050439D01*
X0195140Y0051898D01*
X0192843Y0052850D01*
X0191007Y0052850D01*
X0185600Y0058257D01*
X0185600Y0177396D01*
X0184991Y0178866D01*
X0183866Y0179991D01*
X0183866Y0179991D01*
X0174991Y0188866D01*
X0173866Y0189991D01*
X0172396Y0190600D01*
X0105600Y0190600D01*
X0105600Y0204943D01*
X0113257Y0212600D01*
X0127396Y0212600D01*
X0128866Y0213209D01*
X0129991Y0214334D01*
X0134991Y0219334D01*
X0135600Y0220804D01*
X0135600Y0221761D01*
X0136600Y0222761D01*
X0138060Y0221302D01*
X0140357Y0220350D01*
X0142843Y0220350D01*
X0145140Y0221302D01*
X0146439Y0222600D01*
X0167398Y0222600D01*
X0169198Y0220800D01*
X0174002Y0220800D01*
X0177400Y0224198D01*
X0177400Y0229002D01*
X0174002Y0232400D01*
X0169198Y0232400D01*
X0167398Y0230600D01*
X0146439Y0230600D01*
X0145140Y0231898D01*
X0143447Y0232600D01*
X0201761Y0232600D01*
X0202761Y0231600D01*
X0201302Y0230140D01*
X0200350Y0227843D01*
X0200350Y0225357D01*
X0201302Y0223060D01*
X0202761Y0221600D01*
X0201302Y0220140D01*
X0200350Y0217843D01*
X0200350Y0215357D01*
X0201302Y0213060D01*
X0202761Y0211600D01*
X0201302Y0210140D01*
X0200350Y0207843D01*
X0200350Y0205357D01*
X0201302Y0203060D01*
X0202761Y0201600D01*
X0201302Y0200140D01*
X0200350Y0197843D01*
X0200350Y0195357D01*
X0201302Y0193060D01*
X0202761Y0191600D01*
X0201302Y0190140D01*
X0200350Y0187843D01*
X0200350Y0185357D01*
X0201302Y0183060D01*
X0202761Y0181600D01*
X0201302Y0180140D01*
X0200350Y0177843D01*
X0200350Y0175357D01*
X0201302Y0173060D01*
X0202761Y0171600D01*
X0201302Y0170140D01*
X0200350Y0167843D01*
X0200350Y0165357D01*
X0201302Y0163060D01*
X0202761Y0161600D01*
X0201302Y0160140D01*
X0200350Y0157843D01*
X0200350Y0155357D01*
X0201302Y0153060D01*
X0202761Y0151600D01*
X0201302Y0150140D01*
X0200350Y0147843D01*
X0200350Y0145357D01*
X0201302Y0143060D01*
X0202761Y0141600D01*
X0201302Y0140140D01*
X0200350Y0137843D01*
X0200350Y0135357D01*
X0201302Y0133060D01*
X0202761Y0131600D01*
X0201302Y0130140D01*
X0200350Y0127843D01*
X0200350Y0125357D01*
X0201302Y0123060D01*
X0202761Y0121600D01*
X0201302Y0120140D01*
X0200350Y0117843D01*
X0200350Y0115357D01*
X0201302Y0113060D01*
X0202761Y0111600D01*
X0201302Y0110140D01*
X0200350Y0107843D01*
X0200350Y0105357D01*
X0201302Y0103060D01*
X0202761Y0101600D01*
X0201302Y0100140D01*
X0200350Y0097843D01*
X0200350Y0095357D01*
X0201302Y0093060D01*
X0202761Y0091600D01*
X0201302Y0090140D01*
X0200350Y0087843D01*
X0200350Y0085357D01*
X0201302Y0083060D01*
X0202761Y0081600D01*
X0201302Y0080140D01*
X0200350Y0077843D01*
X0200350Y0075357D01*
X0201302Y0073060D01*
X0203060Y0071302D01*
X0205357Y0070350D01*
X0207843Y0070350D01*
X0210140Y0071302D01*
X0211600Y0072761D01*
X0213060Y0071302D01*
X0215357Y0070350D01*
X0217843Y0070350D01*
X0220140Y0071302D01*
X0221898Y0073060D01*
X0222850Y0075357D01*
X0222850Y0077843D01*
X0221898Y0080140D01*
X0220439Y0081600D01*
X0221898Y0083060D01*
X0222850Y0085357D01*
X0222850Y0087843D01*
X0221898Y0090140D01*
X0220439Y0091600D01*
X0221898Y0093060D01*
X0222850Y0095357D01*
X0222850Y0097843D01*
X0221898Y0100140D01*
X0220439Y0101600D01*
X0221898Y0103060D01*
X0222850Y0105357D01*
X0222850Y0107843D01*
X0221898Y0110140D01*
X0220439Y0111600D01*
X0221898Y0113060D01*
X0222850Y0115357D01*
X0222850Y0117843D01*
X0221898Y0120140D01*
X0220439Y0121600D01*
X0221898Y0123060D01*
X0222850Y0125357D01*
X0222850Y0127843D01*
X0221898Y0130140D01*
X0220439Y0131600D01*
X0221898Y0133060D01*
X0222850Y0135357D01*
X0222850Y0137843D01*
X0221898Y0140140D01*
X0220439Y0141600D01*
X0221898Y0143060D01*
X0222850Y0145357D01*
X0222850Y0147843D01*
X0221898Y0150140D01*
X0220439Y0151600D01*
X0221898Y0153060D01*
X0222850Y0155357D01*
X0222850Y0157843D01*
X0221898Y0160140D01*
X0220439Y0161600D01*
X0221898Y0163060D01*
X0222850Y0165357D01*
X0222850Y0167843D01*
X0221898Y0170140D01*
X0220439Y0171600D01*
X0221898Y0173060D01*
X0222850Y0175357D01*
X0222850Y0177843D01*
X0221898Y0180140D01*
X0220439Y0181600D01*
X0221898Y0183060D01*
X0222850Y0185357D01*
X0222850Y0187843D01*
X0221898Y0190140D01*
X0220439Y0191600D01*
X0221898Y0193060D01*
X0222850Y0195357D01*
X0222850Y0197843D01*
X0221898Y0200140D01*
X0220439Y0201600D01*
X0221898Y0203060D01*
X0222850Y0205357D01*
X0222850Y0207843D01*
X0221898Y0210140D01*
X0220439Y0211600D01*
X0221898Y0213060D01*
X0222850Y0215357D01*
X0222850Y0217843D01*
X0221898Y0220140D01*
X0220439Y0221600D01*
X0221898Y0223060D01*
X0222850Y0225357D01*
X0222850Y0227843D01*
X0221898Y0230140D01*
X0220439Y0231600D01*
X0221898Y0233060D01*
X0222850Y0235357D01*
X0222850Y0237843D01*
X0221898Y0240140D01*
X0220439Y0241600D01*
X0221898Y0243060D01*
X0222850Y0245357D01*
X0222850Y0247843D01*
X0221898Y0250140D01*
X0220439Y0251600D01*
X0221898Y0253060D01*
X0222850Y0255357D01*
X0222850Y0257843D01*
X0221898Y0260140D01*
X0220439Y0261600D01*
X0221898Y0263060D01*
X0222850Y0265357D01*
X0222850Y0267843D01*
X0221898Y0270140D01*
X0220439Y0271600D01*
X0221898Y0273060D01*
X0222850Y0275357D01*
X0222850Y0277843D01*
X0221898Y0280140D01*
X0220439Y0281600D01*
X0221898Y0283060D01*
X0222850Y0285357D01*
X0222850Y0287843D01*
X0221898Y0290140D01*
X0220140Y0291898D01*
X0218991Y0292375D01*
X0219142Y0292452D01*
X0219760Y0292901D01*
X0220299Y0293440D01*
X0220748Y0294058D01*
X0221095Y0294738D01*
X0221331Y0295464D01*
X0221443Y0296175D01*
X0217025Y0296175D01*
X0217025Y0297025D01*
X0216175Y0297025D01*
X0216175Y0301443D01*
X0215464Y0301331D01*
X0214738Y0301095D01*
X0214058Y0300748D01*
X0213440Y0300299D01*
X0212901Y0299760D01*
X0212452Y0299142D01*
X0212105Y0298462D01*
X0211869Y0297736D01*
X0211757Y0297025D01*
X0216175Y0297025D01*
X0216175Y0296175D01*
X0211757Y0296175D01*
X0211869Y0295464D01*
X0212105Y0294738D01*
X0212452Y0294058D01*
X0212901Y0293440D01*
X0213440Y0292901D01*
X0214058Y0292452D01*
X0214209Y0292375D01*
X0213060Y0291898D01*
X0211600Y0290439D01*
X0210241Y0291798D01*
X0210468Y0291859D01*
X0210832Y0292070D01*
X0211130Y0292368D01*
X0211341Y0292732D01*
X0211450Y0293139D01*
X0211450Y0296175D01*
X0207025Y0296175D01*
X0207025Y0297025D01*
X0206175Y0297025D01*
X0206175Y0301450D01*
X0203139Y0301450D01*
X0202732Y0301341D01*
X0202368Y0301130D01*
X0202070Y0300832D01*
X0201859Y0300468D01*
X0201750Y0300061D01*
X0201750Y0297025D01*
X0206175Y0297025D01*
X0206175Y0296175D01*
X0201750Y0296175D01*
X0201750Y0293139D01*
X0201859Y0292732D01*
X0202070Y0292368D01*
X0202368Y0292070D01*
X0202732Y0291859D01*
X0202959Y0291798D01*
X0201302Y0290140D01*
X0200350Y0287843D01*
X0200350Y0285357D01*
X0201302Y0283060D01*
X0202761Y0281600D01*
X0201302Y0280140D01*
X0200350Y0277843D01*
X0200350Y0275357D01*
X0201302Y0273060D01*
X0202761Y0271600D01*
X0201302Y0270140D01*
X0200350Y0267843D01*
X0200350Y0265357D01*
X0201302Y0263060D01*
X0202761Y0261600D01*
X0201302Y0260140D01*
X0200350Y0257843D01*
X0200350Y0255357D01*
X0201302Y0253060D01*
X0202761Y0251600D01*
X0201302Y0250140D01*
X0200350Y0247843D01*
X0200350Y0245357D01*
X0201302Y0243060D01*
X0202761Y0241600D01*
X0201761Y0240600D01*
X0156257Y0240600D01*
X0159991Y0244334D01*
X0160600Y0245804D01*
X0160600Y0257396D01*
X0159991Y0258866D01*
X0158866Y0259991D01*
X0138866Y0279991D01*
X0137396Y0280600D01*
X0048257Y0280600D01*
X0038866Y0289991D01*
X0037396Y0290600D01*
X0031439Y0290600D01*
X0030140Y0291898D01*
X0028991Y0292375D01*
X0029142Y0292452D01*
X0029760Y0292901D01*
X0030299Y0293440D01*
X0030748Y0294058D01*
X0031095Y0294738D01*
X0031331Y0295464D01*
X0031443Y0296175D01*
X0027025Y0296175D01*
X0027025Y0297025D01*
X0026175Y0297025D01*
X0026175Y0296175D01*
X0021757Y0296175D01*
X0021869Y0295464D01*
X0022105Y0294738D01*
X0022452Y0294058D01*
X0022901Y0293440D01*
X0023440Y0292901D01*
X0024058Y0292452D01*
X0024209Y0292375D01*
X0023060Y0291898D01*
X0021761Y0290600D01*
X0021439Y0290600D01*
X0020241Y0291798D01*
X0020468Y0291859D01*
X0020832Y0292070D01*
X0021130Y0292368D01*
X0021341Y0292732D01*
X0021450Y0293139D01*
X0021450Y0296175D01*
X0017025Y0296175D01*
X0017025Y0297025D01*
X0021450Y0297025D01*
X0021450Y0300061D01*
X0021341Y0300468D01*
X0021130Y0300832D01*
X0020832Y0301130D01*
X0020468Y0301341D01*
X0020061Y0301450D01*
X0021403Y0300235D02*
X0023376Y0300235D01*
X0022398Y0299037D02*
X0021450Y0299037D01*
X0021450Y0297838D02*
X0021903Y0297838D01*
X0021877Y0295441D02*
X0021450Y0295441D01*
X0021450Y0294243D02*
X0022358Y0294243D01*
X0021424Y0293044D02*
X0023297Y0293044D01*
X0023007Y0291846D02*
X0020418Y0291846D01*
X0021392Y0290647D02*
X0021808Y0290647D01*
X0026175Y0296640D02*
X0017025Y0296640D01*
X0016175Y0296640D02*
X0004600Y0296640D01*
X0004600Y0297838D02*
X0011750Y0297838D01*
X0011750Y0299037D02*
X0004600Y0299037D01*
X0004600Y0300235D02*
X0011797Y0300235D01*
X0013079Y0301434D02*
X0004600Y0301434D01*
X0004600Y0295441D02*
X0011750Y0295441D01*
X0011750Y0294243D02*
X0004600Y0294243D01*
X0004600Y0293044D02*
X0011775Y0293044D01*
X0012782Y0291846D02*
X0004600Y0291846D01*
X0004600Y0290647D02*
X0011808Y0290647D01*
X0011015Y0289449D02*
X0004600Y0289449D01*
X0004600Y0288250D02*
X0010519Y0288250D01*
X0010350Y0287052D02*
X0004600Y0287052D01*
X0004600Y0285853D02*
X0010350Y0285853D01*
X0010641Y0284655D02*
X0004600Y0284655D01*
X0004600Y0283456D02*
X0011137Y0283456D01*
X0012104Y0282258D02*
X0004600Y0282258D01*
X0004600Y0281059D02*
X0012220Y0281059D01*
X0011186Y0279861D02*
X0004600Y0279861D01*
X0004600Y0278662D02*
X0010689Y0278662D01*
X0010350Y0277464D02*
X0004600Y0277464D01*
X0004600Y0276265D02*
X0010350Y0276265D01*
X0010470Y0275067D02*
X0004600Y0275067D01*
X0004600Y0273868D02*
X0010967Y0273868D01*
X0011692Y0272670D02*
X0004600Y0272670D01*
X0004600Y0271471D02*
X0012632Y0271471D01*
X0011434Y0270272D02*
X0004600Y0270272D01*
X0004600Y0269074D02*
X0010860Y0269074D01*
X0010363Y0267875D02*
X0004600Y0267875D01*
X0004600Y0266677D02*
X0010350Y0266677D01*
X0010350Y0265478D02*
X0004600Y0265478D01*
X0004600Y0264280D02*
X0010796Y0264280D01*
X0011292Y0263081D02*
X0004600Y0263081D01*
X0004600Y0261883D02*
X0012478Y0261883D01*
X0011846Y0260684D02*
X0004600Y0260684D01*
X0004600Y0259486D02*
X0011030Y0259486D01*
X0010534Y0258287D02*
X0004600Y0258287D01*
X0004600Y0257089D02*
X0010350Y0257089D01*
X0010350Y0255890D02*
X0004600Y0255890D01*
X0004600Y0254692D02*
X0010625Y0254692D01*
X0011122Y0253493D02*
X0004600Y0253493D01*
X0004600Y0252295D02*
X0012066Y0252295D01*
X0012257Y0251096D02*
X0004600Y0251096D01*
X0004600Y0249898D02*
X0011201Y0249898D01*
X0010705Y0248699D02*
X0004600Y0248699D01*
X0004600Y0247501D02*
X0010350Y0247501D01*
X0010350Y0246302D02*
X0004600Y0246302D01*
X0004600Y0245104D02*
X0010455Y0245104D01*
X0010951Y0243905D02*
X0004600Y0243905D01*
X0004600Y0242707D02*
X0011654Y0242707D01*
X0012669Y0241508D02*
X0004600Y0241508D01*
X0004600Y0240310D02*
X0011471Y0240310D01*
X0010875Y0239111D02*
X0004600Y0239111D01*
X0004600Y0237913D02*
X0010379Y0237913D01*
X0010350Y0236714D02*
X0004600Y0236714D01*
X0004600Y0235516D02*
X0010350Y0235516D01*
X0010781Y0234317D02*
X0004600Y0234317D01*
X0004600Y0233119D02*
X0011277Y0233119D01*
X0012441Y0231920D02*
X0004600Y0231920D01*
X0004600Y0230722D02*
X0011883Y0230722D01*
X0011046Y0229523D02*
X0004600Y0229523D01*
X0004600Y0228325D02*
X0010549Y0228325D01*
X0010350Y0227126D02*
X0004600Y0227126D01*
X0004600Y0225928D02*
X0010350Y0225928D01*
X0010610Y0224729D02*
X0004600Y0224729D01*
X0004600Y0223531D02*
X0011106Y0223531D01*
X0012029Y0222332D02*
X0004600Y0222332D01*
X0004600Y0221134D02*
X0012295Y0221134D01*
X0011216Y0219935D02*
X0004600Y0219935D01*
X0004600Y0218737D02*
X0010720Y0218737D01*
X0010350Y0217538D02*
X0004600Y0217538D01*
X0004600Y0216339D02*
X0010350Y0216339D01*
X0010439Y0215141D02*
X0004600Y0215141D01*
X0004600Y0213942D02*
X0010936Y0213942D01*
X0011617Y0212744D02*
X0004600Y0212744D01*
X0004600Y0211545D02*
X0012707Y0211545D01*
X0011508Y0210347D02*
X0004600Y0210347D01*
X0004600Y0209148D02*
X0010891Y0209148D01*
X0010394Y0207950D02*
X0004600Y0207950D01*
X0004600Y0206751D02*
X0010350Y0206751D01*
X0010350Y0205553D02*
X0004600Y0205553D01*
X0004600Y0204354D02*
X0010765Y0204354D01*
X0011262Y0203156D02*
X0004600Y0203156D01*
X0004600Y0201957D02*
X0012404Y0201957D01*
X0011920Y0200759D02*
X0004600Y0200759D01*
X0004600Y0199560D02*
X0011061Y0199560D01*
X0010565Y0198362D02*
X0004600Y0198362D01*
X0004600Y0197163D02*
X0010350Y0197163D01*
X0010350Y0195965D02*
X0004600Y0195965D01*
X0004600Y0194766D02*
X0010595Y0194766D01*
X0011091Y0193568D02*
X0004600Y0193568D01*
X0004600Y0192369D02*
X0011992Y0192369D01*
X0012332Y0191171D02*
X0004600Y0191171D01*
X0004600Y0189972D02*
X0011232Y0189972D01*
X0010735Y0188774D02*
X0004600Y0188774D01*
X0004600Y0187575D02*
X0010350Y0187575D01*
X0010350Y0186377D02*
X0004600Y0186377D01*
X0004600Y0185178D02*
X0010424Y0185178D01*
X0010920Y0183980D02*
X0004600Y0183980D01*
X0004600Y0182781D02*
X0011580Y0182781D01*
X0012744Y0181583D02*
X0004600Y0181583D01*
X0004600Y0180384D02*
X0011545Y0180384D01*
X0010906Y0179186D02*
X0004600Y0179186D01*
X0004600Y0177987D02*
X0010410Y0177987D01*
X0010350Y0176789D02*
X0004600Y0176789D01*
X0004600Y0175590D02*
X0010350Y0175590D01*
X0010750Y0174392D02*
X0004600Y0174392D01*
X0004600Y0173193D02*
X0011246Y0173193D01*
X0012367Y0171995D02*
X0004600Y0171995D01*
X0004600Y0170796D02*
X0011957Y0170796D01*
X0011077Y0169598D02*
X0004600Y0169598D01*
X0004600Y0168399D02*
X0010580Y0168399D01*
X0010350Y0167201D02*
X0004600Y0167201D01*
X0004600Y0166002D02*
X0010350Y0166002D01*
X0010579Y0164803D02*
X0004600Y0164803D01*
X0004600Y0163605D02*
X0011076Y0163605D01*
X0011955Y0162406D02*
X0004600Y0162406D01*
X0004600Y0161208D02*
X0012369Y0161208D01*
X0011247Y0160009D02*
X0004600Y0160009D01*
X0004600Y0158811D02*
X0010751Y0158811D01*
X0010350Y0157612D02*
X0004600Y0157612D01*
X0004600Y0156414D02*
X0010350Y0156414D01*
X0010409Y0155215D02*
X0004600Y0155215D01*
X0004600Y0154017D02*
X0010905Y0154017D01*
X0011543Y0152818D02*
X0004600Y0152818D01*
X0004600Y0151620D02*
X0012741Y0151620D01*
X0011583Y0150421D02*
X0004600Y0150421D01*
X0004600Y0149223D02*
X0010921Y0149223D01*
X0010425Y0148024D02*
X0004600Y0148024D01*
X0004600Y0146826D02*
X0010350Y0146826D01*
X0010350Y0145627D02*
X0004600Y0145627D01*
X0004600Y0144429D02*
X0010734Y0144429D01*
X0011231Y0143230D02*
X0004600Y0143230D01*
X0004600Y0142032D02*
X0012329Y0142032D01*
X0011994Y0140833D02*
X0004600Y0140833D01*
X0004600Y0139635D02*
X0011092Y0139635D01*
X0010596Y0138436D02*
X0004600Y0138436D01*
X0004600Y0137238D02*
X0010350Y0137238D01*
X0010350Y0136039D02*
X0004600Y0136039D01*
X0004600Y0134841D02*
X0010564Y0134841D01*
X0011060Y0133642D02*
X0004600Y0133642D01*
X0004600Y0132444D02*
X0011917Y0132444D01*
X0012406Y0131245D02*
X0004600Y0131245D01*
X0004600Y0130047D02*
X0011263Y0130047D01*
X0010766Y0128848D02*
X0004600Y0128848D01*
X0004600Y0127650D02*
X0010350Y0127650D01*
X0010350Y0126451D02*
X0004600Y0126451D01*
X0004600Y0125253D02*
X0010393Y0125253D01*
X0010890Y0124054D02*
X0004600Y0124054D01*
X0004600Y0122856D02*
X0011506Y0122856D01*
X0012704Y0121657D02*
X0004600Y0121657D01*
X0004600Y0120459D02*
X0011620Y0120459D01*
X0010937Y0119260D02*
X0004600Y0119260D01*
X0004600Y0118062D02*
X0010440Y0118062D01*
X0010350Y0116863D02*
X0004600Y0116863D01*
X0004600Y0115665D02*
X0010350Y0115665D01*
X0010719Y0114466D02*
X0004600Y0114466D01*
X0004600Y0113268D02*
X0011215Y0113268D01*
X0012292Y0112069D02*
X0004600Y0112069D01*
X0004600Y0110870D02*
X0012032Y0110870D01*
X0011108Y0109672D02*
X0004600Y0109672D01*
X0004600Y0108473D02*
X0010611Y0108473D01*
X0010350Y0107275D02*
X0004600Y0107275D01*
X0004600Y0106076D02*
X0010350Y0106076D01*
X0010548Y0104878D02*
X0004600Y0104878D01*
X0004600Y0103679D02*
X0011045Y0103679D01*
X0011880Y0102481D02*
X0004600Y0102481D01*
X0004600Y0101282D02*
X0012444Y0101282D01*
X0011278Y0100084D02*
X0004600Y0100084D01*
X0004600Y0098885D02*
X0010782Y0098885D01*
X0010350Y0097687D02*
X0004600Y0097687D01*
X0004600Y0096488D02*
X0010350Y0096488D01*
X0010378Y0095290D02*
X0004600Y0095290D01*
X0004600Y0094091D02*
X0010874Y0094091D01*
X0011468Y0092893D02*
X0004600Y0092893D01*
X0004600Y0091694D02*
X0012667Y0091694D01*
X0011657Y0090496D02*
X0004600Y0090496D01*
X0004600Y0089297D02*
X0010952Y0089297D01*
X0010456Y0088099D02*
X0004600Y0088099D01*
X0004600Y0086900D02*
X0010350Y0086900D01*
X0010350Y0085702D02*
X0004600Y0085702D01*
X0004600Y0084503D02*
X0010704Y0084503D01*
X0011200Y0083305D02*
X0004600Y0083305D01*
X0004600Y0082106D02*
X0012255Y0082106D01*
X0012069Y0080908D02*
X0004600Y0080908D01*
X0004600Y0079709D02*
X0011123Y0079709D01*
X0010626Y0078511D02*
X0004600Y0078511D01*
X0004600Y0077312D02*
X0010350Y0077312D01*
X0010350Y0076114D02*
X0004600Y0076114D01*
X0004600Y0074915D02*
X0010533Y0074915D01*
X0011029Y0073717D02*
X0004600Y0073717D01*
X0004600Y0072518D02*
X0011843Y0072518D01*
X0013042Y0071320D02*
X0004600Y0071320D01*
X0004600Y0070121D02*
X0167600Y0070121D01*
X0167600Y0068923D02*
X0004600Y0068923D01*
X0004600Y0067724D02*
X0167600Y0067724D01*
X0167600Y0066526D02*
X0004600Y0066526D01*
X0004600Y0065327D02*
X0167600Y0065327D01*
X0167600Y0064129D02*
X0035388Y0064129D01*
X0037150Y0062930D02*
X0167600Y0062930D01*
X0167600Y0061732D02*
X0037651Y0061732D01*
X0037651Y0060533D02*
X0167600Y0060533D01*
X0167600Y0059334D02*
X0037651Y0059334D01*
X0037651Y0058136D02*
X0167600Y0058136D01*
X0167600Y0056937D02*
X0037651Y0056937D01*
X0037651Y0055739D02*
X0167600Y0055739D01*
X0167600Y0054540D02*
X0037651Y0054540D01*
X0037651Y0053342D02*
X0167600Y0053342D01*
X0167600Y0052143D02*
X0164549Y0052143D01*
X0166094Y0050945D02*
X0167106Y0050945D01*
X0158651Y0052143D02*
X0154549Y0052143D01*
X0156094Y0050945D02*
X0157106Y0050945D01*
X0148651Y0052143D02*
X0144549Y0052143D01*
X0146094Y0050945D02*
X0147106Y0050945D01*
X0138651Y0052143D02*
X0134549Y0052143D01*
X0136094Y0050945D02*
X0137106Y0050945D01*
X0128651Y0052143D02*
X0037651Y0052143D01*
X0037325Y0050945D02*
X0127106Y0050945D01*
X0126138Y0049746D02*
X0036257Y0049746D01*
X0033505Y0043754D02*
X0126014Y0043754D01*
X0125518Y0044952D02*
X0025600Y0044952D01*
X0025600Y0043754D02*
X0026939Y0043754D01*
X0025600Y0046151D02*
X0125350Y0046151D01*
X0125350Y0047349D02*
X0025600Y0047349D01*
X0025600Y0048548D02*
X0125642Y0048548D01*
X0126806Y0042555D02*
X0035246Y0042555D01*
X0036444Y0041357D02*
X0128004Y0041357D01*
X0167600Y0071320D02*
X0030158Y0071320D01*
X0031357Y0072518D02*
X0167600Y0072518D01*
X0167600Y0073717D02*
X0032171Y0073717D01*
X0032667Y0074915D02*
X0167600Y0074915D01*
X0167600Y0076114D02*
X0032850Y0076114D01*
X0032850Y0077312D02*
X0167600Y0077312D01*
X0167600Y0078511D02*
X0032574Y0078511D01*
X0032077Y0079709D02*
X0167600Y0079709D01*
X0167600Y0080908D02*
X0031131Y0080908D01*
X0030945Y0082106D02*
X0167600Y0082106D01*
X0167600Y0083305D02*
X0032000Y0083305D01*
X0032496Y0084503D02*
X0167600Y0084503D01*
X0167600Y0085702D02*
X0032850Y0085702D01*
X0032850Y0086900D02*
X0167600Y0086900D01*
X0167600Y0088099D02*
X0032744Y0088099D01*
X0032248Y0089297D02*
X0167600Y0089297D01*
X0167600Y0090496D02*
X0031543Y0090496D01*
X0030533Y0091694D02*
X0167600Y0091694D01*
X0167600Y0092893D02*
X0031732Y0092893D01*
X0032326Y0094091D02*
X0167600Y0094091D01*
X0167600Y0095290D02*
X0032822Y0095290D01*
X0032850Y0096488D02*
X0167600Y0096488D01*
X0167600Y0097687D02*
X0032850Y0097687D01*
X0032418Y0098885D02*
X0167600Y0098885D01*
X0167600Y0100084D02*
X0031922Y0100084D01*
X0030756Y0101282D02*
X0167600Y0101282D01*
X0167600Y0102481D02*
X0031320Y0102481D01*
X0032155Y0103679D02*
X0167600Y0103679D01*
X0167600Y0104878D02*
X0032652Y0104878D01*
X0032850Y0106076D02*
X0167600Y0106076D01*
X0167600Y0107275D02*
X0032850Y0107275D01*
X0032589Y0108473D02*
X0167600Y0108473D01*
X0167600Y0109672D02*
X0032092Y0109672D01*
X0031168Y0110870D02*
X0167600Y0110870D01*
X0167600Y0112069D02*
X0030908Y0112069D01*
X0031985Y0113268D02*
X0167600Y0113268D01*
X0167600Y0114466D02*
X0032481Y0114466D01*
X0032850Y0115665D02*
X0167600Y0115665D01*
X0167600Y0116863D02*
X0032850Y0116863D01*
X0032760Y0118062D02*
X0167600Y0118062D01*
X0167600Y0119260D02*
X0032263Y0119260D01*
X0031580Y0120459D02*
X0167600Y0120459D01*
X0167600Y0121657D02*
X0030496Y0121657D01*
X0031694Y0122856D02*
X0167600Y0122856D01*
X0167600Y0124054D02*
X0032310Y0124054D01*
X0032807Y0125253D02*
X0167600Y0125253D01*
X0167600Y0126451D02*
X0032850Y0126451D01*
X0032850Y0127650D02*
X0167600Y0127650D01*
X0167600Y0128848D02*
X0032434Y0128848D01*
X0031937Y0130047D02*
X0167600Y0130047D01*
X0167600Y0131245D02*
X0030794Y0131245D01*
X0031283Y0132444D02*
X0167600Y0132444D01*
X0167600Y0133642D02*
X0032140Y0133642D01*
X0032636Y0134841D02*
X0167600Y0134841D01*
X0167600Y0136039D02*
X0032850Y0136039D01*
X0032850Y0137238D02*
X0167600Y0137238D01*
X0167600Y0138436D02*
X0099093Y0138436D01*
X0100292Y0139635D02*
X0167600Y0139635D01*
X0167600Y0140833D02*
X0101490Y0140833D01*
X0102689Y0142032D02*
X0167600Y0142032D01*
X0167600Y0143230D02*
X0103887Y0143230D01*
X0105086Y0144429D02*
X0167600Y0144429D01*
X0167600Y0145627D02*
X0106284Y0145627D01*
X0107483Y0146826D02*
X0167600Y0146826D01*
X0167600Y0148024D02*
X0108681Y0148024D01*
X0109880Y0149223D02*
X0167600Y0149223D01*
X0167600Y0150421D02*
X0111078Y0150421D01*
X0112277Y0151620D02*
X0167600Y0151620D01*
X0167600Y0152818D02*
X0113475Y0152818D01*
X0114674Y0154017D02*
X0167600Y0154017D01*
X0167600Y0155215D02*
X0115356Y0155215D01*
X0115600Y0156414D02*
X0167600Y0156414D01*
X0167600Y0157612D02*
X0115600Y0157612D01*
X0115600Y0158811D02*
X0167600Y0158811D01*
X0167600Y0160009D02*
X0115600Y0160009D01*
X0115600Y0161208D02*
X0167600Y0161208D01*
X0167591Y0162406D02*
X0115600Y0162406D01*
X0115600Y0163605D02*
X0166393Y0163605D01*
X0165800Y0164803D02*
X0115600Y0164803D01*
X0115600Y0166002D02*
X0165800Y0166002D01*
X0165343Y0167201D02*
X0115600Y0167201D01*
X0115600Y0168399D02*
X0164144Y0168399D01*
X0162946Y0169598D02*
X0115600Y0169598D01*
X0115600Y0170796D02*
X0161747Y0170796D01*
X0160549Y0171995D02*
X0115600Y0171995D01*
X0115600Y0173193D02*
X0159350Y0173193D01*
X0158152Y0174392D02*
X0115600Y0174392D01*
X0116247Y0175590D02*
X0156953Y0175590D01*
X0155755Y0176789D02*
X0117445Y0176789D01*
X0105600Y0191171D02*
X0181372Y0191171D01*
X0180174Y0192369D02*
X0105600Y0192369D01*
X0105600Y0193568D02*
X0178975Y0193568D01*
X0177777Y0194766D02*
X0105600Y0194766D01*
X0105600Y0195965D02*
X0116493Y0195965D01*
X0115594Y0197163D02*
X0105600Y0197163D01*
X0105600Y0198362D02*
X0115350Y0198362D01*
X0115350Y0199560D02*
X0105600Y0199560D01*
X0105600Y0200759D02*
X0115350Y0200759D01*
X0115350Y0201957D02*
X0105600Y0201957D01*
X0105600Y0203156D02*
X0115350Y0203156D01*
X0115350Y0204354D02*
X0105600Y0204354D01*
X0106210Y0205553D02*
X0115394Y0205553D01*
X0116009Y0206751D02*
X0107408Y0206751D01*
X0108607Y0207950D02*
X0132293Y0207950D01*
X0133492Y0209148D02*
X0109805Y0209148D01*
X0111004Y0210347D02*
X0134690Y0210347D01*
X0135889Y0211545D02*
X0112202Y0211545D01*
X0127743Y0212744D02*
X0137087Y0212744D01*
X0138286Y0213942D02*
X0129599Y0213942D01*
X0130798Y0215141D02*
X0139696Y0215141D01*
X0138465Y0221134D02*
X0135600Y0221134D01*
X0135240Y0219935D02*
X0201216Y0219935D01*
X0200720Y0218737D02*
X0134393Y0218737D01*
X0133195Y0217538D02*
X0200350Y0217538D01*
X0200350Y0216339D02*
X0131996Y0216339D01*
X0136171Y0222332D02*
X0137029Y0222332D01*
X0144735Y0221134D02*
X0168864Y0221134D01*
X0167666Y0222332D02*
X0146171Y0222332D01*
X0146317Y0230722D02*
X0167519Y0230722D01*
X0168718Y0231920D02*
X0145088Y0231920D01*
X0157165Y0241508D02*
X0202669Y0241508D01*
X0201654Y0242707D02*
X0158364Y0242707D01*
X0159562Y0243905D02*
X0200951Y0243905D01*
X0200455Y0245104D02*
X0160310Y0245104D01*
X0160600Y0246302D02*
X0200350Y0246302D01*
X0200350Y0247501D02*
X0160600Y0247501D01*
X0160600Y0248699D02*
X0200705Y0248699D01*
X0201201Y0249898D02*
X0160600Y0249898D01*
X0160600Y0251096D02*
X0202257Y0251096D01*
X0202066Y0252295D02*
X0160600Y0252295D01*
X0160600Y0253493D02*
X0201122Y0253493D01*
X0200625Y0254692D02*
X0160600Y0254692D01*
X0160600Y0255890D02*
X0200350Y0255890D01*
X0200350Y0257089D02*
X0160600Y0257089D01*
X0160231Y0258287D02*
X0200534Y0258287D01*
X0201030Y0259486D02*
X0159371Y0259486D01*
X0158172Y0260684D02*
X0201846Y0260684D01*
X0202478Y0261883D02*
X0156974Y0261883D01*
X0155775Y0263081D02*
X0201292Y0263081D01*
X0200796Y0264280D02*
X0154577Y0264280D01*
X0153378Y0265478D02*
X0200350Y0265478D01*
X0200350Y0266677D02*
X0152180Y0266677D01*
X0150981Y0267875D02*
X0200363Y0267875D01*
X0200860Y0269074D02*
X0149783Y0269074D01*
X0148584Y0270272D02*
X0201434Y0270272D01*
X0202632Y0271471D02*
X0147386Y0271471D01*
X0146187Y0272670D02*
X0201692Y0272670D01*
X0200967Y0273868D02*
X0144989Y0273868D01*
X0143790Y0275067D02*
X0200470Y0275067D01*
X0200350Y0276265D02*
X0142592Y0276265D01*
X0141393Y0277464D02*
X0200350Y0277464D01*
X0200689Y0278662D02*
X0140195Y0278662D01*
X0138996Y0279861D02*
X0201186Y0279861D01*
X0202220Y0281059D02*
X0047798Y0281059D01*
X0046599Y0282258D02*
X0202104Y0282258D01*
X0201137Y0283456D02*
X0045401Y0283456D01*
X0044202Y0284655D02*
X0049303Y0284655D01*
X0048662Y0285853D02*
X0043004Y0285853D01*
X0041805Y0287052D02*
X0048600Y0287052D01*
X0048600Y0288250D02*
X0040607Y0288250D01*
X0039408Y0289449D02*
X0048600Y0289449D01*
X0048600Y0290647D02*
X0031392Y0290647D01*
X0030193Y0291846D02*
X0048600Y0291846D01*
X0048600Y0293044D02*
X0029903Y0293044D01*
X0030842Y0294243D02*
X0048600Y0294243D01*
X0048600Y0295441D02*
X0031323Y0295441D01*
X0031443Y0297025D02*
X0031331Y0297736D01*
X0031095Y0298462D01*
X0030748Y0299142D01*
X0030299Y0299760D01*
X0029760Y0300299D01*
X0029142Y0300748D01*
X0028462Y0301095D01*
X0027736Y0301331D01*
X0027025Y0301443D01*
X0027025Y0297025D01*
X0031443Y0297025D01*
X0031297Y0297838D02*
X0048600Y0297838D01*
X0048600Y0296640D02*
X0027025Y0296640D01*
X0027025Y0297838D02*
X0026175Y0297838D01*
X0026175Y0299037D02*
X0027025Y0299037D01*
X0027025Y0300235D02*
X0026175Y0300235D01*
X0029824Y0300235D02*
X0048600Y0300235D01*
X0048600Y0299037D02*
X0030802Y0299037D01*
X0017025Y0299037D02*
X0016175Y0299037D01*
X0016175Y0300235D02*
X0017025Y0300235D01*
X0017025Y0301434D02*
X0016175Y0301434D01*
X0016175Y0297838D02*
X0017025Y0297838D01*
X0060600Y0249898D02*
X0115350Y0249898D01*
X0115350Y0251096D02*
X0061753Y0251096D01*
X0062952Y0252295D02*
X0115350Y0252295D01*
X0115350Y0253493D02*
X0064150Y0253493D01*
X0065349Y0254692D02*
X0115350Y0254692D01*
X0115534Y0255890D02*
X0066547Y0255890D01*
X0067746Y0257089D02*
X0116346Y0257089D01*
X0115350Y0248699D02*
X0060600Y0248699D01*
X0060600Y0247501D02*
X0115455Y0247501D01*
X0116155Y0246302D02*
X0060600Y0246302D01*
X0060600Y0245104D02*
X0094606Y0245104D01*
X0093248Y0243905D02*
X0060600Y0243905D01*
X0060600Y0242707D02*
X0092050Y0242707D01*
X0090851Y0241508D02*
X0060600Y0241508D01*
X0060600Y0240310D02*
X0089653Y0240310D01*
X0088454Y0239111D02*
X0060600Y0239111D01*
X0060600Y0237913D02*
X0087814Y0237913D01*
X0087600Y0236714D02*
X0060600Y0236714D01*
X0060600Y0235516D02*
X0087600Y0235516D01*
X0087600Y0234317D02*
X0060600Y0234317D01*
X0060600Y0233119D02*
X0087600Y0233119D01*
X0087600Y0231920D02*
X0060600Y0231920D01*
X0060600Y0230722D02*
X0087600Y0230722D01*
X0087600Y0229523D02*
X0060600Y0229523D01*
X0060600Y0228325D02*
X0087600Y0228325D01*
X0087600Y0227126D02*
X0060600Y0227126D01*
X0060600Y0225928D02*
X0087600Y0225928D01*
X0087600Y0224729D02*
X0060600Y0224729D01*
X0060600Y0223531D02*
X0087600Y0223531D01*
X0087600Y0222332D02*
X0060600Y0222332D01*
X0060600Y0221134D02*
X0087600Y0221134D01*
X0087600Y0219935D02*
X0060600Y0219935D01*
X0060600Y0218737D02*
X0087600Y0218737D01*
X0087600Y0217538D02*
X0060600Y0217538D01*
X0060600Y0216339D02*
X0087600Y0216339D01*
X0087600Y0215141D02*
X0060600Y0215141D01*
X0060600Y0213942D02*
X0087600Y0213942D01*
X0087600Y0212744D02*
X0060600Y0212744D01*
X0060600Y0211545D02*
X0087600Y0211545D01*
X0087600Y0210347D02*
X0060600Y0210347D01*
X0060600Y0209148D02*
X0087600Y0209148D01*
X0087600Y0207950D02*
X0060600Y0207950D01*
X0060600Y0206751D02*
X0087600Y0206751D01*
X0087600Y0205553D02*
X0060600Y0205553D01*
X0060600Y0204354D02*
X0087600Y0204354D01*
X0087600Y0203156D02*
X0060600Y0203156D01*
X0060600Y0201957D02*
X0071215Y0201957D01*
X0070479Y0200759D02*
X0069121Y0200759D01*
X0067025Y0200759D02*
X0066175Y0200759D01*
X0066175Y0199560D02*
X0067025Y0199560D01*
X0067025Y0198362D02*
X0066175Y0198362D01*
X0066175Y0197163D02*
X0067025Y0197163D01*
X0064079Y0200759D02*
X0061280Y0200759D01*
X0062139Y0199560D02*
X0062756Y0199560D01*
X0071118Y0185178D02*
X0082256Y0185178D01*
X0080458Y0183980D02*
X0069919Y0183980D01*
X0068356Y0182781D02*
X0078661Y0182781D01*
X0076863Y0181583D02*
X0047522Y0181583D01*
X0046324Y0180384D02*
X0055283Y0180384D01*
X0053529Y0179186D02*
X0045125Y0179186D01*
X0043927Y0177987D02*
X0052330Y0177987D01*
X0051132Y0176789D02*
X0042728Y0176789D01*
X0041530Y0175590D02*
X0049933Y0175590D01*
X0048735Y0174392D02*
X0040331Y0174392D01*
X0039133Y0173193D02*
X0047536Y0173193D01*
X0043292Y0171995D02*
X0030833Y0171995D01*
X0031243Y0170796D02*
X0041957Y0170796D01*
X0041077Y0169598D02*
X0032123Y0169598D01*
X0032620Y0168399D02*
X0040580Y0168399D01*
X0040350Y0167201D02*
X0032850Y0167201D01*
X0032850Y0166002D02*
X0040350Y0166002D01*
X0040579Y0164803D02*
X0032621Y0164803D01*
X0032124Y0163605D02*
X0041076Y0163605D01*
X0041955Y0162406D02*
X0031245Y0162406D01*
X0030831Y0161208D02*
X0043285Y0161208D01*
X0049914Y0161208D02*
X0052600Y0161208D01*
X0052600Y0160009D02*
X0031953Y0160009D01*
X0032449Y0158811D02*
X0052600Y0158811D01*
X0052600Y0157612D02*
X0032850Y0157612D01*
X0032850Y0156414D02*
X0052600Y0156414D01*
X0052600Y0155215D02*
X0032791Y0155215D01*
X0032295Y0154017D02*
X0052600Y0154017D01*
X0052600Y0152818D02*
X0031657Y0152818D01*
X0030459Y0151620D02*
X0052600Y0151620D01*
X0052600Y0150421D02*
X0031617Y0150421D01*
X0032279Y0149223D02*
X0052600Y0149223D01*
X0052600Y0148024D02*
X0032775Y0148024D01*
X0032850Y0146826D02*
X0052600Y0146826D01*
X0052673Y0145627D02*
X0032850Y0145627D01*
X0032466Y0144429D02*
X0053170Y0144429D01*
X0054313Y0143230D02*
X0031969Y0143230D01*
X0030871Y0142032D02*
X0055511Y0142032D01*
X0056710Y0140833D02*
X0031206Y0140833D01*
X0032108Y0139635D02*
X0057908Y0139635D01*
X0059107Y0138436D02*
X0032604Y0138436D01*
X0051245Y0162406D02*
X0051955Y0162406D01*
X0072316Y0186377D02*
X0084054Y0186377D01*
X0085852Y0187575D02*
X0073515Y0187575D01*
X0074713Y0188774D02*
X0087600Y0188774D01*
X0087600Y0189972D02*
X0075912Y0189972D01*
X0081913Y0191171D02*
X0087600Y0191171D01*
X0087600Y0192369D02*
X0082691Y0192369D01*
X0082850Y0193568D02*
X0087600Y0193568D01*
X0087600Y0194766D02*
X0082850Y0194766D01*
X0082850Y0195965D02*
X0087600Y0195965D01*
X0087600Y0197163D02*
X0082850Y0197163D01*
X0082850Y0198362D02*
X0087600Y0198362D01*
X0087600Y0199560D02*
X0082850Y0199560D01*
X0082721Y0200759D02*
X0087600Y0200759D01*
X0087600Y0201957D02*
X0081985Y0201957D01*
X0126707Y0195965D02*
X0128873Y0195965D01*
X0134327Y0195965D02*
X0176578Y0195965D01*
X0175380Y0197163D02*
X0143576Y0197163D01*
X0143462Y0197105D02*
X0144142Y0197452D01*
X0144760Y0197901D01*
X0145299Y0198440D01*
X0145748Y0199058D01*
X0146095Y0199738D01*
X0146331Y0200464D01*
X0146443Y0201175D01*
X0142025Y0201175D01*
X0142025Y0196757D01*
X0142736Y0196869D01*
X0143462Y0197105D01*
X0142025Y0197163D02*
X0141175Y0197163D01*
X0141175Y0198362D02*
X0142025Y0198362D01*
X0142025Y0199560D02*
X0141175Y0199560D01*
X0141175Y0200759D02*
X0142025Y0200759D01*
X0142025Y0201957D02*
X0170586Y0201957D01*
X0171784Y0200759D02*
X0146377Y0200759D01*
X0146004Y0199560D02*
X0172983Y0199560D01*
X0174181Y0198362D02*
X0145221Y0198362D01*
X0146194Y0203156D02*
X0169387Y0203156D01*
X0168189Y0204354D02*
X0145594Y0204354D01*
X0144411Y0205553D02*
X0166990Y0205553D01*
X0165792Y0206751D02*
X0142408Y0206751D01*
X0137979Y0198362D02*
X0137024Y0198362D01*
X0136002Y0197163D02*
X0139624Y0197163D01*
X0127913Y0206751D02*
X0127191Y0206751D01*
X0168504Y0215141D02*
X0200439Y0215141D01*
X0200936Y0213942D02*
X0169914Y0213942D01*
X0171113Y0212744D02*
X0201617Y0212744D01*
X0202707Y0211545D02*
X0172311Y0211545D01*
X0173510Y0210347D02*
X0201508Y0210347D01*
X0200891Y0209148D02*
X0174708Y0209148D01*
X0175907Y0207950D02*
X0200394Y0207950D01*
X0200350Y0206751D02*
X0177105Y0206751D01*
X0178304Y0205553D02*
X0200350Y0205553D01*
X0200765Y0204354D02*
X0179502Y0204354D01*
X0180701Y0203156D02*
X0201262Y0203156D01*
X0202404Y0201957D02*
X0181899Y0201957D01*
X0183098Y0200759D02*
X0201920Y0200759D01*
X0201061Y0199560D02*
X0184297Y0199560D01*
X0185495Y0198362D02*
X0200565Y0198362D01*
X0200350Y0197163D02*
X0186694Y0197163D01*
X0187892Y0195965D02*
X0200350Y0195965D01*
X0200595Y0194766D02*
X0189091Y0194766D01*
X0190289Y0193568D02*
X0201091Y0193568D01*
X0201992Y0192369D02*
X0191488Y0192369D01*
X0192686Y0191171D02*
X0202332Y0191171D01*
X0201232Y0189972D02*
X0193885Y0189972D01*
X0195029Y0188774D02*
X0200735Y0188774D01*
X0200350Y0187575D02*
X0195526Y0187575D01*
X0195600Y0186377D02*
X0200350Y0186377D01*
X0200424Y0185178D02*
X0195600Y0185178D01*
X0195600Y0183980D02*
X0200920Y0183980D01*
X0201580Y0182781D02*
X0195600Y0182781D01*
X0195600Y0181583D02*
X0202744Y0181583D01*
X0201545Y0180384D02*
X0195600Y0180384D01*
X0195600Y0179186D02*
X0200906Y0179186D01*
X0200410Y0177987D02*
X0195600Y0177987D01*
X0195600Y0176789D02*
X0200350Y0176789D01*
X0200350Y0175590D02*
X0195600Y0175590D01*
X0195600Y0174392D02*
X0200750Y0174392D01*
X0201246Y0173193D02*
X0195600Y0173193D01*
X0195600Y0171995D02*
X0202367Y0171995D01*
X0201957Y0170796D02*
X0195600Y0170796D01*
X0195600Y0169598D02*
X0201077Y0169598D01*
X0200580Y0168399D02*
X0195600Y0168399D01*
X0195600Y0167201D02*
X0200350Y0167201D01*
X0200350Y0166002D02*
X0195600Y0166002D01*
X0195600Y0164803D02*
X0200579Y0164803D01*
X0201076Y0163605D02*
X0195600Y0163605D01*
X0195600Y0162406D02*
X0201955Y0162406D01*
X0202369Y0161208D02*
X0195600Y0161208D01*
X0195600Y0160009D02*
X0201247Y0160009D01*
X0200751Y0158811D02*
X0195600Y0158811D01*
X0195600Y0157612D02*
X0200350Y0157612D01*
X0200350Y0156414D02*
X0195600Y0156414D01*
X0195600Y0155215D02*
X0200409Y0155215D01*
X0200905Y0154017D02*
X0195600Y0154017D01*
X0195600Y0152818D02*
X0201543Y0152818D01*
X0202741Y0151620D02*
X0195600Y0151620D01*
X0195600Y0150421D02*
X0201583Y0150421D01*
X0200921Y0149223D02*
X0195600Y0149223D01*
X0195600Y0148024D02*
X0200425Y0148024D01*
X0200350Y0146826D02*
X0195600Y0146826D01*
X0195600Y0145627D02*
X0200350Y0145627D01*
X0200734Y0144429D02*
X0195600Y0144429D01*
X0195600Y0143230D02*
X0201231Y0143230D01*
X0202329Y0142032D02*
X0195600Y0142032D01*
X0195600Y0140833D02*
X0201994Y0140833D01*
X0201092Y0139635D02*
X0195600Y0139635D01*
X0195600Y0138436D02*
X0200596Y0138436D01*
X0200350Y0137238D02*
X0195600Y0137238D01*
X0195600Y0136039D02*
X0200350Y0136039D01*
X0200564Y0134841D02*
X0195600Y0134841D01*
X0195600Y0133642D02*
X0201060Y0133642D01*
X0201917Y0132444D02*
X0195600Y0132444D01*
X0195600Y0131245D02*
X0202406Y0131245D01*
X0201263Y0130047D02*
X0195600Y0130047D01*
X0195600Y0128848D02*
X0200766Y0128848D01*
X0200350Y0127650D02*
X0195600Y0127650D01*
X0195600Y0126451D02*
X0200350Y0126451D01*
X0200393Y0125253D02*
X0195600Y0125253D01*
X0195600Y0124054D02*
X0200890Y0124054D01*
X0201506Y0122856D02*
X0195600Y0122856D01*
X0195600Y0121657D02*
X0202704Y0121657D01*
X0201620Y0120459D02*
X0195600Y0120459D01*
X0195600Y0119260D02*
X0200937Y0119260D01*
X0200440Y0118062D02*
X0195600Y0118062D01*
X0195600Y0116863D02*
X0200350Y0116863D01*
X0200350Y0115665D02*
X0195600Y0115665D01*
X0195600Y0114466D02*
X0200719Y0114466D01*
X0201215Y0113268D02*
X0195600Y0113268D01*
X0195600Y0112069D02*
X0202292Y0112069D01*
X0202032Y0110870D02*
X0195600Y0110870D01*
X0195600Y0109672D02*
X0201108Y0109672D01*
X0200611Y0108473D02*
X0195600Y0108473D01*
X0195600Y0107275D02*
X0200350Y0107275D01*
X0200350Y0106076D02*
X0195600Y0106076D01*
X0195600Y0104878D02*
X0200548Y0104878D01*
X0201045Y0103679D02*
X0195600Y0103679D01*
X0195600Y0102481D02*
X0201880Y0102481D01*
X0202444Y0101282D02*
X0195600Y0101282D01*
X0195600Y0100084D02*
X0201278Y0100084D01*
X0200782Y0098885D02*
X0195600Y0098885D01*
X0195600Y0097687D02*
X0200350Y0097687D01*
X0200350Y0096488D02*
X0195600Y0096488D01*
X0195600Y0095290D02*
X0200378Y0095290D01*
X0200874Y0094091D02*
X0195600Y0094091D01*
X0195600Y0092893D02*
X0201468Y0092893D01*
X0202667Y0091694D02*
X0195600Y0091694D01*
X0195600Y0090496D02*
X0201657Y0090496D01*
X0200952Y0089297D02*
X0195600Y0089297D01*
X0195600Y0088099D02*
X0200456Y0088099D01*
X0200350Y0086900D02*
X0195600Y0086900D01*
X0195600Y0085702D02*
X0200350Y0085702D01*
X0200704Y0084503D02*
X0195600Y0084503D01*
X0195600Y0083305D02*
X0201200Y0083305D01*
X0202255Y0082106D02*
X0195600Y0082106D01*
X0195600Y0080908D02*
X0202069Y0080908D01*
X0201123Y0079709D02*
X0195600Y0079709D01*
X0195600Y0078511D02*
X0200626Y0078511D01*
X0200350Y0077312D02*
X0195600Y0077312D01*
X0195600Y0076114D02*
X0200350Y0076114D01*
X0200533Y0074915D02*
X0195600Y0074915D01*
X0195600Y0073717D02*
X0201029Y0073717D01*
X0201843Y0072518D02*
X0195600Y0072518D01*
X0195600Y0071320D02*
X0203042Y0071320D01*
X0198530Y0065327D02*
X0227301Y0065327D01*
X0227301Y0064129D02*
X0199728Y0064129D01*
X0200927Y0062930D02*
X0227301Y0062930D01*
X0227301Y0061732D02*
X0202125Y0061732D01*
X0203324Y0060533D02*
X0227301Y0060533D01*
X0227301Y0059334D02*
X0204522Y0059334D01*
X0205721Y0058136D02*
X0227301Y0058136D01*
X0227301Y0056937D02*
X0206919Y0056937D01*
X0208118Y0055739D02*
X0227301Y0055739D01*
X0227301Y0054540D02*
X0209316Y0054540D01*
X0210515Y0053342D02*
X0227301Y0053342D01*
X0227301Y0052143D02*
X0216799Y0052143D01*
X0217644Y0050945D02*
X0227301Y0050945D01*
X0227301Y0049746D02*
X0217850Y0049746D01*
X0217850Y0048548D02*
X0227301Y0048548D01*
X0227301Y0047349D02*
X0217850Y0047349D01*
X0217850Y0046151D02*
X0227301Y0046151D01*
X0227301Y0044952D02*
X0217850Y0044952D01*
X0217850Y0043754D02*
X0227301Y0043754D01*
X0227301Y0042555D02*
X0217768Y0042555D01*
X0217099Y0041357D02*
X0227301Y0041357D01*
X0227301Y0040158D02*
X0210815Y0040158D01*
X0209617Y0038960D02*
X0227301Y0038960D01*
X0227301Y0037761D02*
X0208418Y0037761D01*
X0207220Y0036563D02*
X0227301Y0036563D01*
X0227301Y0035364D02*
X0206021Y0035364D01*
X0204823Y0034166D02*
X0227301Y0034166D01*
X0227301Y0032967D02*
X0203624Y0032967D01*
X0202426Y0031769D02*
X0227301Y0031769D01*
X0227301Y0030570D02*
X0201227Y0030570D01*
X0200029Y0029372D02*
X0227301Y0029372D01*
X0227301Y0028173D02*
X0198830Y0028173D01*
X0197632Y0026975D02*
X0227301Y0026975D01*
X0227301Y0025776D02*
X0196433Y0025776D01*
X0195235Y0024578D02*
X0227301Y0024578D01*
X0227301Y0023379D02*
X0194036Y0023379D01*
X0192837Y0022181D02*
X0227301Y0022181D01*
X0227301Y0020982D02*
X0191639Y0020982D01*
X0190440Y0019784D02*
X0227301Y0019784D01*
X0227301Y0018585D02*
X0189242Y0018585D01*
X0188043Y0017387D02*
X0227301Y0017387D01*
X0227301Y0016188D02*
X0186845Y0016188D01*
X0185646Y0014990D02*
X0227301Y0014990D01*
X0227301Y0013791D02*
X0184158Y0013791D01*
X0196094Y0050945D02*
X0197106Y0050945D01*
X0198651Y0052143D02*
X0194549Y0052143D01*
X0198003Y0054540D02*
X0189316Y0054540D01*
X0190515Y0053342D02*
X0199201Y0053342D01*
X0196804Y0055739D02*
X0188118Y0055739D01*
X0186919Y0056937D02*
X0195606Y0056937D01*
X0194407Y0058136D02*
X0185721Y0058136D01*
X0185600Y0059334D02*
X0193209Y0059334D01*
X0192010Y0060533D02*
X0185600Y0060533D01*
X0185600Y0061732D02*
X0190812Y0061732D01*
X0189613Y0062930D02*
X0185600Y0062930D01*
X0185600Y0064129D02*
X0188415Y0064129D01*
X0187798Y0065327D02*
X0185600Y0065327D01*
X0185600Y0066526D02*
X0187600Y0066526D01*
X0187600Y0067724D02*
X0185600Y0067724D01*
X0185600Y0068923D02*
X0187600Y0068923D01*
X0187600Y0070121D02*
X0185600Y0070121D01*
X0185600Y0071320D02*
X0187600Y0071320D01*
X0187600Y0072518D02*
X0185600Y0072518D01*
X0185600Y0073717D02*
X0187600Y0073717D01*
X0187600Y0074915D02*
X0185600Y0074915D01*
X0185600Y0076114D02*
X0187600Y0076114D01*
X0187600Y0077312D02*
X0185600Y0077312D01*
X0185600Y0078511D02*
X0187600Y0078511D01*
X0187600Y0079709D02*
X0185600Y0079709D01*
X0185600Y0080908D02*
X0187600Y0080908D01*
X0187600Y0082106D02*
X0185600Y0082106D01*
X0185600Y0083305D02*
X0187600Y0083305D01*
X0187600Y0084503D02*
X0185600Y0084503D01*
X0185600Y0085702D02*
X0187600Y0085702D01*
X0187600Y0086900D02*
X0185600Y0086900D01*
X0185600Y0088099D02*
X0187600Y0088099D01*
X0187600Y0089297D02*
X0185600Y0089297D01*
X0185600Y0090496D02*
X0187600Y0090496D01*
X0187600Y0091694D02*
X0185600Y0091694D01*
X0185600Y0092893D02*
X0187600Y0092893D01*
X0187600Y0094091D02*
X0185600Y0094091D01*
X0185600Y0095290D02*
X0187600Y0095290D01*
X0187600Y0096488D02*
X0185600Y0096488D01*
X0185600Y0097687D02*
X0187600Y0097687D01*
X0187600Y0098885D02*
X0185600Y0098885D01*
X0185600Y0100084D02*
X0187600Y0100084D01*
X0187600Y0101282D02*
X0185600Y0101282D01*
X0185600Y0102481D02*
X0187600Y0102481D01*
X0187600Y0103679D02*
X0185600Y0103679D01*
X0185600Y0104878D02*
X0187600Y0104878D01*
X0187600Y0106076D02*
X0185600Y0106076D01*
X0185600Y0107275D02*
X0187600Y0107275D01*
X0187600Y0108473D02*
X0185600Y0108473D01*
X0185600Y0109672D02*
X0187600Y0109672D01*
X0187600Y0110870D02*
X0185600Y0110870D01*
X0185600Y0112069D02*
X0187600Y0112069D01*
X0187600Y0113268D02*
X0185600Y0113268D01*
X0185600Y0114466D02*
X0187600Y0114466D01*
X0187600Y0115665D02*
X0185600Y0115665D01*
X0185600Y0116863D02*
X0187600Y0116863D01*
X0187600Y0118062D02*
X0185600Y0118062D01*
X0185600Y0119260D02*
X0187600Y0119260D01*
X0187600Y0120459D02*
X0185600Y0120459D01*
X0185600Y0121657D02*
X0187600Y0121657D01*
X0187600Y0122856D02*
X0185600Y0122856D01*
X0185600Y0124054D02*
X0187600Y0124054D01*
X0187600Y0125253D02*
X0185600Y0125253D01*
X0185600Y0126451D02*
X0187600Y0126451D01*
X0187600Y0127650D02*
X0185600Y0127650D01*
X0185600Y0128848D02*
X0187600Y0128848D01*
X0187600Y0130047D02*
X0185600Y0130047D01*
X0185600Y0131245D02*
X0187600Y0131245D01*
X0187600Y0132444D02*
X0185600Y0132444D01*
X0185600Y0133642D02*
X0187600Y0133642D01*
X0187600Y0134841D02*
X0185600Y0134841D01*
X0185600Y0136039D02*
X0187600Y0136039D01*
X0187600Y0137238D02*
X0185600Y0137238D01*
X0185600Y0138436D02*
X0187600Y0138436D01*
X0187600Y0139635D02*
X0185600Y0139635D01*
X0185600Y0140833D02*
X0187600Y0140833D01*
X0187600Y0142032D02*
X0185600Y0142032D01*
X0185600Y0143230D02*
X0187600Y0143230D01*
X0187600Y0144429D02*
X0185600Y0144429D01*
X0185600Y0145627D02*
X0187600Y0145627D01*
X0187600Y0146826D02*
X0185600Y0146826D01*
X0185600Y0148024D02*
X0187600Y0148024D01*
X0187600Y0149223D02*
X0185600Y0149223D01*
X0185600Y0150421D02*
X0187600Y0150421D01*
X0187600Y0151620D02*
X0185600Y0151620D01*
X0185600Y0152818D02*
X0187600Y0152818D01*
X0187600Y0154017D02*
X0185600Y0154017D01*
X0185600Y0155215D02*
X0187600Y0155215D01*
X0187600Y0156414D02*
X0185600Y0156414D01*
X0185600Y0157612D02*
X0187600Y0157612D01*
X0187600Y0158811D02*
X0185600Y0158811D01*
X0185600Y0160009D02*
X0187600Y0160009D01*
X0187600Y0161208D02*
X0185600Y0161208D01*
X0185600Y0162406D02*
X0187600Y0162406D01*
X0187600Y0163605D02*
X0185600Y0163605D01*
X0185600Y0164803D02*
X0187600Y0164803D01*
X0187600Y0166002D02*
X0185600Y0166002D01*
X0185600Y0167201D02*
X0187600Y0167201D01*
X0187600Y0168399D02*
X0185600Y0168399D01*
X0185600Y0169598D02*
X0187600Y0169598D01*
X0187600Y0170796D02*
X0185600Y0170796D01*
X0185600Y0171995D02*
X0187600Y0171995D01*
X0187600Y0173193D02*
X0185600Y0173193D01*
X0185600Y0174392D02*
X0187600Y0174392D01*
X0187600Y0175590D02*
X0185600Y0175590D01*
X0185600Y0176789D02*
X0187600Y0176789D01*
X0187600Y0177987D02*
X0185355Y0177987D01*
X0184671Y0179186D02*
X0187600Y0179186D01*
X0187600Y0180384D02*
X0183473Y0180384D01*
X0182274Y0181583D02*
X0187600Y0181583D01*
X0187600Y0182781D02*
X0181076Y0182781D01*
X0179877Y0183980D02*
X0187600Y0183980D01*
X0187365Y0185178D02*
X0178679Y0185178D01*
X0177480Y0186377D02*
X0186166Y0186377D01*
X0184968Y0187575D02*
X0176282Y0187575D01*
X0175083Y0188774D02*
X0183769Y0188774D01*
X0182571Y0189972D02*
X0173885Y0189972D01*
X0174336Y0221134D02*
X0202295Y0221134D01*
X0202029Y0222332D02*
X0175534Y0222332D01*
X0176733Y0223531D02*
X0201106Y0223531D01*
X0200610Y0224729D02*
X0177400Y0224729D01*
X0177400Y0225928D02*
X0200350Y0225928D01*
X0200350Y0227126D02*
X0177400Y0227126D01*
X0177400Y0228325D02*
X0200549Y0228325D01*
X0201046Y0229523D02*
X0176879Y0229523D01*
X0175681Y0230722D02*
X0201883Y0230722D01*
X0202441Y0231920D02*
X0174482Y0231920D01*
X0183897Y0284655D02*
X0200641Y0284655D01*
X0200350Y0285853D02*
X0184538Y0285853D01*
X0184600Y0287052D02*
X0200350Y0287052D01*
X0200519Y0288250D02*
X0184600Y0288250D01*
X0184600Y0289449D02*
X0201015Y0289449D01*
X0201808Y0290647D02*
X0184600Y0290647D01*
X0184600Y0291846D02*
X0202782Y0291846D01*
X0201775Y0293044D02*
X0184600Y0293044D01*
X0184600Y0294243D02*
X0201750Y0294243D01*
X0201750Y0295441D02*
X0184600Y0295441D01*
X0184600Y0296640D02*
X0206175Y0296640D01*
X0207025Y0296640D02*
X0216175Y0296640D01*
X0217025Y0296640D02*
X0227301Y0296640D01*
X0227301Y0297838D02*
X0221297Y0297838D01*
X0221331Y0297736D02*
X0221095Y0298462D01*
X0220748Y0299142D01*
X0220299Y0299760D01*
X0219760Y0300299D01*
X0219142Y0300748D01*
X0218462Y0301095D01*
X0217736Y0301331D01*
X0217025Y0301443D01*
X0217025Y0297025D01*
X0221443Y0297025D01*
X0221331Y0297736D01*
X0220802Y0299037D02*
X0227301Y0299037D01*
X0227301Y0300235D02*
X0219824Y0300235D01*
X0217025Y0300235D02*
X0216175Y0300235D01*
X0216175Y0299037D02*
X0217025Y0299037D01*
X0217025Y0297838D02*
X0216175Y0297838D01*
X0216175Y0301434D02*
X0217025Y0301434D01*
X0217084Y0301434D02*
X0227301Y0301434D01*
X0227301Y0302632D02*
X0184600Y0302632D01*
X0184600Y0301434D02*
X0203079Y0301434D01*
X0201797Y0300235D02*
X0184600Y0300235D01*
X0184600Y0299037D02*
X0201750Y0299037D01*
X0201750Y0297838D02*
X0184600Y0297838D01*
X0206175Y0297838D02*
X0207025Y0297838D01*
X0207025Y0297025D02*
X0207025Y0301450D01*
X0210061Y0301450D01*
X0210468Y0301341D01*
X0210832Y0301130D01*
X0211130Y0300832D01*
X0211341Y0300468D01*
X0211450Y0300061D01*
X0211450Y0297025D01*
X0207025Y0297025D01*
X0207025Y0299037D02*
X0206175Y0299037D01*
X0206175Y0300235D02*
X0207025Y0300235D01*
X0207025Y0301434D02*
X0206175Y0301434D01*
X0210121Y0301434D02*
X0216116Y0301434D01*
X0213376Y0300235D02*
X0211403Y0300235D01*
X0211450Y0299037D02*
X0212398Y0299037D01*
X0211903Y0297838D02*
X0211450Y0297838D01*
X0211450Y0295441D02*
X0211877Y0295441D01*
X0211450Y0294243D02*
X0212358Y0294243D01*
X0211424Y0293044D02*
X0213297Y0293044D01*
X0213007Y0291846D02*
X0210418Y0291846D01*
X0211392Y0290647D02*
X0211808Y0290647D01*
X0219903Y0293044D02*
X0227301Y0293044D01*
X0227301Y0291846D02*
X0220193Y0291846D01*
X0221392Y0290647D02*
X0227301Y0290647D01*
X0227301Y0289449D02*
X0222185Y0289449D01*
X0222681Y0288250D02*
X0227301Y0288250D01*
X0227301Y0287052D02*
X0222850Y0287052D01*
X0222850Y0285853D02*
X0227301Y0285853D01*
X0227301Y0284655D02*
X0222559Y0284655D01*
X0222063Y0283456D02*
X0227301Y0283456D01*
X0227301Y0282258D02*
X0221096Y0282258D01*
X0220980Y0281059D02*
X0227301Y0281059D01*
X0227301Y0279861D02*
X0222014Y0279861D01*
X0222511Y0278662D02*
X0227301Y0278662D01*
X0227301Y0277464D02*
X0222850Y0277464D01*
X0222850Y0276265D02*
X0227301Y0276265D01*
X0227301Y0275067D02*
X0222730Y0275067D01*
X0222233Y0273868D02*
X0227301Y0273868D01*
X0227301Y0272670D02*
X0221508Y0272670D01*
X0220568Y0271471D02*
X0227301Y0271471D01*
X0227301Y0270272D02*
X0221766Y0270272D01*
X0222340Y0269074D02*
X0227301Y0269074D01*
X0227301Y0267875D02*
X0222837Y0267875D01*
X0222850Y0266677D02*
X0227301Y0266677D01*
X0227301Y0265478D02*
X0222850Y0265478D01*
X0222404Y0264280D02*
X0227301Y0264280D01*
X0227301Y0263081D02*
X0221907Y0263081D01*
X0220722Y0261883D02*
X0227301Y0261883D01*
X0227301Y0260684D02*
X0221354Y0260684D01*
X0222170Y0259486D02*
X0227301Y0259486D01*
X0227301Y0258287D02*
X0222666Y0258287D01*
X0222850Y0257089D02*
X0227301Y0257089D01*
X0227301Y0255890D02*
X0222850Y0255890D01*
X0222575Y0254692D02*
X0227301Y0254692D01*
X0227301Y0253493D02*
X0222078Y0253493D01*
X0221134Y0252295D02*
X0227301Y0252295D01*
X0227301Y0251096D02*
X0220943Y0251096D01*
X0221999Y0249898D02*
X0227301Y0249898D01*
X0227301Y0248699D02*
X0222495Y0248699D01*
X0222850Y0247501D02*
X0227301Y0247501D01*
X0227301Y0246302D02*
X0222850Y0246302D01*
X0222745Y0245104D02*
X0227301Y0245104D01*
X0227301Y0243905D02*
X0222249Y0243905D01*
X0221546Y0242707D02*
X0227301Y0242707D01*
X0227301Y0241508D02*
X0220531Y0241508D01*
X0221729Y0240310D02*
X0227301Y0240310D01*
X0227301Y0239111D02*
X0222325Y0239111D01*
X0222821Y0237913D02*
X0227301Y0237913D01*
X0227301Y0236714D02*
X0222850Y0236714D01*
X0222850Y0235516D02*
X0227301Y0235516D01*
X0227301Y0234317D02*
X0222419Y0234317D01*
X0221923Y0233119D02*
X0227301Y0233119D01*
X0227301Y0231920D02*
X0220759Y0231920D01*
X0221317Y0230722D02*
X0227301Y0230722D01*
X0227301Y0229523D02*
X0222154Y0229523D01*
X0222651Y0228325D02*
X0227301Y0228325D01*
X0227301Y0227126D02*
X0222850Y0227126D01*
X0222850Y0225928D02*
X0227301Y0225928D01*
X0227301Y0224729D02*
X0222590Y0224729D01*
X0222094Y0223531D02*
X0227301Y0223531D01*
X0227301Y0222332D02*
X0221171Y0222332D01*
X0220905Y0221134D02*
X0227301Y0221134D01*
X0227301Y0219935D02*
X0221984Y0219935D01*
X0222480Y0218737D02*
X0227301Y0218737D01*
X0227301Y0217538D02*
X0222850Y0217538D01*
X0222850Y0216339D02*
X0227301Y0216339D01*
X0227301Y0215141D02*
X0222761Y0215141D01*
X0222264Y0213942D02*
X0227301Y0213942D01*
X0227301Y0212744D02*
X0221583Y0212744D01*
X0220493Y0211545D02*
X0227301Y0211545D01*
X0227301Y0210347D02*
X0221692Y0210347D01*
X0222309Y0209148D02*
X0227301Y0209148D01*
X0227301Y0207950D02*
X0222806Y0207950D01*
X0222850Y0206751D02*
X0227301Y0206751D01*
X0227301Y0205553D02*
X0222850Y0205553D01*
X0222435Y0204354D02*
X0227301Y0204354D01*
X0227301Y0203156D02*
X0221938Y0203156D01*
X0220796Y0201957D02*
X0227301Y0201957D01*
X0227301Y0200759D02*
X0221280Y0200759D01*
X0222139Y0199560D02*
X0227301Y0199560D01*
X0227301Y0198362D02*
X0222635Y0198362D01*
X0222850Y0197163D02*
X0227301Y0197163D01*
X0227301Y0195965D02*
X0222850Y0195965D01*
X0222605Y0194766D02*
X0227301Y0194766D01*
X0227301Y0193568D02*
X0222109Y0193568D01*
X0221208Y0192369D02*
X0227301Y0192369D01*
X0227301Y0191171D02*
X0220868Y0191171D01*
X0221968Y0189972D02*
X0227301Y0189972D01*
X0227301Y0188774D02*
X0222465Y0188774D01*
X0222850Y0187575D02*
X0227301Y0187575D01*
X0227301Y0186377D02*
X0222850Y0186377D01*
X0222776Y0185178D02*
X0227301Y0185178D01*
X0227301Y0183980D02*
X0222280Y0183980D01*
X0221620Y0182781D02*
X0227301Y0182781D01*
X0227301Y0181583D02*
X0220456Y0181583D01*
X0221655Y0180384D02*
X0227301Y0180384D01*
X0227301Y0179186D02*
X0222294Y0179186D01*
X0222790Y0177987D02*
X0227301Y0177987D01*
X0227301Y0176789D02*
X0222850Y0176789D01*
X0222850Y0175590D02*
X0227301Y0175590D01*
X0227301Y0174392D02*
X0222450Y0174392D01*
X0221954Y0173193D02*
X0227301Y0173193D01*
X0227301Y0171995D02*
X0220833Y0171995D01*
X0221243Y0170796D02*
X0227301Y0170796D01*
X0227301Y0169598D02*
X0222123Y0169598D01*
X0222620Y0168399D02*
X0227301Y0168399D01*
X0227301Y0167201D02*
X0222850Y0167201D01*
X0222850Y0166002D02*
X0227301Y0166002D01*
X0227301Y0164803D02*
X0222621Y0164803D01*
X0222124Y0163605D02*
X0227301Y0163605D01*
X0227301Y0162406D02*
X0221245Y0162406D01*
X0220831Y0161208D02*
X0227301Y0161208D01*
X0227301Y0160009D02*
X0221953Y0160009D01*
X0222449Y0158811D02*
X0227301Y0158811D01*
X0227301Y0157612D02*
X0222850Y0157612D01*
X0222850Y0156414D02*
X0227301Y0156414D01*
X0227301Y0155215D02*
X0222791Y0155215D01*
X0222295Y0154017D02*
X0227301Y0154017D01*
X0227301Y0152818D02*
X0221657Y0152818D01*
X0220459Y0151620D02*
X0227301Y0151620D01*
X0227301Y0150421D02*
X0221617Y0150421D01*
X0222279Y0149223D02*
X0227301Y0149223D01*
X0227301Y0148024D02*
X0222775Y0148024D01*
X0222850Y0146826D02*
X0227301Y0146826D01*
X0227301Y0145627D02*
X0222850Y0145627D01*
X0222466Y0144429D02*
X0227301Y0144429D01*
X0227301Y0143230D02*
X0221969Y0143230D01*
X0220871Y0142032D02*
X0227301Y0142032D01*
X0227301Y0140833D02*
X0221206Y0140833D01*
X0222108Y0139635D02*
X0227301Y0139635D01*
X0227301Y0138436D02*
X0222604Y0138436D01*
X0222850Y0137238D02*
X0227301Y0137238D01*
X0227301Y0136039D02*
X0222850Y0136039D01*
X0222636Y0134841D02*
X0227301Y0134841D01*
X0227301Y0133642D02*
X0222140Y0133642D01*
X0221283Y0132444D02*
X0227301Y0132444D01*
X0227301Y0131245D02*
X0220794Y0131245D01*
X0221937Y0130047D02*
X0227301Y0130047D01*
X0227301Y0128848D02*
X0222434Y0128848D01*
X0222850Y0127650D02*
X0227301Y0127650D01*
X0227301Y0126451D02*
X0222850Y0126451D01*
X0222807Y0125253D02*
X0227301Y0125253D01*
X0227301Y0124054D02*
X0222310Y0124054D01*
X0221694Y0122856D02*
X0227301Y0122856D01*
X0227301Y0121657D02*
X0220496Y0121657D01*
X0221580Y0120459D02*
X0227301Y0120459D01*
X0227301Y0119260D02*
X0222263Y0119260D01*
X0222760Y0118062D02*
X0227301Y0118062D01*
X0227301Y0116863D02*
X0222850Y0116863D01*
X0222850Y0115665D02*
X0227301Y0115665D01*
X0227301Y0114466D02*
X0222481Y0114466D01*
X0221985Y0113268D02*
X0227301Y0113268D01*
X0227301Y0112069D02*
X0220908Y0112069D01*
X0221168Y0110870D02*
X0227301Y0110870D01*
X0227301Y0109672D02*
X0222092Y0109672D01*
X0222589Y0108473D02*
X0227301Y0108473D01*
X0227301Y0107275D02*
X0222850Y0107275D01*
X0222850Y0106076D02*
X0227301Y0106076D01*
X0227301Y0104878D02*
X0222652Y0104878D01*
X0222155Y0103679D02*
X0227301Y0103679D01*
X0227301Y0102481D02*
X0221320Y0102481D01*
X0220756Y0101282D02*
X0227301Y0101282D01*
X0227301Y0100084D02*
X0221922Y0100084D01*
X0222418Y0098885D02*
X0227301Y0098885D01*
X0227301Y0097687D02*
X0222850Y0097687D01*
X0222850Y0096488D02*
X0227301Y0096488D01*
X0227301Y0095290D02*
X0222822Y0095290D01*
X0222326Y0094091D02*
X0227301Y0094091D01*
X0227301Y0092893D02*
X0221732Y0092893D01*
X0220533Y0091694D02*
X0227301Y0091694D01*
X0227301Y0090496D02*
X0221543Y0090496D01*
X0222248Y0089297D02*
X0227301Y0089297D01*
X0227301Y0088099D02*
X0222744Y0088099D01*
X0222850Y0086900D02*
X0227301Y0086900D01*
X0227301Y0085702D02*
X0222850Y0085702D01*
X0222496Y0084503D02*
X0227301Y0084503D01*
X0227301Y0083305D02*
X0222000Y0083305D01*
X0220945Y0082106D02*
X0227301Y0082106D01*
X0227301Y0080908D02*
X0221131Y0080908D01*
X0222077Y0079709D02*
X0227301Y0079709D01*
X0227301Y0078511D02*
X0222574Y0078511D01*
X0222850Y0077312D02*
X0227301Y0077312D01*
X0227301Y0076114D02*
X0222850Y0076114D01*
X0222667Y0074915D02*
X0227301Y0074915D01*
X0227301Y0073717D02*
X0222171Y0073717D01*
X0221357Y0072518D02*
X0227301Y0072518D01*
X0227301Y0071320D02*
X0220158Y0071320D01*
X0213042Y0071320D02*
X0210158Y0071320D01*
X0211357Y0072518D02*
X0211843Y0072518D01*
X0197331Y0066526D02*
X0227301Y0066526D01*
X0227301Y0067724D02*
X0196133Y0067724D01*
X0195600Y0068923D02*
X0227301Y0068923D01*
X0227301Y0070121D02*
X0195600Y0070121D01*
X0227301Y0012593D02*
X0035934Y0012593D01*
X0034735Y0011394D02*
X0227301Y0011394D01*
X0227301Y0010196D02*
X0032273Y0010196D01*
X0028171Y0010196D02*
X0004600Y0010196D01*
X0004600Y0011394D02*
X0025709Y0011394D01*
X0024511Y0012593D02*
X0004600Y0012593D01*
X0004600Y0013791D02*
X0023670Y0013791D01*
X0023174Y0014990D02*
X0004600Y0014990D01*
X0004600Y0016188D02*
X0022793Y0016188D01*
X0022793Y0017387D02*
X0004600Y0017387D01*
X0004600Y0018585D02*
X0022793Y0018585D01*
X0023173Y0019784D02*
X0004600Y0019784D01*
X0004600Y0020982D02*
X0023670Y0020982D01*
X0024509Y0022181D02*
X0004600Y0022181D01*
X0004600Y0023379D02*
X0024164Y0023379D01*
X0022965Y0024578D02*
X0004600Y0024578D01*
X0004600Y0025776D02*
X0021767Y0025776D01*
X0020568Y0026975D02*
X0004600Y0026975D01*
X0004600Y0028173D02*
X0019370Y0028173D01*
X0018193Y0029372D02*
X0004600Y0029372D01*
X0004600Y0030570D02*
X0017697Y0030570D01*
X0017600Y0031769D02*
X0004600Y0031769D01*
X0004600Y0032967D02*
X0017600Y0032967D01*
X0017600Y0034166D02*
X0004600Y0034166D01*
X0004600Y0035364D02*
X0017600Y0035364D01*
X0017600Y0036563D02*
X0004600Y0036563D01*
X0004600Y0037761D02*
X0017600Y0037761D01*
X0017600Y0038960D02*
X0004600Y0038960D01*
X0004600Y0040158D02*
X0017600Y0040158D01*
X0017600Y0041357D02*
X0004600Y0041357D01*
X0004600Y0042555D02*
X0017600Y0042555D01*
X0017600Y0043754D02*
X0004600Y0043754D01*
X0004600Y0044952D02*
X0017600Y0044952D01*
X0017600Y0046151D02*
X0004600Y0046151D01*
X0004600Y0047349D02*
X0017600Y0047349D01*
X0017600Y0048548D02*
X0004600Y0048548D01*
X0004600Y0049746D02*
X0017600Y0049746D01*
X0017600Y0050945D02*
X0004600Y0050945D01*
X0004600Y0052143D02*
X0017600Y0052143D01*
X0017992Y0053342D02*
X0004600Y0053342D01*
X0004600Y0054540D02*
X0018884Y0054540D01*
X0020082Y0055739D02*
X0004600Y0055739D01*
X0004600Y0056937D02*
X0021281Y0056937D01*
X0022479Y0058136D02*
X0004600Y0058136D01*
X0004600Y0059334D02*
X0022793Y0059334D01*
X0022793Y0060533D02*
X0004600Y0060533D01*
X0004600Y0061732D02*
X0022793Y0061732D01*
X0023294Y0062930D02*
X0004600Y0062930D01*
X0004600Y0064129D02*
X0025056Y0064129D01*
X0023042Y0071320D02*
X0020158Y0071320D01*
X0021357Y0072518D02*
X0021843Y0072518D01*
X0004600Y0008997D02*
X0227301Y0008997D01*
X0227301Y0007799D02*
X0004600Y0007799D01*
X0004600Y0006600D02*
X0227301Y0006600D01*
X0227301Y0005401D02*
X0004600Y0005401D01*
X0220842Y0294243D02*
X0227301Y0294243D01*
X0227301Y0295441D02*
X0221323Y0295441D01*
M02*
