G75*
%MOIN*%
%OFA0B0*%
%FSLAX25Y25*%
%IPPOS*%
%LPD*%
%AMOC8*
5,1,8,0,0,1.08239X$1,22.5*
%
%ADD10C,0.00000*%
%ADD11R,0.06500X0.06500*%
%ADD12C,0.06500*%
%ADD13C,0.07382*%
%ADD14R,0.05550X0.05550*%
%ADD15C,0.05550*%
%ADD16OC8,0.05600*%
D10*
X0001000Y0001000D02*
X0001000Y0305961D01*
X0229701Y0305961D01*
X0229701Y0001000D01*
X0001000Y0001000D01*
D11*
X0016000Y0296000D03*
X0206000Y0296000D03*
D12*
X0206000Y0286000D03*
X0206000Y0276000D03*
X0206000Y0266000D03*
X0206000Y0256000D03*
X0206000Y0246000D03*
X0206000Y0236000D03*
X0206000Y0226000D03*
X0206000Y0216000D03*
X0206000Y0206000D03*
X0206000Y0196000D03*
X0206000Y0186000D03*
X0206000Y0176000D03*
X0206000Y0166000D03*
X0206000Y0156000D03*
X0206000Y0146000D03*
X0206000Y0136000D03*
X0206000Y0126000D03*
X0206000Y0116000D03*
X0206000Y0106000D03*
X0206000Y0096000D03*
X0206000Y0086000D03*
X0206000Y0076000D03*
X0216000Y0076000D03*
X0216000Y0086000D03*
X0216000Y0096000D03*
X0216000Y0106000D03*
X0216000Y0116000D03*
X0216000Y0126000D03*
X0216000Y0136000D03*
X0216000Y0146000D03*
X0216000Y0156000D03*
X0216000Y0166000D03*
X0216000Y0176000D03*
X0216000Y0186000D03*
X0216000Y0196000D03*
X0216000Y0206000D03*
X0216000Y0216000D03*
X0216000Y0226000D03*
X0216000Y0236000D03*
X0216000Y0246000D03*
X0216000Y0256000D03*
X0216000Y0266000D03*
X0216000Y0276000D03*
X0216000Y0286000D03*
X0216000Y0296000D03*
X0026000Y0296000D03*
X0026000Y0286000D03*
X0026000Y0276000D03*
X0026000Y0266000D03*
X0026000Y0256000D03*
X0026000Y0246000D03*
X0026000Y0236000D03*
X0026000Y0226000D03*
X0026000Y0216000D03*
X0026000Y0206000D03*
X0026000Y0196000D03*
X0026000Y0186000D03*
X0026000Y0176000D03*
X0026000Y0166000D03*
X0026000Y0156000D03*
X0026000Y0146000D03*
X0026000Y0136000D03*
X0026000Y0126000D03*
X0026000Y0116000D03*
X0026000Y0106000D03*
X0026000Y0096000D03*
X0026000Y0086000D03*
X0026000Y0076000D03*
X0016000Y0076000D03*
X0016000Y0086000D03*
X0016000Y0096000D03*
X0016000Y0106000D03*
X0016000Y0116000D03*
X0016000Y0126000D03*
X0016000Y0136000D03*
X0016000Y0146000D03*
X0016000Y0156000D03*
X0016000Y0166000D03*
X0016000Y0176000D03*
X0016000Y0186000D03*
X0016000Y0196000D03*
X0016000Y0206000D03*
X0016000Y0216000D03*
X0016000Y0226000D03*
X0016000Y0236000D03*
X0016000Y0246000D03*
X0016000Y0256000D03*
X0016000Y0266000D03*
X0016000Y0276000D03*
X0016000Y0286000D03*
D13*
X0029622Y0056157D03*
X0029622Y0036472D03*
X0029622Y0016787D03*
D14*
X0121000Y0201000D03*
X0121000Y0226000D03*
X0211000Y0046000D03*
D15*
X0201000Y0046000D03*
X0191000Y0046000D03*
X0181000Y0046000D03*
X0171000Y0046000D03*
X0161000Y0046000D03*
X0151000Y0046000D03*
X0141000Y0046000D03*
X0131000Y0046000D03*
X0131000Y0201000D03*
X0141000Y0201000D03*
X0141000Y0226000D03*
X0131000Y0226000D03*
D16*
X0171000Y0226000D03*
X0171000Y0166000D03*
M02*
