G75*
%MOIN*%
%OFA0B0*%
%FSLAX25Y25*%
%IPPOS*%
%LPD*%
%AMOC8*
5,1,8,0,0,1.08239X$1,22.5*
%
%ADD10R,0.06500X0.06500*%
%ADD11C,0.06500*%
%ADD12C,0.03200*%
%ADD13OC8,0.05600*%
%ADD14R,0.08858X0.08858*%
%ADD15C,0.08858*%
%ADD16C,0.01200*%
%ADD17C,0.01600*%
D10*
X0121600Y0201600D03*
X0121600Y0226600D03*
X0206600Y0296600D03*
X0016600Y0296600D03*
X0211600Y0046600D03*
D11*
X0201600Y0046600D03*
X0191600Y0046600D03*
X0181600Y0046600D03*
X0171600Y0046600D03*
X0161600Y0046600D03*
X0151600Y0046600D03*
X0141600Y0046600D03*
X0131600Y0046600D03*
X0206600Y0076600D03*
X0206600Y0086600D03*
X0206600Y0096600D03*
X0206600Y0106600D03*
X0206600Y0116600D03*
X0206600Y0126600D03*
X0206600Y0136600D03*
X0206600Y0146600D03*
X0206600Y0156600D03*
X0206600Y0166600D03*
X0206600Y0176600D03*
X0206600Y0186600D03*
X0206600Y0196600D03*
X0206600Y0206600D03*
X0206600Y0216600D03*
X0206600Y0226600D03*
X0206600Y0236600D03*
X0206600Y0246600D03*
X0206600Y0256600D03*
X0206600Y0266600D03*
X0206600Y0276600D03*
X0206600Y0286600D03*
X0216600Y0286600D03*
X0216600Y0276600D03*
X0216600Y0266600D03*
X0216600Y0256600D03*
X0216600Y0246600D03*
X0216600Y0236600D03*
X0216600Y0226600D03*
X0216600Y0216600D03*
X0216600Y0206600D03*
X0216600Y0196600D03*
X0216600Y0186600D03*
X0216600Y0176600D03*
X0216600Y0166600D03*
X0216600Y0156600D03*
X0216600Y0146600D03*
X0216600Y0136600D03*
X0216600Y0126600D03*
X0216600Y0116600D03*
X0216600Y0106600D03*
X0216600Y0096600D03*
X0216600Y0086600D03*
X0216600Y0076600D03*
X0141600Y0201600D03*
X0131600Y0201600D03*
X0131600Y0226600D03*
X0141600Y0226600D03*
X0216600Y0296600D03*
X0026600Y0296600D03*
X0026600Y0286600D03*
X0026600Y0276600D03*
X0026600Y0266600D03*
X0026600Y0256600D03*
X0026600Y0246600D03*
X0026600Y0236600D03*
X0026600Y0226600D03*
X0026600Y0216600D03*
X0026600Y0206600D03*
X0026600Y0196600D03*
X0026600Y0186600D03*
X0026600Y0176600D03*
X0026600Y0166600D03*
X0026600Y0156600D03*
X0026600Y0146600D03*
X0026600Y0136600D03*
X0026600Y0126600D03*
X0026600Y0116600D03*
X0026600Y0106600D03*
X0026600Y0096600D03*
X0026600Y0086600D03*
X0026600Y0076600D03*
X0016600Y0076600D03*
X0016600Y0086600D03*
X0016600Y0096600D03*
X0016600Y0106600D03*
X0016600Y0116600D03*
X0016600Y0126600D03*
X0016600Y0136600D03*
X0016600Y0146600D03*
X0016600Y0156600D03*
X0016600Y0166600D03*
X0016600Y0176600D03*
X0016600Y0186600D03*
X0016600Y0196600D03*
X0016600Y0206600D03*
X0016600Y0216600D03*
X0016600Y0226600D03*
X0016600Y0236600D03*
X0016600Y0246600D03*
X0016600Y0256600D03*
X0016600Y0266600D03*
X0016600Y0276600D03*
X0016600Y0286600D03*
D12*
X0051600Y0197709D02*
X0051600Y0194309D01*
X0056600Y0194309D02*
X0056600Y0197709D01*
X0061600Y0197709D02*
X0061600Y0194309D01*
X0066600Y0194309D02*
X0066600Y0197709D01*
X0066600Y0173300D02*
X0066600Y0169900D01*
X0061600Y0169900D02*
X0061600Y0173300D01*
X0056600Y0173300D02*
X0056600Y0169900D01*
X0051600Y0169900D02*
X0051600Y0173300D01*
D13*
X0171600Y0166600D03*
X0171600Y0226600D03*
D14*
X0030222Y0056757D03*
D15*
X0030222Y0037072D03*
X0030222Y0017387D03*
D16*
X0003400Y0003400D02*
X0003400Y0304800D01*
X0049800Y0304800D01*
X0049800Y0285854D01*
X0050854Y0284800D01*
X0182346Y0284800D01*
X0183400Y0285854D01*
X0183400Y0304800D01*
X0228501Y0304800D01*
X0228501Y0003400D01*
X0003400Y0003400D01*
X0003400Y0004203D02*
X0228501Y0004203D01*
X0228501Y0005401D02*
X0003400Y0005401D01*
X0003400Y0006600D02*
X0228501Y0006600D01*
X0228501Y0007799D02*
X0003400Y0007799D01*
X0003400Y0008997D02*
X0228501Y0008997D01*
X0228501Y0010196D02*
X0003400Y0010196D01*
X0003400Y0011394D02*
X0028414Y0011394D01*
X0028983Y0011158D02*
X0031461Y0011158D01*
X0033751Y0012107D01*
X0035503Y0013859D01*
X0035887Y0014787D01*
X0182905Y0014787D01*
X0183860Y0015183D01*
X0210227Y0041550D01*
X0215596Y0041550D01*
X0216650Y0042604D01*
X0216650Y0050596D01*
X0215596Y0051650D01*
X0210227Y0051650D01*
X0199200Y0062677D01*
X0199200Y0182117D01*
X0198804Y0183073D01*
X0168804Y0213073D01*
X0168073Y0213804D01*
X0167117Y0214200D01*
X0141083Y0214200D01*
X0140127Y0213804D01*
X0132865Y0206542D01*
X0132605Y0206650D01*
X0130595Y0206650D01*
X0128739Y0205881D01*
X0127319Y0204461D01*
X0126650Y0202846D01*
X0126650Y0205596D01*
X0125596Y0206650D01*
X0117604Y0206650D01*
X0116550Y0205596D01*
X0116550Y0197604D01*
X0117604Y0196550D01*
X0125596Y0196550D01*
X0126650Y0197604D01*
X0126650Y0200354D01*
X0127319Y0198739D01*
X0128739Y0197319D01*
X0130595Y0196550D01*
X0132605Y0196550D01*
X0134461Y0197319D01*
X0135881Y0198739D01*
X0136650Y0200595D01*
X0136650Y0202605D01*
X0136542Y0202865D01*
X0137089Y0203412D01*
X0136869Y0202736D01*
X0136757Y0202025D01*
X0141175Y0202025D01*
X0141175Y0206443D01*
X0140464Y0206331D01*
X0139788Y0206111D01*
X0142677Y0209000D01*
X0165523Y0209000D01*
X0194000Y0180523D01*
X0194000Y0061083D01*
X0194396Y0060127D01*
X0195127Y0059396D01*
X0203063Y0051460D01*
X0202605Y0051650D01*
X0200595Y0051650D01*
X0198739Y0050881D01*
X0197319Y0049461D01*
X0196600Y0047725D01*
X0195881Y0049461D01*
X0194461Y0050881D01*
X0194000Y0051072D01*
X0194000Y0167077D01*
X0193635Y0167959D01*
X0192959Y0168635D01*
X0172959Y0188635D01*
X0172077Y0189000D01*
X0097394Y0189000D01*
X0103635Y0195241D01*
X0104000Y0196123D01*
X0104000Y0205606D01*
X0107594Y0209200D01*
X0117077Y0209200D01*
X0117959Y0209565D01*
X0118635Y0210241D01*
X0130135Y0221741D01*
X0130595Y0221550D01*
X0132605Y0221550D01*
X0134461Y0222319D01*
X0135881Y0223739D01*
X0136600Y0225475D01*
X0137319Y0223739D01*
X0138739Y0222319D01*
X0140595Y0221550D01*
X0142605Y0221550D01*
X0144461Y0222319D01*
X0145881Y0223739D01*
X0146072Y0224200D01*
X0167495Y0224200D01*
X0169695Y0222000D01*
X0173505Y0222000D01*
X0176200Y0224695D01*
X0176200Y0228505D01*
X0173505Y0231200D01*
X0169695Y0231200D01*
X0167495Y0229000D01*
X0146072Y0229000D01*
X0145881Y0229461D01*
X0144461Y0230881D01*
X0142605Y0231650D01*
X0140595Y0231650D01*
X0138739Y0230881D01*
X0137319Y0229461D01*
X0136600Y0227725D01*
X0135881Y0229461D01*
X0134461Y0230881D01*
X0132605Y0231650D01*
X0130595Y0231650D01*
X0128739Y0230881D01*
X0127319Y0229461D01*
X0126650Y0227846D01*
X0126650Y0230596D01*
X0125596Y0231650D01*
X0117604Y0231650D01*
X0116550Y0230596D01*
X0116550Y0222604D01*
X0117604Y0221550D01*
X0123156Y0221550D01*
X0115606Y0214000D01*
X0106123Y0214000D01*
X0105241Y0213635D01*
X0100241Y0208635D01*
X0099565Y0207959D01*
X0099200Y0207077D01*
X0099200Y0197594D01*
X0090606Y0189000D01*
X0067594Y0189000D01*
X0065516Y0191078D01*
X0065924Y0190909D01*
X0067276Y0190909D01*
X0068526Y0191427D01*
X0069482Y0192384D01*
X0070000Y0193633D01*
X0070000Y0198386D01*
X0069482Y0199635D01*
X0069000Y0200118D01*
X0069000Y0220606D01*
X0082594Y0234200D01*
X0202128Y0234200D01*
X0202319Y0233739D01*
X0203739Y0232319D01*
X0205475Y0231600D01*
X0203739Y0230881D01*
X0202319Y0229461D01*
X0201550Y0227605D01*
X0201550Y0225595D01*
X0202319Y0223739D01*
X0203739Y0222319D01*
X0205475Y0221600D01*
X0203739Y0220881D01*
X0202319Y0219461D01*
X0201550Y0217605D01*
X0201550Y0215595D01*
X0202319Y0213739D01*
X0203739Y0212319D01*
X0205475Y0211600D01*
X0203739Y0210881D01*
X0202319Y0209461D01*
X0201550Y0207605D01*
X0201550Y0205595D01*
X0202319Y0203739D01*
X0203739Y0202319D01*
X0205475Y0201600D01*
X0203739Y0200881D01*
X0202319Y0199461D01*
X0201550Y0197605D01*
X0201550Y0195595D01*
X0202319Y0193739D01*
X0203739Y0192319D01*
X0205475Y0191600D01*
X0203739Y0190881D01*
X0202319Y0189461D01*
X0201550Y0187605D01*
X0201550Y0185595D01*
X0202319Y0183739D01*
X0203739Y0182319D01*
X0205475Y0181600D01*
X0203739Y0180881D01*
X0202319Y0179461D01*
X0201550Y0177605D01*
X0201550Y0175595D01*
X0202319Y0173739D01*
X0203739Y0172319D01*
X0205475Y0171600D01*
X0203739Y0170881D01*
X0202319Y0169461D01*
X0201550Y0167605D01*
X0201550Y0165595D01*
X0202319Y0163739D01*
X0203739Y0162319D01*
X0205475Y0161600D01*
X0203739Y0160881D01*
X0202319Y0159461D01*
X0201550Y0157605D01*
X0201550Y0155595D01*
X0202319Y0153739D01*
X0203739Y0152319D01*
X0205475Y0151600D01*
X0203739Y0150881D01*
X0202319Y0149461D01*
X0201550Y0147605D01*
X0201550Y0145595D01*
X0202319Y0143739D01*
X0203739Y0142319D01*
X0205475Y0141600D01*
X0203739Y0140881D01*
X0202319Y0139461D01*
X0201550Y0137605D01*
X0201550Y0135595D01*
X0202319Y0133739D01*
X0203739Y0132319D01*
X0205475Y0131600D01*
X0203739Y0130881D01*
X0202319Y0129461D01*
X0201550Y0127605D01*
X0201550Y0125595D01*
X0202319Y0123739D01*
X0203739Y0122319D01*
X0205475Y0121600D01*
X0203739Y0120881D01*
X0202319Y0119461D01*
X0201550Y0117605D01*
X0201550Y0115595D01*
X0202319Y0113739D01*
X0203739Y0112319D01*
X0205475Y0111600D01*
X0203739Y0110881D01*
X0202319Y0109461D01*
X0201550Y0107605D01*
X0201550Y0105595D01*
X0202319Y0103739D01*
X0203739Y0102319D01*
X0205475Y0101600D01*
X0203739Y0100881D01*
X0202319Y0099461D01*
X0201550Y0097605D01*
X0201550Y0095595D01*
X0202319Y0093739D01*
X0203739Y0092319D01*
X0205475Y0091600D01*
X0203739Y0090881D01*
X0202319Y0089461D01*
X0201550Y0087605D01*
X0201550Y0085595D01*
X0202319Y0083739D01*
X0203739Y0082319D01*
X0205475Y0081600D01*
X0203739Y0080881D01*
X0202319Y0079461D01*
X0201550Y0077605D01*
X0201550Y0075595D01*
X0202319Y0073739D01*
X0203739Y0072319D01*
X0205595Y0071550D01*
X0207605Y0071550D01*
X0209461Y0072319D01*
X0210881Y0073739D01*
X0211600Y0075475D01*
X0212319Y0073739D01*
X0213739Y0072319D01*
X0215595Y0071550D01*
X0217605Y0071550D01*
X0219461Y0072319D01*
X0220881Y0073739D01*
X0221650Y0075595D01*
X0221650Y0077605D01*
X0220881Y0079461D01*
X0219461Y0080881D01*
X0217725Y0081600D01*
X0219461Y0082319D01*
X0220881Y0083739D01*
X0221650Y0085595D01*
X0221650Y0087605D01*
X0220881Y0089461D01*
X0219461Y0090881D01*
X0217725Y0091600D01*
X0219461Y0092319D01*
X0220881Y0093739D01*
X0221650Y0095595D01*
X0221650Y0097605D01*
X0220881Y0099461D01*
X0219461Y0100881D01*
X0217725Y0101600D01*
X0219461Y0102319D01*
X0220881Y0103739D01*
X0221650Y0105595D01*
X0221650Y0107605D01*
X0220881Y0109461D01*
X0219461Y0110881D01*
X0217725Y0111600D01*
X0219461Y0112319D01*
X0220881Y0113739D01*
X0221650Y0115595D01*
X0221650Y0117605D01*
X0220881Y0119461D01*
X0219461Y0120881D01*
X0217725Y0121600D01*
X0219461Y0122319D01*
X0220881Y0123739D01*
X0221650Y0125595D01*
X0221650Y0127605D01*
X0220881Y0129461D01*
X0219461Y0130881D01*
X0217725Y0131600D01*
X0219461Y0132319D01*
X0220881Y0133739D01*
X0221650Y0135595D01*
X0221650Y0137605D01*
X0220881Y0139461D01*
X0219461Y0140881D01*
X0217725Y0141600D01*
X0219461Y0142319D01*
X0220881Y0143739D01*
X0221650Y0145595D01*
X0221650Y0147605D01*
X0220881Y0149461D01*
X0219461Y0150881D01*
X0217725Y0151600D01*
X0219461Y0152319D01*
X0220881Y0153739D01*
X0221650Y0155595D01*
X0221650Y0157605D01*
X0220881Y0159461D01*
X0219461Y0160881D01*
X0217725Y0161600D01*
X0219461Y0162319D01*
X0220881Y0163739D01*
X0221650Y0165595D01*
X0221650Y0167605D01*
X0220881Y0169461D01*
X0219461Y0170881D01*
X0217725Y0171600D01*
X0219461Y0172319D01*
X0220881Y0173739D01*
X0221650Y0175595D01*
X0221650Y0177605D01*
X0220881Y0179461D01*
X0219461Y0180881D01*
X0217725Y0181600D01*
X0219461Y0182319D01*
X0220881Y0183739D01*
X0221650Y0185595D01*
X0221650Y0187605D01*
X0220881Y0189461D01*
X0219461Y0190881D01*
X0217725Y0191600D01*
X0219461Y0192319D01*
X0220881Y0193739D01*
X0221650Y0195595D01*
X0221650Y0197605D01*
X0220881Y0199461D01*
X0219461Y0200881D01*
X0217725Y0201600D01*
X0219461Y0202319D01*
X0220881Y0203739D01*
X0221650Y0205595D01*
X0221650Y0207605D01*
X0220881Y0209461D01*
X0219461Y0210881D01*
X0217725Y0211600D01*
X0219461Y0212319D01*
X0220881Y0213739D01*
X0221650Y0215595D01*
X0221650Y0217605D01*
X0220881Y0219461D01*
X0219461Y0220881D01*
X0217725Y0221600D01*
X0219461Y0222319D01*
X0220881Y0223739D01*
X0221650Y0225595D01*
X0221650Y0227605D01*
X0220881Y0229461D01*
X0219461Y0230881D01*
X0217725Y0231600D01*
X0219461Y0232319D01*
X0220881Y0233739D01*
X0221650Y0235595D01*
X0221650Y0237605D01*
X0220881Y0239461D01*
X0219461Y0240881D01*
X0217725Y0241600D01*
X0219461Y0242319D01*
X0220881Y0243739D01*
X0221650Y0245595D01*
X0221650Y0247605D01*
X0220881Y0249461D01*
X0219461Y0250881D01*
X0217725Y0251600D01*
X0219461Y0252319D01*
X0220881Y0253739D01*
X0221650Y0255595D01*
X0221650Y0257605D01*
X0220881Y0259461D01*
X0219461Y0260881D01*
X0217725Y0261600D01*
X0219461Y0262319D01*
X0220881Y0263739D01*
X0221650Y0265595D01*
X0221650Y0267605D01*
X0220881Y0269461D01*
X0219461Y0270881D01*
X0217725Y0271600D01*
X0219461Y0272319D01*
X0220881Y0273739D01*
X0221650Y0275595D01*
X0221650Y0277605D01*
X0220881Y0279461D01*
X0219461Y0280881D01*
X0217725Y0281600D01*
X0219461Y0282319D01*
X0220881Y0283739D01*
X0221650Y0285595D01*
X0221650Y0287605D01*
X0220881Y0289461D01*
X0219461Y0290881D01*
X0217605Y0291650D01*
X0215595Y0291650D01*
X0213739Y0290881D01*
X0212319Y0289461D01*
X0211600Y0287725D01*
X0210881Y0289461D01*
X0209461Y0290881D01*
X0207605Y0291650D01*
X0205595Y0291650D01*
X0203739Y0290881D01*
X0202319Y0289461D01*
X0201550Y0287605D01*
X0201550Y0285595D01*
X0202319Y0283739D01*
X0203739Y0282319D01*
X0205475Y0281600D01*
X0203739Y0280881D01*
X0202319Y0279461D01*
X0201550Y0277605D01*
X0201550Y0275595D01*
X0202319Y0273739D01*
X0203739Y0272319D01*
X0205475Y0271600D01*
X0203739Y0270881D01*
X0202319Y0269461D01*
X0201550Y0267605D01*
X0201550Y0265595D01*
X0202319Y0263739D01*
X0203739Y0262319D01*
X0205475Y0261600D01*
X0203739Y0260881D01*
X0202319Y0259461D01*
X0201550Y0257605D01*
X0201550Y0255595D01*
X0202319Y0253739D01*
X0203739Y0252319D01*
X0205475Y0251600D01*
X0203739Y0250881D01*
X0202319Y0249461D01*
X0201550Y0247605D01*
X0201550Y0245595D01*
X0202319Y0243739D01*
X0203739Y0242319D01*
X0205475Y0241600D01*
X0203739Y0240881D01*
X0202319Y0239461D01*
X0202128Y0239000D01*
X0081123Y0239000D01*
X0080241Y0238635D01*
X0079565Y0237959D01*
X0064565Y0222959D01*
X0064200Y0222077D01*
X0064200Y0200118D01*
X0064100Y0200018D01*
X0063526Y0200592D01*
X0062276Y0201109D01*
X0060924Y0201109D01*
X0059674Y0200592D01*
X0059100Y0200018D01*
X0058526Y0200592D01*
X0057276Y0201109D01*
X0055924Y0201109D01*
X0054674Y0200592D01*
X0054100Y0200018D01*
X0054000Y0200118D01*
X0054000Y0262077D01*
X0053635Y0262959D01*
X0031459Y0285135D01*
X0031650Y0285595D01*
X0031650Y0287605D01*
X0030881Y0289461D01*
X0029461Y0290881D01*
X0027605Y0291650D01*
X0025595Y0291650D01*
X0023739Y0290881D01*
X0022319Y0289461D01*
X0021600Y0287725D01*
X0020881Y0289461D01*
X0019461Y0290881D01*
X0017605Y0291650D01*
X0015595Y0291650D01*
X0013739Y0290881D01*
X0012319Y0289461D01*
X0011550Y0287605D01*
X0011550Y0285595D01*
X0012319Y0283739D01*
X0013739Y0282319D01*
X0015475Y0281600D01*
X0013739Y0280881D01*
X0012319Y0279461D01*
X0011550Y0277605D01*
X0011550Y0275595D01*
X0012319Y0273739D01*
X0013739Y0272319D01*
X0015475Y0271600D01*
X0013739Y0270881D01*
X0012319Y0269461D01*
X0011550Y0267605D01*
X0011550Y0265595D01*
X0012319Y0263739D01*
X0013739Y0262319D01*
X0015475Y0261600D01*
X0013739Y0260881D01*
X0012319Y0259461D01*
X0011550Y0257605D01*
X0011550Y0255595D01*
X0012319Y0253739D01*
X0013739Y0252319D01*
X0015475Y0251600D01*
X0013739Y0250881D01*
X0012319Y0249461D01*
X0011550Y0247605D01*
X0011550Y0245595D01*
X0012319Y0243739D01*
X0013739Y0242319D01*
X0015475Y0241600D01*
X0013739Y0240881D01*
X0012319Y0239461D01*
X0011550Y0237605D01*
X0011550Y0235595D01*
X0012319Y0233739D01*
X0013739Y0232319D01*
X0015475Y0231600D01*
X0013739Y0230881D01*
X0012319Y0229461D01*
X0011550Y0227605D01*
X0011550Y0225595D01*
X0012319Y0223739D01*
X0013739Y0222319D01*
X0015475Y0221600D01*
X0013739Y0220881D01*
X0012319Y0219461D01*
X0011550Y0217605D01*
X0011550Y0215595D01*
X0012319Y0213739D01*
X0013739Y0212319D01*
X0015475Y0211600D01*
X0013739Y0210881D01*
X0012319Y0209461D01*
X0011550Y0207605D01*
X0011550Y0205595D01*
X0012319Y0203739D01*
X0013739Y0202319D01*
X0015475Y0201600D01*
X0013739Y0200881D01*
X0012319Y0199461D01*
X0011550Y0197605D01*
X0011550Y0195595D01*
X0012319Y0193739D01*
X0013739Y0192319D01*
X0015475Y0191600D01*
X0013739Y0190881D01*
X0012319Y0189461D01*
X0011550Y0187605D01*
X0011550Y0185595D01*
X0012319Y0183739D01*
X0013739Y0182319D01*
X0015475Y0181600D01*
X0013739Y0180881D01*
X0012319Y0179461D01*
X0011550Y0177605D01*
X0011550Y0175595D01*
X0012319Y0173739D01*
X0013739Y0172319D01*
X0015475Y0171600D01*
X0013739Y0170881D01*
X0012319Y0169461D01*
X0011550Y0167605D01*
X0011550Y0165595D01*
X0012319Y0163739D01*
X0013739Y0162319D01*
X0015475Y0161600D01*
X0013739Y0160881D01*
X0012319Y0159461D01*
X0011550Y0157605D01*
X0011550Y0155595D01*
X0012319Y0153739D01*
X0013739Y0152319D01*
X0015475Y0151600D01*
X0013739Y0150881D01*
X0012319Y0149461D01*
X0011550Y0147605D01*
X0011550Y0145595D01*
X0012319Y0143739D01*
X0013739Y0142319D01*
X0015475Y0141600D01*
X0013739Y0140881D01*
X0012319Y0139461D01*
X0011550Y0137605D01*
X0011550Y0135595D01*
X0012319Y0133739D01*
X0013739Y0132319D01*
X0015475Y0131600D01*
X0013739Y0130881D01*
X0012319Y0129461D01*
X0011550Y0127605D01*
X0011550Y0125595D01*
X0012319Y0123739D01*
X0013739Y0122319D01*
X0015475Y0121600D01*
X0013739Y0120881D01*
X0012319Y0119461D01*
X0011550Y0117605D01*
X0011550Y0115595D01*
X0012319Y0113739D01*
X0013739Y0112319D01*
X0015475Y0111600D01*
X0013739Y0110881D01*
X0012319Y0109461D01*
X0011550Y0107605D01*
X0011550Y0105595D01*
X0012319Y0103739D01*
X0013739Y0102319D01*
X0015475Y0101600D01*
X0013739Y0100881D01*
X0012319Y0099461D01*
X0011550Y0097605D01*
X0011550Y0095595D01*
X0012319Y0093739D01*
X0013739Y0092319D01*
X0015475Y0091600D01*
X0013739Y0090881D01*
X0012319Y0089461D01*
X0011550Y0087605D01*
X0011550Y0085595D01*
X0012319Y0083739D01*
X0013739Y0082319D01*
X0015475Y0081600D01*
X0013739Y0080881D01*
X0012319Y0079461D01*
X0011550Y0077605D01*
X0011550Y0075595D01*
X0012319Y0073739D01*
X0013739Y0072319D01*
X0015595Y0071550D01*
X0017605Y0071550D01*
X0019461Y0072319D01*
X0020881Y0073739D01*
X0021600Y0075475D01*
X0022319Y0073739D01*
X0023739Y0072319D01*
X0025595Y0071550D01*
X0027605Y0071550D01*
X0029461Y0072319D01*
X0030881Y0073739D01*
X0031650Y0075595D01*
X0031650Y0077605D01*
X0030881Y0079461D01*
X0029461Y0080881D01*
X0027725Y0081600D01*
X0029461Y0082319D01*
X0030881Y0083739D01*
X0031650Y0085595D01*
X0031650Y0087605D01*
X0030881Y0089461D01*
X0029461Y0090881D01*
X0027725Y0091600D01*
X0029461Y0092319D01*
X0030881Y0093739D01*
X0031650Y0095595D01*
X0031650Y0097605D01*
X0030881Y0099461D01*
X0029461Y0100881D01*
X0027725Y0101600D01*
X0029461Y0102319D01*
X0030881Y0103739D01*
X0031650Y0105595D01*
X0031650Y0107605D01*
X0030881Y0109461D01*
X0029461Y0110881D01*
X0027725Y0111600D01*
X0029461Y0112319D01*
X0030881Y0113739D01*
X0031650Y0115595D01*
X0031650Y0117605D01*
X0030881Y0119461D01*
X0029461Y0120881D01*
X0027725Y0121600D01*
X0029461Y0122319D01*
X0030881Y0123739D01*
X0031650Y0125595D01*
X0031650Y0127605D01*
X0030881Y0129461D01*
X0029461Y0130881D01*
X0027725Y0131600D01*
X0029461Y0132319D01*
X0030881Y0133739D01*
X0031650Y0135595D01*
X0031650Y0137605D01*
X0030881Y0139461D01*
X0029461Y0140881D01*
X0027725Y0141600D01*
X0029461Y0142319D01*
X0030881Y0143739D01*
X0031650Y0145595D01*
X0031650Y0147605D01*
X0030881Y0149461D01*
X0029461Y0150881D01*
X0027725Y0151600D01*
X0029461Y0152319D01*
X0030881Y0153739D01*
X0031650Y0155595D01*
X0031650Y0157605D01*
X0030881Y0159461D01*
X0029461Y0160881D01*
X0027725Y0161600D01*
X0029461Y0162319D01*
X0030881Y0163739D01*
X0031650Y0165595D01*
X0031650Y0167605D01*
X0031260Y0168546D01*
X0040241Y0159565D01*
X0041123Y0159200D01*
X0062077Y0159200D01*
X0062959Y0159565D01*
X0063635Y0160241D01*
X0068635Y0165241D01*
X0069000Y0166123D01*
X0069000Y0167492D01*
X0069482Y0167974D01*
X0070000Y0169224D01*
X0070000Y0173976D01*
X0069482Y0175226D01*
X0068526Y0176182D01*
X0067276Y0176700D01*
X0065924Y0176700D01*
X0064674Y0176182D01*
X0063959Y0175467D01*
X0063640Y0175786D01*
X0063116Y0176136D01*
X0062533Y0176377D01*
X0061915Y0176500D01*
X0061800Y0176500D01*
X0061800Y0171800D01*
X0061400Y0171800D01*
X0061400Y0176500D01*
X0061285Y0176500D01*
X0060667Y0176377D01*
X0060084Y0176136D01*
X0059560Y0175786D01*
X0059241Y0175467D01*
X0059000Y0175708D01*
X0059000Y0177077D01*
X0058635Y0177959D01*
X0054000Y0182594D01*
X0054000Y0191901D01*
X0054100Y0192001D01*
X0054200Y0191901D01*
X0054200Y0186123D01*
X0054565Y0185241D01*
X0059565Y0180241D01*
X0060241Y0179565D01*
X0061123Y0179200D01*
X0155606Y0179200D01*
X0167000Y0167806D01*
X0167000Y0164695D01*
X0169000Y0162695D01*
X0169000Y0050989D01*
X0168739Y0050881D01*
X0167319Y0049461D01*
X0166600Y0047725D01*
X0165881Y0049461D01*
X0164461Y0050881D01*
X0162605Y0051650D01*
X0160595Y0051650D01*
X0158739Y0050881D01*
X0157319Y0049461D01*
X0156600Y0047725D01*
X0155881Y0049461D01*
X0154461Y0050881D01*
X0152605Y0051650D01*
X0150595Y0051650D01*
X0148739Y0050881D01*
X0147319Y0049461D01*
X0146600Y0047725D01*
X0145881Y0049461D01*
X0144461Y0050881D01*
X0142605Y0051650D01*
X0140595Y0051650D01*
X0138739Y0050881D01*
X0137319Y0049461D01*
X0136600Y0047725D01*
X0135881Y0049461D01*
X0134461Y0050881D01*
X0132605Y0051650D01*
X0130595Y0051650D01*
X0128739Y0050881D01*
X0127319Y0049461D01*
X0126550Y0047605D01*
X0126550Y0045595D01*
X0127319Y0043739D01*
X0128739Y0042319D01*
X0130595Y0041550D01*
X0132605Y0041550D01*
X0134461Y0042319D01*
X0135881Y0043739D01*
X0136600Y0045475D01*
X0137319Y0043739D01*
X0138739Y0042319D01*
X0140595Y0041550D01*
X0142605Y0041550D01*
X0144461Y0042319D01*
X0145881Y0043739D01*
X0146600Y0045475D01*
X0147319Y0043739D01*
X0148739Y0042319D01*
X0150595Y0041550D01*
X0152605Y0041550D01*
X0154461Y0042319D01*
X0155881Y0043739D01*
X0156600Y0045475D01*
X0157319Y0043739D01*
X0158739Y0042319D01*
X0160595Y0041550D01*
X0162605Y0041550D01*
X0163063Y0041740D01*
X0160995Y0039672D01*
X0035887Y0039672D01*
X0035503Y0040601D01*
X0033751Y0042353D01*
X0031461Y0043302D01*
X0028983Y0043302D01*
X0026694Y0042353D01*
X0024941Y0040601D01*
X0024200Y0038811D01*
X0024200Y0050523D01*
X0024626Y0050949D01*
X0025047Y0050528D01*
X0035397Y0050528D01*
X0036451Y0051583D01*
X0036451Y0061932D01*
X0035397Y0062987D01*
X0025047Y0062987D01*
X0023993Y0061932D01*
X0023993Y0057670D01*
X0020127Y0053804D01*
X0019396Y0053073D01*
X0019000Y0052117D01*
X0019000Y0031083D01*
X0019396Y0030127D01*
X0025127Y0024396D01*
X0026083Y0024000D01*
X0172117Y0024000D01*
X0173073Y0024396D01*
X0173804Y0025127D01*
X0190335Y0041658D01*
X0190595Y0041550D01*
X0192605Y0041550D01*
X0194461Y0042319D01*
X0195881Y0043739D01*
X0196600Y0045475D01*
X0197319Y0043739D01*
X0198739Y0042319D01*
X0200595Y0041550D01*
X0202605Y0041550D01*
X0203063Y0041740D01*
X0181310Y0019987D01*
X0035887Y0019987D01*
X0035503Y0020916D01*
X0033751Y0022668D01*
X0031461Y0023617D01*
X0028983Y0023617D01*
X0026694Y0022668D01*
X0024941Y0020916D01*
X0023993Y0018626D01*
X0023993Y0016148D01*
X0024941Y0013859D01*
X0026694Y0012107D01*
X0028983Y0011158D01*
X0032030Y0011394D02*
X0228501Y0011394D01*
X0228501Y0012593D02*
X0034237Y0012593D01*
X0035435Y0013791D02*
X0228501Y0013791D01*
X0228501Y0014990D02*
X0183393Y0014990D01*
X0184865Y0016188D02*
X0228501Y0016188D01*
X0228501Y0017387D02*
X0186064Y0017387D01*
X0187262Y0018585D02*
X0228501Y0018585D01*
X0228501Y0019784D02*
X0188461Y0019784D01*
X0189659Y0020982D02*
X0228501Y0020982D01*
X0228501Y0022181D02*
X0190858Y0022181D01*
X0192056Y0023379D02*
X0228501Y0023379D01*
X0228501Y0024578D02*
X0193255Y0024578D01*
X0194453Y0025776D02*
X0228501Y0025776D01*
X0228501Y0026975D02*
X0195652Y0026975D01*
X0196850Y0028173D02*
X0228501Y0028173D01*
X0228501Y0029372D02*
X0198049Y0029372D01*
X0199247Y0030570D02*
X0228501Y0030570D01*
X0228501Y0031769D02*
X0200446Y0031769D01*
X0201644Y0032967D02*
X0228501Y0032967D01*
X0228501Y0034166D02*
X0202843Y0034166D01*
X0204041Y0035364D02*
X0228501Y0035364D01*
X0228501Y0036563D02*
X0205240Y0036563D01*
X0206438Y0037761D02*
X0228501Y0037761D01*
X0228501Y0038960D02*
X0207637Y0038960D01*
X0208835Y0040158D02*
X0228501Y0040158D01*
X0228501Y0041357D02*
X0210034Y0041357D01*
X0216601Y0042555D02*
X0228501Y0042555D01*
X0228501Y0043754D02*
X0216650Y0043754D01*
X0216650Y0044952D02*
X0228501Y0044952D01*
X0228501Y0046151D02*
X0216650Y0046151D01*
X0216650Y0047349D02*
X0228501Y0047349D01*
X0228501Y0048548D02*
X0216650Y0048548D01*
X0216650Y0049746D02*
X0228501Y0049746D01*
X0228501Y0050945D02*
X0216301Y0050945D01*
X0209734Y0052143D02*
X0228501Y0052143D01*
X0228501Y0053342D02*
X0208535Y0053342D01*
X0207336Y0054540D02*
X0228501Y0054540D01*
X0228501Y0055739D02*
X0206138Y0055739D01*
X0204939Y0056937D02*
X0228501Y0056937D01*
X0228501Y0058136D02*
X0203741Y0058136D01*
X0202542Y0059334D02*
X0228501Y0059334D01*
X0228501Y0060533D02*
X0201344Y0060533D01*
X0200145Y0061732D02*
X0228501Y0061732D01*
X0228501Y0062930D02*
X0199200Y0062930D01*
X0199200Y0064129D02*
X0228501Y0064129D01*
X0228501Y0065327D02*
X0199200Y0065327D01*
X0199200Y0066526D02*
X0228501Y0066526D01*
X0228501Y0067724D02*
X0199200Y0067724D01*
X0199200Y0068923D02*
X0228501Y0068923D01*
X0228501Y0070121D02*
X0199200Y0070121D01*
X0199200Y0071320D02*
X0228501Y0071320D01*
X0228501Y0072518D02*
X0219660Y0072518D01*
X0220858Y0073717D02*
X0228501Y0073717D01*
X0228501Y0074915D02*
X0221368Y0074915D01*
X0221650Y0076114D02*
X0228501Y0076114D01*
X0228501Y0077312D02*
X0221650Y0077312D01*
X0221275Y0078511D02*
X0228501Y0078511D01*
X0228501Y0079709D02*
X0220633Y0079709D01*
X0219397Y0080908D02*
X0228501Y0080908D01*
X0228501Y0082106D02*
X0218947Y0082106D01*
X0220447Y0083305D02*
X0228501Y0083305D01*
X0228501Y0084503D02*
X0221198Y0084503D01*
X0221650Y0085702D02*
X0228501Y0085702D01*
X0228501Y0086900D02*
X0221650Y0086900D01*
X0221445Y0088099D02*
X0228501Y0088099D01*
X0228501Y0089297D02*
X0220949Y0089297D01*
X0219846Y0090496D02*
X0228501Y0090496D01*
X0228501Y0091694D02*
X0217953Y0091694D01*
X0220035Y0092893D02*
X0228501Y0092893D01*
X0228501Y0094091D02*
X0221027Y0094091D01*
X0221523Y0095290D02*
X0228501Y0095290D01*
X0228501Y0096488D02*
X0221650Y0096488D01*
X0221616Y0097687D02*
X0228501Y0097687D01*
X0228501Y0098885D02*
X0221119Y0098885D01*
X0220258Y0100084D02*
X0228501Y0100084D01*
X0228501Y0101282D02*
X0218492Y0101282D01*
X0219623Y0102481D02*
X0228501Y0102481D01*
X0228501Y0103679D02*
X0220821Y0103679D01*
X0221353Y0104878D02*
X0228501Y0104878D01*
X0228501Y0106076D02*
X0221650Y0106076D01*
X0221650Y0107275D02*
X0228501Y0107275D01*
X0228501Y0108473D02*
X0221290Y0108473D01*
X0220670Y0109672D02*
X0228501Y0109672D01*
X0228501Y0110870D02*
X0219471Y0110870D01*
X0218857Y0112069D02*
X0228501Y0112069D01*
X0228501Y0113268D02*
X0220409Y0113268D01*
X0221182Y0114466D02*
X0228501Y0114466D01*
X0228501Y0115665D02*
X0221650Y0115665D01*
X0221650Y0116863D02*
X0228501Y0116863D01*
X0228501Y0118062D02*
X0221461Y0118062D01*
X0220964Y0119260D02*
X0228501Y0119260D01*
X0228501Y0120459D02*
X0219883Y0120459D01*
X0217863Y0121657D02*
X0228501Y0121657D01*
X0228501Y0122856D02*
X0219997Y0122856D01*
X0221012Y0124054D02*
X0228501Y0124054D01*
X0228501Y0125253D02*
X0221508Y0125253D01*
X0221650Y0126451D02*
X0228501Y0126451D01*
X0228501Y0127650D02*
X0221631Y0127650D01*
X0221135Y0128848D02*
X0228501Y0128848D01*
X0228501Y0130047D02*
X0220295Y0130047D01*
X0218582Y0131245D02*
X0228501Y0131245D01*
X0228501Y0132444D02*
X0219585Y0132444D01*
X0220784Y0133642D02*
X0228501Y0133642D01*
X0228501Y0134841D02*
X0221337Y0134841D01*
X0221650Y0136039D02*
X0228501Y0136039D01*
X0228501Y0137238D02*
X0221650Y0137238D01*
X0221305Y0138436D02*
X0228501Y0138436D01*
X0228501Y0139635D02*
X0220707Y0139635D01*
X0219509Y0140833D02*
X0228501Y0140833D01*
X0228501Y0142032D02*
X0218768Y0142032D01*
X0220372Y0143230D02*
X0228501Y0143230D01*
X0228501Y0144429D02*
X0221167Y0144429D01*
X0221650Y0145627D02*
X0228501Y0145627D01*
X0228501Y0146826D02*
X0221650Y0146826D01*
X0221476Y0148024D02*
X0228501Y0148024D01*
X0228501Y0149223D02*
X0220980Y0149223D01*
X0219920Y0150421D02*
X0228501Y0150421D01*
X0228501Y0151620D02*
X0217773Y0151620D01*
X0219960Y0152818D02*
X0228501Y0152818D01*
X0228501Y0154017D02*
X0220996Y0154017D01*
X0221493Y0155215D02*
X0228501Y0155215D01*
X0228501Y0156414D02*
X0221650Y0156414D01*
X0221647Y0157612D02*
X0228501Y0157612D01*
X0228501Y0158811D02*
X0221150Y0158811D01*
X0220332Y0160009D02*
X0228501Y0160009D01*
X0228501Y0161208D02*
X0218672Y0161208D01*
X0219548Y0162406D02*
X0228501Y0162406D01*
X0228501Y0163605D02*
X0220747Y0163605D01*
X0221322Y0164803D02*
X0228501Y0164803D01*
X0228501Y0166002D02*
X0221650Y0166002D01*
X0221650Y0167201D02*
X0228501Y0167201D01*
X0228501Y0168399D02*
X0221321Y0168399D01*
X0220744Y0169598D02*
X0228501Y0169598D01*
X0228501Y0170796D02*
X0219546Y0170796D01*
X0218678Y0171995D02*
X0228501Y0171995D01*
X0228501Y0173193D02*
X0220335Y0173193D01*
X0221151Y0174392D02*
X0228501Y0174392D01*
X0228501Y0175590D02*
X0221648Y0175590D01*
X0221650Y0176789D02*
X0228501Y0176789D01*
X0228501Y0177987D02*
X0221492Y0177987D01*
X0220995Y0179186D02*
X0228501Y0179186D01*
X0228501Y0180384D02*
X0219958Y0180384D01*
X0219923Y0182781D02*
X0228501Y0182781D01*
X0228501Y0181583D02*
X0217767Y0181583D01*
X0220981Y0183980D02*
X0228501Y0183980D01*
X0228501Y0185178D02*
X0221477Y0185178D01*
X0221650Y0186377D02*
X0228501Y0186377D01*
X0228501Y0187575D02*
X0221650Y0187575D01*
X0221166Y0188774D02*
X0228501Y0188774D01*
X0228501Y0189972D02*
X0220370Y0189972D01*
X0218762Y0191171D02*
X0228501Y0191171D01*
X0228501Y0192369D02*
X0219511Y0192369D01*
X0220710Y0193568D02*
X0228501Y0193568D01*
X0228501Y0194766D02*
X0221307Y0194766D01*
X0221650Y0195965D02*
X0228501Y0195965D01*
X0228501Y0197163D02*
X0221650Y0197163D01*
X0221336Y0198362D02*
X0228501Y0198362D01*
X0228501Y0199560D02*
X0220781Y0199560D01*
X0219583Y0200759D02*
X0228501Y0200759D01*
X0228501Y0201957D02*
X0218588Y0201957D01*
X0220298Y0203156D02*
X0228501Y0203156D01*
X0228501Y0204354D02*
X0221136Y0204354D01*
X0221632Y0205553D02*
X0228501Y0205553D01*
X0228501Y0206751D02*
X0221650Y0206751D01*
X0221507Y0207950D02*
X0228501Y0207950D01*
X0228501Y0209148D02*
X0221010Y0209148D01*
X0219995Y0210347D02*
X0228501Y0210347D01*
X0228501Y0211545D02*
X0217857Y0211545D01*
X0219886Y0212744D02*
X0228501Y0212744D01*
X0228501Y0213942D02*
X0220965Y0213942D01*
X0221462Y0215141D02*
X0228501Y0215141D01*
X0228501Y0216339D02*
X0221650Y0216339D01*
X0221650Y0217538D02*
X0228501Y0217538D01*
X0228501Y0218737D02*
X0221181Y0218737D01*
X0220407Y0219935D02*
X0228501Y0219935D01*
X0228501Y0221134D02*
X0218851Y0221134D01*
X0219474Y0222332D02*
X0228501Y0222332D01*
X0228501Y0223531D02*
X0220672Y0223531D01*
X0221291Y0224729D02*
X0228501Y0224729D01*
X0228501Y0225928D02*
X0221650Y0225928D01*
X0221650Y0227126D02*
X0228501Y0227126D01*
X0228501Y0228325D02*
X0221352Y0228325D01*
X0220819Y0229523D02*
X0228501Y0229523D01*
X0228501Y0230722D02*
X0219620Y0230722D01*
X0218498Y0231920D02*
X0228501Y0231920D01*
X0228501Y0233119D02*
X0220260Y0233119D01*
X0221120Y0234317D02*
X0228501Y0234317D01*
X0228501Y0235516D02*
X0221617Y0235516D01*
X0221650Y0236714D02*
X0228501Y0236714D01*
X0228501Y0237913D02*
X0221522Y0237913D01*
X0221026Y0239111D02*
X0228501Y0239111D01*
X0228501Y0240310D02*
X0220032Y0240310D01*
X0219849Y0242707D02*
X0228501Y0242707D01*
X0228501Y0243905D02*
X0220950Y0243905D01*
X0221446Y0245104D02*
X0228501Y0245104D01*
X0228501Y0246302D02*
X0221650Y0246302D01*
X0221650Y0247501D02*
X0228501Y0247501D01*
X0228501Y0248699D02*
X0221197Y0248699D01*
X0220444Y0249898D02*
X0228501Y0249898D01*
X0228501Y0251096D02*
X0218941Y0251096D01*
X0219403Y0252295D02*
X0228501Y0252295D01*
X0228501Y0253493D02*
X0220635Y0253493D01*
X0221276Y0254692D02*
X0228501Y0254692D01*
X0228501Y0255890D02*
X0221650Y0255890D01*
X0221650Y0257089D02*
X0228501Y0257089D01*
X0228501Y0258287D02*
X0221367Y0258287D01*
X0220856Y0259486D02*
X0228501Y0259486D01*
X0228501Y0260684D02*
X0219657Y0260684D01*
X0218408Y0261883D02*
X0228501Y0261883D01*
X0228501Y0263081D02*
X0220223Y0263081D01*
X0221105Y0264280D02*
X0228501Y0264280D01*
X0228501Y0265478D02*
X0221602Y0265478D01*
X0221650Y0266677D02*
X0228501Y0266677D01*
X0228501Y0267875D02*
X0221538Y0267875D01*
X0221041Y0269074D02*
X0228501Y0269074D01*
X0228501Y0270272D02*
X0220069Y0270272D01*
X0218037Y0271471D02*
X0228501Y0271471D01*
X0228501Y0272670D02*
X0219811Y0272670D01*
X0220934Y0273868D02*
X0228501Y0273868D01*
X0228501Y0275067D02*
X0221431Y0275067D01*
X0221650Y0276265D02*
X0228501Y0276265D01*
X0228501Y0277464D02*
X0221650Y0277464D01*
X0221212Y0278662D02*
X0228501Y0278662D01*
X0228501Y0279861D02*
X0220481Y0279861D01*
X0219031Y0281059D02*
X0228501Y0281059D01*
X0228501Y0282258D02*
X0219313Y0282258D01*
X0220598Y0283456D02*
X0228501Y0283456D01*
X0228501Y0284655D02*
X0221260Y0284655D01*
X0221650Y0285853D02*
X0228501Y0285853D01*
X0228501Y0287052D02*
X0221650Y0287052D01*
X0221383Y0288250D02*
X0228501Y0288250D01*
X0228501Y0289449D02*
X0220886Y0289449D01*
X0219695Y0290647D02*
X0228501Y0290647D01*
X0228501Y0291846D02*
X0217586Y0291846D01*
X0217736Y0291869D02*
X0218462Y0292105D01*
X0219142Y0292452D01*
X0219760Y0292901D01*
X0220299Y0293440D01*
X0220748Y0294058D01*
X0221095Y0294738D01*
X0221331Y0295464D01*
X0221443Y0296175D01*
X0217025Y0296175D01*
X0217025Y0297025D01*
X0221443Y0297025D01*
X0221331Y0297736D01*
X0221095Y0298462D01*
X0220748Y0299142D01*
X0220299Y0299760D01*
X0219760Y0300299D01*
X0219142Y0300748D01*
X0218462Y0301095D01*
X0217736Y0301331D01*
X0217025Y0301443D01*
X0217025Y0297025D01*
X0216175Y0297025D01*
X0216175Y0301443D01*
X0215464Y0301331D01*
X0214738Y0301095D01*
X0214058Y0300748D01*
X0213440Y0300299D01*
X0212901Y0299760D01*
X0212452Y0299142D01*
X0212105Y0298462D01*
X0211869Y0297736D01*
X0211757Y0297025D01*
X0216175Y0297025D01*
X0216175Y0296175D01*
X0217025Y0296175D01*
X0217025Y0291757D01*
X0217736Y0291869D01*
X0217025Y0291846D02*
X0216175Y0291846D01*
X0216175Y0291757D02*
X0216175Y0296175D01*
X0211757Y0296175D01*
X0211869Y0295464D01*
X0212105Y0294738D01*
X0212452Y0294058D01*
X0212901Y0293440D01*
X0213440Y0292901D01*
X0214058Y0292452D01*
X0214738Y0292105D01*
X0215464Y0291869D01*
X0216175Y0291757D01*
X0215614Y0291846D02*
X0210418Y0291846D01*
X0210468Y0291859D02*
X0210832Y0292070D01*
X0211130Y0292368D01*
X0211341Y0292732D01*
X0211450Y0293139D01*
X0211450Y0296175D01*
X0207025Y0296175D01*
X0207025Y0297025D01*
X0211450Y0297025D01*
X0211450Y0300061D01*
X0211341Y0300468D01*
X0211130Y0300832D01*
X0210832Y0301130D01*
X0210468Y0301341D01*
X0210061Y0301450D01*
X0207025Y0301450D01*
X0207025Y0297025D01*
X0206175Y0297025D01*
X0206175Y0301450D01*
X0203139Y0301450D01*
X0202732Y0301341D01*
X0202368Y0301130D01*
X0202070Y0300832D01*
X0201859Y0300468D01*
X0201750Y0300061D01*
X0201750Y0297025D01*
X0206175Y0297025D01*
X0206175Y0296175D01*
X0207025Y0296175D01*
X0207025Y0291750D01*
X0210061Y0291750D01*
X0210468Y0291859D01*
X0209695Y0290647D02*
X0213505Y0290647D01*
X0212314Y0289449D02*
X0210886Y0289449D01*
X0211383Y0288250D02*
X0211817Y0288250D01*
X0211424Y0293044D02*
X0213297Y0293044D01*
X0212358Y0294243D02*
X0211450Y0294243D01*
X0211450Y0295441D02*
X0211877Y0295441D01*
X0211903Y0297838D02*
X0211450Y0297838D01*
X0211450Y0299037D02*
X0212398Y0299037D01*
X0213376Y0300235D02*
X0211403Y0300235D01*
X0210121Y0301434D02*
X0216116Y0301434D01*
X0216175Y0301434D02*
X0217025Y0301434D01*
X0217084Y0301434D02*
X0228501Y0301434D01*
X0228501Y0302632D02*
X0183400Y0302632D01*
X0183400Y0301434D02*
X0203079Y0301434D01*
X0201797Y0300235D02*
X0183400Y0300235D01*
X0183400Y0299037D02*
X0201750Y0299037D01*
X0201750Y0297838D02*
X0183400Y0297838D01*
X0183400Y0296640D02*
X0206175Y0296640D01*
X0206175Y0296175D02*
X0201750Y0296175D01*
X0201750Y0293139D01*
X0201859Y0292732D01*
X0202070Y0292368D01*
X0202368Y0292070D01*
X0202732Y0291859D01*
X0203139Y0291750D01*
X0206175Y0291750D01*
X0206175Y0296175D01*
X0206175Y0295441D02*
X0207025Y0295441D01*
X0207025Y0294243D02*
X0206175Y0294243D01*
X0206175Y0293044D02*
X0207025Y0293044D01*
X0207025Y0291846D02*
X0206175Y0291846D01*
X0203505Y0290647D02*
X0183400Y0290647D01*
X0183400Y0289449D02*
X0202314Y0289449D01*
X0201817Y0288250D02*
X0183400Y0288250D01*
X0183400Y0287052D02*
X0201550Y0287052D01*
X0201550Y0285853D02*
X0183399Y0285853D01*
X0183400Y0291846D02*
X0202782Y0291846D01*
X0201775Y0293044D02*
X0183400Y0293044D01*
X0183400Y0294243D02*
X0201750Y0294243D01*
X0201750Y0295441D02*
X0183400Y0295441D01*
X0183400Y0303831D02*
X0228501Y0303831D01*
X0228501Y0300235D02*
X0219824Y0300235D01*
X0220802Y0299037D02*
X0228501Y0299037D01*
X0228501Y0297838D02*
X0221297Y0297838D01*
X0221323Y0295441D02*
X0228501Y0295441D01*
X0228501Y0294243D02*
X0220842Y0294243D01*
X0219903Y0293044D02*
X0228501Y0293044D01*
X0228501Y0296640D02*
X0217025Y0296640D01*
X0216175Y0296640D02*
X0207025Y0296640D01*
X0207025Y0297838D02*
X0206175Y0297838D01*
X0206175Y0299037D02*
X0207025Y0299037D01*
X0207025Y0300235D02*
X0206175Y0300235D01*
X0206175Y0301434D02*
X0207025Y0301434D01*
X0216175Y0300235D02*
X0217025Y0300235D01*
X0217025Y0299037D02*
X0216175Y0299037D01*
X0216175Y0297838D02*
X0217025Y0297838D01*
X0217025Y0295441D02*
X0216175Y0295441D01*
X0216175Y0294243D02*
X0217025Y0294243D01*
X0217025Y0293044D02*
X0216175Y0293044D01*
X0203887Y0282258D02*
X0034336Y0282258D01*
X0033138Y0283456D02*
X0202602Y0283456D01*
X0201940Y0284655D02*
X0031939Y0284655D01*
X0031650Y0285853D02*
X0049801Y0285853D01*
X0049800Y0287052D02*
X0031650Y0287052D01*
X0031383Y0288250D02*
X0049800Y0288250D01*
X0049800Y0289449D02*
X0030886Y0289449D01*
X0029695Y0290647D02*
X0049800Y0290647D01*
X0049800Y0291846D02*
X0027586Y0291846D01*
X0027736Y0291869D02*
X0028462Y0292105D01*
X0029142Y0292452D01*
X0029760Y0292901D01*
X0030299Y0293440D01*
X0030748Y0294058D01*
X0031095Y0294738D01*
X0031331Y0295464D01*
X0031443Y0296175D01*
X0027025Y0296175D01*
X0027025Y0297025D01*
X0031443Y0297025D01*
X0031331Y0297736D01*
X0031095Y0298462D01*
X0030748Y0299142D01*
X0030299Y0299760D01*
X0029760Y0300299D01*
X0029142Y0300748D01*
X0028462Y0301095D01*
X0027736Y0301331D01*
X0027025Y0301443D01*
X0027025Y0297025D01*
X0026175Y0297025D01*
X0026175Y0301443D01*
X0025464Y0301331D01*
X0024738Y0301095D01*
X0024058Y0300748D01*
X0023440Y0300299D01*
X0022901Y0299760D01*
X0022452Y0299142D01*
X0022105Y0298462D01*
X0021869Y0297736D01*
X0021757Y0297025D01*
X0026175Y0297025D01*
X0026175Y0296175D01*
X0027025Y0296175D01*
X0027025Y0291757D01*
X0027736Y0291869D01*
X0027025Y0291846D02*
X0026175Y0291846D01*
X0026175Y0291757D02*
X0026175Y0296175D01*
X0021757Y0296175D01*
X0021869Y0295464D01*
X0022105Y0294738D01*
X0022452Y0294058D01*
X0022901Y0293440D01*
X0023440Y0292901D01*
X0024058Y0292452D01*
X0024738Y0292105D01*
X0025464Y0291869D01*
X0026175Y0291757D01*
X0025614Y0291846D02*
X0020418Y0291846D01*
X0020468Y0291859D02*
X0020832Y0292070D01*
X0021130Y0292368D01*
X0021341Y0292732D01*
X0021450Y0293139D01*
X0021450Y0296175D01*
X0017025Y0296175D01*
X0017025Y0297025D01*
X0021450Y0297025D01*
X0021450Y0300061D01*
X0021341Y0300468D01*
X0021130Y0300832D01*
X0020832Y0301130D01*
X0020468Y0301341D01*
X0020061Y0301450D01*
X0017025Y0301450D01*
X0017025Y0297025D01*
X0016175Y0297025D01*
X0016175Y0301450D01*
X0013139Y0301450D01*
X0012732Y0301341D01*
X0012368Y0301130D01*
X0012070Y0300832D01*
X0011859Y0300468D01*
X0011750Y0300061D01*
X0011750Y0297025D01*
X0016175Y0297025D01*
X0016175Y0296175D01*
X0017025Y0296175D01*
X0017025Y0291750D01*
X0020061Y0291750D01*
X0020468Y0291859D01*
X0019695Y0290647D02*
X0023505Y0290647D01*
X0022314Y0289449D02*
X0020886Y0289449D01*
X0021383Y0288250D02*
X0021817Y0288250D01*
X0021424Y0293044D02*
X0023297Y0293044D01*
X0022358Y0294243D02*
X0021450Y0294243D01*
X0021450Y0295441D02*
X0021877Y0295441D01*
X0021903Y0297838D02*
X0021450Y0297838D01*
X0021450Y0299037D02*
X0022398Y0299037D01*
X0023376Y0300235D02*
X0021403Y0300235D01*
X0020121Y0301434D02*
X0026116Y0301434D01*
X0026175Y0301434D02*
X0027025Y0301434D01*
X0027084Y0301434D02*
X0049800Y0301434D01*
X0049800Y0302632D02*
X0003400Y0302632D01*
X0003400Y0301434D02*
X0013079Y0301434D01*
X0011797Y0300235D02*
X0003400Y0300235D01*
X0003400Y0299037D02*
X0011750Y0299037D01*
X0011750Y0297838D02*
X0003400Y0297838D01*
X0003400Y0296640D02*
X0016175Y0296640D01*
X0016175Y0296175D02*
X0011750Y0296175D01*
X0011750Y0293139D01*
X0011859Y0292732D01*
X0012070Y0292368D01*
X0012368Y0292070D01*
X0012732Y0291859D01*
X0013139Y0291750D01*
X0016175Y0291750D01*
X0016175Y0296175D01*
X0016175Y0295441D02*
X0017025Y0295441D01*
X0017025Y0294243D02*
X0016175Y0294243D01*
X0016175Y0293044D02*
X0017025Y0293044D01*
X0017025Y0291846D02*
X0016175Y0291846D01*
X0013505Y0290647D02*
X0003400Y0290647D01*
X0003400Y0289449D02*
X0012314Y0289449D01*
X0011817Y0288250D02*
X0003400Y0288250D01*
X0003400Y0287052D02*
X0011550Y0287052D01*
X0011550Y0285853D02*
X0003400Y0285853D01*
X0003400Y0284655D02*
X0011940Y0284655D01*
X0012602Y0283456D02*
X0003400Y0283456D01*
X0003400Y0282258D02*
X0013887Y0282258D01*
X0014169Y0281059D02*
X0003400Y0281059D01*
X0003400Y0279861D02*
X0012719Y0279861D01*
X0011988Y0278662D02*
X0003400Y0278662D01*
X0003400Y0277464D02*
X0011550Y0277464D01*
X0011550Y0276265D02*
X0003400Y0276265D01*
X0003400Y0275067D02*
X0011769Y0275067D01*
X0012266Y0273868D02*
X0003400Y0273868D01*
X0003400Y0272670D02*
X0013389Y0272670D01*
X0015163Y0271471D02*
X0003400Y0271471D01*
X0003400Y0270272D02*
X0013131Y0270272D01*
X0012159Y0269074D02*
X0003400Y0269074D01*
X0003400Y0267875D02*
X0011662Y0267875D01*
X0011550Y0266677D02*
X0003400Y0266677D01*
X0003400Y0265478D02*
X0011598Y0265478D01*
X0012095Y0264280D02*
X0003400Y0264280D01*
X0003400Y0263081D02*
X0012977Y0263081D01*
X0014792Y0261883D02*
X0003400Y0261883D01*
X0003400Y0260684D02*
X0013543Y0260684D01*
X0012344Y0259486D02*
X0003400Y0259486D01*
X0003400Y0258287D02*
X0011833Y0258287D01*
X0011550Y0257089D02*
X0003400Y0257089D01*
X0003400Y0255890D02*
X0011550Y0255890D01*
X0011924Y0254692D02*
X0003400Y0254692D01*
X0003400Y0253493D02*
X0012565Y0253493D01*
X0013797Y0252295D02*
X0003400Y0252295D01*
X0003400Y0251096D02*
X0014259Y0251096D01*
X0012756Y0249898D02*
X0003400Y0249898D01*
X0003400Y0248699D02*
X0012003Y0248699D01*
X0011550Y0247501D02*
X0003400Y0247501D01*
X0003400Y0246302D02*
X0011550Y0246302D01*
X0011754Y0245104D02*
X0003400Y0245104D01*
X0003400Y0243905D02*
X0012250Y0243905D01*
X0013351Y0242707D02*
X0003400Y0242707D01*
X0003400Y0241508D02*
X0015253Y0241508D01*
X0013168Y0240310D02*
X0003400Y0240310D01*
X0003400Y0239111D02*
X0012174Y0239111D01*
X0011678Y0237913D02*
X0003400Y0237913D01*
X0003400Y0236714D02*
X0011550Y0236714D01*
X0011583Y0235516D02*
X0003400Y0235516D01*
X0003400Y0234317D02*
X0012079Y0234317D01*
X0012940Y0233119D02*
X0003400Y0233119D01*
X0003400Y0231920D02*
X0014702Y0231920D01*
X0013580Y0230722D02*
X0003400Y0230722D01*
X0003400Y0229523D02*
X0012381Y0229523D01*
X0011848Y0228325D02*
X0003400Y0228325D01*
X0003400Y0227126D02*
X0011550Y0227126D01*
X0011550Y0225928D02*
X0003400Y0225928D01*
X0003400Y0224729D02*
X0011909Y0224729D01*
X0012528Y0223531D02*
X0003400Y0223531D01*
X0003400Y0222332D02*
X0013726Y0222332D01*
X0014349Y0221134D02*
X0003400Y0221134D01*
X0003400Y0219935D02*
X0012793Y0219935D01*
X0012019Y0218737D02*
X0003400Y0218737D01*
X0003400Y0217538D02*
X0011550Y0217538D01*
X0011550Y0216339D02*
X0003400Y0216339D01*
X0003400Y0215141D02*
X0011738Y0215141D01*
X0012235Y0213942D02*
X0003400Y0213942D01*
X0003400Y0212744D02*
X0013314Y0212744D01*
X0015343Y0211545D02*
X0003400Y0211545D01*
X0003400Y0210347D02*
X0013205Y0210347D01*
X0012190Y0209148D02*
X0003400Y0209148D01*
X0003400Y0207950D02*
X0011693Y0207950D01*
X0011550Y0206751D02*
X0003400Y0206751D01*
X0003400Y0205553D02*
X0011568Y0205553D01*
X0012064Y0204354D02*
X0003400Y0204354D01*
X0003400Y0203156D02*
X0012902Y0203156D01*
X0014612Y0201957D02*
X0003400Y0201957D01*
X0003400Y0200759D02*
X0013617Y0200759D01*
X0012419Y0199560D02*
X0003400Y0199560D01*
X0003400Y0198362D02*
X0011864Y0198362D01*
X0011550Y0197163D02*
X0003400Y0197163D01*
X0003400Y0195965D02*
X0011550Y0195965D01*
X0011893Y0194766D02*
X0003400Y0194766D01*
X0003400Y0193568D02*
X0012490Y0193568D01*
X0013689Y0192369D02*
X0003400Y0192369D01*
X0003400Y0191171D02*
X0014438Y0191171D01*
X0012830Y0189972D02*
X0003400Y0189972D01*
X0003400Y0188774D02*
X0012034Y0188774D01*
X0011550Y0187575D02*
X0003400Y0187575D01*
X0003400Y0186377D02*
X0011550Y0186377D01*
X0011723Y0185178D02*
X0003400Y0185178D01*
X0003400Y0183980D02*
X0012219Y0183980D01*
X0013277Y0182781D02*
X0003400Y0182781D01*
X0003400Y0181583D02*
X0015433Y0181583D01*
X0013242Y0180384D02*
X0003400Y0180384D01*
X0003400Y0179186D02*
X0012205Y0179186D01*
X0011708Y0177987D02*
X0003400Y0177987D01*
X0003400Y0176789D02*
X0011550Y0176789D01*
X0011552Y0175590D02*
X0003400Y0175590D01*
X0003400Y0174392D02*
X0012049Y0174392D01*
X0012865Y0173193D02*
X0003400Y0173193D01*
X0003400Y0171995D02*
X0014522Y0171995D01*
X0013654Y0170796D02*
X0003400Y0170796D01*
X0003400Y0169598D02*
X0012456Y0169598D01*
X0011879Y0168399D02*
X0003400Y0168399D01*
X0003400Y0167201D02*
X0011550Y0167201D01*
X0011550Y0166002D02*
X0003400Y0166002D01*
X0003400Y0164803D02*
X0011878Y0164803D01*
X0012453Y0163605D02*
X0003400Y0163605D01*
X0003400Y0162406D02*
X0013652Y0162406D01*
X0014528Y0161208D02*
X0003400Y0161208D01*
X0003400Y0160009D02*
X0012868Y0160009D01*
X0012050Y0158811D02*
X0003400Y0158811D01*
X0003400Y0157612D02*
X0011553Y0157612D01*
X0011550Y0156414D02*
X0003400Y0156414D01*
X0003400Y0155215D02*
X0011707Y0155215D01*
X0012204Y0154017D02*
X0003400Y0154017D01*
X0003400Y0152818D02*
X0013240Y0152818D01*
X0013280Y0150421D02*
X0003400Y0150421D01*
X0003400Y0149223D02*
X0012220Y0149223D01*
X0011724Y0148024D02*
X0003400Y0148024D01*
X0003400Y0146826D02*
X0011550Y0146826D01*
X0011550Y0145627D02*
X0003400Y0145627D01*
X0003400Y0144429D02*
X0012033Y0144429D01*
X0012828Y0143230D02*
X0003400Y0143230D01*
X0003400Y0142032D02*
X0014432Y0142032D01*
X0013691Y0140833D02*
X0003400Y0140833D01*
X0003400Y0139635D02*
X0012493Y0139635D01*
X0011895Y0138436D02*
X0003400Y0138436D01*
X0003400Y0137238D02*
X0011550Y0137238D01*
X0011550Y0136039D02*
X0003400Y0136039D01*
X0003400Y0134841D02*
X0011863Y0134841D01*
X0012416Y0133642D02*
X0003400Y0133642D01*
X0003400Y0132444D02*
X0013615Y0132444D01*
X0014618Y0131245D02*
X0003400Y0131245D01*
X0003400Y0130047D02*
X0012905Y0130047D01*
X0012065Y0128848D02*
X0003400Y0128848D01*
X0003400Y0127650D02*
X0011569Y0127650D01*
X0011550Y0126451D02*
X0003400Y0126451D01*
X0003400Y0125253D02*
X0011692Y0125253D01*
X0012188Y0124054D02*
X0003400Y0124054D01*
X0003400Y0122856D02*
X0013203Y0122856D01*
X0013317Y0120459D02*
X0003400Y0120459D01*
X0003400Y0121657D02*
X0015337Y0121657D01*
X0012236Y0119260D02*
X0003400Y0119260D01*
X0003400Y0118062D02*
X0011739Y0118062D01*
X0011550Y0116863D02*
X0003400Y0116863D01*
X0003400Y0115665D02*
X0011550Y0115665D01*
X0012018Y0114466D02*
X0003400Y0114466D01*
X0003400Y0113268D02*
X0012791Y0113268D01*
X0014343Y0112069D02*
X0003400Y0112069D01*
X0003400Y0110870D02*
X0013729Y0110870D01*
X0012530Y0109672D02*
X0003400Y0109672D01*
X0003400Y0108473D02*
X0011910Y0108473D01*
X0011550Y0107275D02*
X0003400Y0107275D01*
X0003400Y0106076D02*
X0011550Y0106076D01*
X0011847Y0104878D02*
X0003400Y0104878D01*
X0003400Y0103679D02*
X0012379Y0103679D01*
X0013577Y0102481D02*
X0003400Y0102481D01*
X0003400Y0101282D02*
X0014708Y0101282D01*
X0012942Y0100084D02*
X0003400Y0100084D01*
X0003400Y0098885D02*
X0012081Y0098885D01*
X0011584Y0097687D02*
X0003400Y0097687D01*
X0003400Y0096488D02*
X0011550Y0096488D01*
X0011677Y0095290D02*
X0003400Y0095290D01*
X0003400Y0094091D02*
X0012173Y0094091D01*
X0013165Y0092893D02*
X0003400Y0092893D01*
X0003400Y0091694D02*
X0015247Y0091694D01*
X0013354Y0090496D02*
X0003400Y0090496D01*
X0003400Y0089297D02*
X0012251Y0089297D01*
X0011755Y0088099D02*
X0003400Y0088099D01*
X0003400Y0086900D02*
X0011550Y0086900D01*
X0011550Y0085702D02*
X0003400Y0085702D01*
X0003400Y0084503D02*
X0012002Y0084503D01*
X0012753Y0083305D02*
X0003400Y0083305D01*
X0003400Y0082106D02*
X0014253Y0082106D01*
X0013803Y0080908D02*
X0003400Y0080908D01*
X0003400Y0079709D02*
X0012567Y0079709D01*
X0011925Y0078511D02*
X0003400Y0078511D01*
X0003400Y0077312D02*
X0011550Y0077312D01*
X0011550Y0076114D02*
X0003400Y0076114D01*
X0003400Y0074915D02*
X0011832Y0074915D01*
X0012342Y0073717D02*
X0003400Y0073717D01*
X0003400Y0072518D02*
X0013540Y0072518D01*
X0019660Y0072518D02*
X0023540Y0072518D01*
X0022342Y0073717D02*
X0020858Y0073717D01*
X0021368Y0074915D02*
X0021832Y0074915D01*
X0029660Y0072518D02*
X0169000Y0072518D01*
X0169000Y0071320D02*
X0003400Y0071320D01*
X0003400Y0070121D02*
X0169000Y0070121D01*
X0169000Y0068923D02*
X0003400Y0068923D01*
X0003400Y0067724D02*
X0169000Y0067724D01*
X0169000Y0066526D02*
X0003400Y0066526D01*
X0003400Y0065327D02*
X0169000Y0065327D01*
X0169000Y0064129D02*
X0003400Y0064129D01*
X0003400Y0062930D02*
X0024991Y0062930D01*
X0023993Y0061732D02*
X0003400Y0061732D01*
X0003400Y0060533D02*
X0023993Y0060533D01*
X0023993Y0059334D02*
X0003400Y0059334D01*
X0003400Y0058136D02*
X0023993Y0058136D01*
X0023261Y0056937D02*
X0003400Y0056937D01*
X0003400Y0055739D02*
X0022062Y0055739D01*
X0020864Y0054540D02*
X0003400Y0054540D01*
X0003400Y0053342D02*
X0019665Y0053342D01*
X0019011Y0052143D02*
X0003400Y0052143D01*
X0003400Y0050945D02*
X0019000Y0050945D01*
X0019000Y0049746D02*
X0003400Y0049746D01*
X0003400Y0048548D02*
X0019000Y0048548D01*
X0019000Y0047349D02*
X0003400Y0047349D01*
X0003400Y0046151D02*
X0019000Y0046151D01*
X0019000Y0044952D02*
X0003400Y0044952D01*
X0003400Y0043754D02*
X0019000Y0043754D01*
X0019000Y0042555D02*
X0003400Y0042555D01*
X0003400Y0041357D02*
X0019000Y0041357D01*
X0019000Y0040158D02*
X0003400Y0040158D01*
X0003400Y0038960D02*
X0019000Y0038960D01*
X0019000Y0037761D02*
X0003400Y0037761D01*
X0003400Y0036563D02*
X0019000Y0036563D01*
X0019000Y0035364D02*
X0003400Y0035364D01*
X0003400Y0034166D02*
X0019000Y0034166D01*
X0019000Y0032967D02*
X0003400Y0032967D01*
X0003400Y0031769D02*
X0019000Y0031769D01*
X0019212Y0030570D02*
X0003400Y0030570D01*
X0003400Y0029372D02*
X0020151Y0029372D01*
X0021350Y0028173D02*
X0003400Y0028173D01*
X0003400Y0026975D02*
X0022548Y0026975D01*
X0023747Y0025776D02*
X0003400Y0025776D01*
X0003400Y0024578D02*
X0024945Y0024578D01*
X0026206Y0022181D02*
X0003400Y0022181D01*
X0003400Y0023379D02*
X0028410Y0023379D01*
X0032034Y0023379D02*
X0184702Y0023379D01*
X0183504Y0022181D02*
X0034238Y0022181D01*
X0035437Y0020982D02*
X0182305Y0020982D01*
X0185901Y0024578D02*
X0173255Y0024578D01*
X0174453Y0025776D02*
X0187099Y0025776D01*
X0188298Y0026975D02*
X0175652Y0026975D01*
X0176850Y0028173D02*
X0189496Y0028173D01*
X0190695Y0029372D02*
X0178049Y0029372D01*
X0179247Y0030570D02*
X0191893Y0030570D01*
X0193092Y0031769D02*
X0180446Y0031769D01*
X0181644Y0032967D02*
X0194290Y0032967D01*
X0195489Y0034166D02*
X0182843Y0034166D01*
X0184041Y0035364D02*
X0196687Y0035364D01*
X0197886Y0036563D02*
X0185240Y0036563D01*
X0186438Y0037761D02*
X0199084Y0037761D01*
X0200283Y0038960D02*
X0187637Y0038960D01*
X0188835Y0040158D02*
X0201481Y0040158D01*
X0202680Y0041357D02*
X0190034Y0041357D01*
X0194697Y0042555D02*
X0198503Y0042555D01*
X0197313Y0043754D02*
X0195887Y0043754D01*
X0196384Y0044952D02*
X0196816Y0044952D01*
X0196941Y0048548D02*
X0196259Y0048548D01*
X0195595Y0049746D02*
X0197605Y0049746D01*
X0198893Y0050945D02*
X0194307Y0050945D01*
X0194000Y0052143D02*
X0202380Y0052143D01*
X0201181Y0053342D02*
X0194000Y0053342D01*
X0194000Y0054540D02*
X0199983Y0054540D01*
X0198784Y0055739D02*
X0194000Y0055739D01*
X0194000Y0056937D02*
X0197586Y0056937D01*
X0196387Y0058136D02*
X0194000Y0058136D01*
X0194000Y0059334D02*
X0195189Y0059334D01*
X0194228Y0060533D02*
X0194000Y0060533D01*
X0194000Y0061732D02*
X0194000Y0061732D01*
X0194000Y0062930D02*
X0194000Y0062930D01*
X0194000Y0064129D02*
X0194000Y0064129D01*
X0194000Y0065327D02*
X0194000Y0065327D01*
X0194000Y0066526D02*
X0194000Y0066526D01*
X0194000Y0067724D02*
X0194000Y0067724D01*
X0194000Y0068923D02*
X0194000Y0068923D01*
X0194000Y0070121D02*
X0194000Y0070121D01*
X0194000Y0071320D02*
X0194000Y0071320D01*
X0194000Y0072518D02*
X0194000Y0072518D01*
X0194000Y0073717D02*
X0194000Y0073717D01*
X0194000Y0074915D02*
X0194000Y0074915D01*
X0194000Y0076114D02*
X0194000Y0076114D01*
X0194000Y0077312D02*
X0194000Y0077312D01*
X0194000Y0078511D02*
X0194000Y0078511D01*
X0194000Y0079709D02*
X0194000Y0079709D01*
X0194000Y0080908D02*
X0194000Y0080908D01*
X0194000Y0082106D02*
X0194000Y0082106D01*
X0194000Y0083305D02*
X0194000Y0083305D01*
X0194000Y0084503D02*
X0194000Y0084503D01*
X0194000Y0085702D02*
X0194000Y0085702D01*
X0194000Y0086900D02*
X0194000Y0086900D01*
X0194000Y0088099D02*
X0194000Y0088099D01*
X0194000Y0089297D02*
X0194000Y0089297D01*
X0194000Y0090496D02*
X0194000Y0090496D01*
X0194000Y0091694D02*
X0194000Y0091694D01*
X0194000Y0092893D02*
X0194000Y0092893D01*
X0194000Y0094091D02*
X0194000Y0094091D01*
X0194000Y0095290D02*
X0194000Y0095290D01*
X0194000Y0096488D02*
X0194000Y0096488D01*
X0194000Y0097687D02*
X0194000Y0097687D01*
X0194000Y0098885D02*
X0194000Y0098885D01*
X0194000Y0100084D02*
X0194000Y0100084D01*
X0194000Y0101282D02*
X0194000Y0101282D01*
X0194000Y0102481D02*
X0194000Y0102481D01*
X0194000Y0103679D02*
X0194000Y0103679D01*
X0194000Y0104878D02*
X0194000Y0104878D01*
X0194000Y0106076D02*
X0194000Y0106076D01*
X0194000Y0107275D02*
X0194000Y0107275D01*
X0194000Y0108473D02*
X0194000Y0108473D01*
X0194000Y0109672D02*
X0194000Y0109672D01*
X0194000Y0110870D02*
X0194000Y0110870D01*
X0194000Y0112069D02*
X0194000Y0112069D01*
X0194000Y0113268D02*
X0194000Y0113268D01*
X0194000Y0114466D02*
X0194000Y0114466D01*
X0194000Y0115665D02*
X0194000Y0115665D01*
X0194000Y0116863D02*
X0194000Y0116863D01*
X0194000Y0118062D02*
X0194000Y0118062D01*
X0194000Y0119260D02*
X0194000Y0119260D01*
X0194000Y0120459D02*
X0194000Y0120459D01*
X0194000Y0121657D02*
X0194000Y0121657D01*
X0194000Y0122856D02*
X0194000Y0122856D01*
X0194000Y0124054D02*
X0194000Y0124054D01*
X0194000Y0125253D02*
X0194000Y0125253D01*
X0194000Y0126451D02*
X0194000Y0126451D01*
X0194000Y0127650D02*
X0194000Y0127650D01*
X0194000Y0128848D02*
X0194000Y0128848D01*
X0194000Y0130047D02*
X0194000Y0130047D01*
X0194000Y0131245D02*
X0194000Y0131245D01*
X0194000Y0132444D02*
X0194000Y0132444D01*
X0194000Y0133642D02*
X0194000Y0133642D01*
X0194000Y0134841D02*
X0194000Y0134841D01*
X0194000Y0136039D02*
X0194000Y0136039D01*
X0194000Y0137238D02*
X0194000Y0137238D01*
X0194000Y0138436D02*
X0194000Y0138436D01*
X0194000Y0139635D02*
X0194000Y0139635D01*
X0194000Y0140833D02*
X0194000Y0140833D01*
X0194000Y0142032D02*
X0194000Y0142032D01*
X0194000Y0143230D02*
X0194000Y0143230D01*
X0194000Y0144429D02*
X0194000Y0144429D01*
X0194000Y0145627D02*
X0194000Y0145627D01*
X0194000Y0146826D02*
X0194000Y0146826D01*
X0194000Y0148024D02*
X0194000Y0148024D01*
X0194000Y0149223D02*
X0194000Y0149223D01*
X0194000Y0150421D02*
X0194000Y0150421D01*
X0194000Y0151620D02*
X0194000Y0151620D01*
X0194000Y0152818D02*
X0194000Y0152818D01*
X0194000Y0154017D02*
X0194000Y0154017D01*
X0194000Y0155215D02*
X0194000Y0155215D01*
X0194000Y0156414D02*
X0194000Y0156414D01*
X0194000Y0157612D02*
X0194000Y0157612D01*
X0194000Y0158811D02*
X0194000Y0158811D01*
X0194000Y0160009D02*
X0194000Y0160009D01*
X0194000Y0161208D02*
X0194000Y0161208D01*
X0194000Y0162406D02*
X0194000Y0162406D01*
X0194000Y0163605D02*
X0194000Y0163605D01*
X0194000Y0164803D02*
X0194000Y0164803D01*
X0194000Y0166002D02*
X0194000Y0166002D01*
X0194000Y0167201D02*
X0193949Y0167201D01*
X0194000Y0168399D02*
X0193195Y0168399D01*
X0194000Y0169598D02*
X0191997Y0169598D01*
X0190798Y0170796D02*
X0194000Y0170796D01*
X0194000Y0171995D02*
X0189600Y0171995D01*
X0188401Y0173193D02*
X0194000Y0173193D01*
X0194000Y0174392D02*
X0187203Y0174392D01*
X0186004Y0175590D02*
X0194000Y0175590D01*
X0194000Y0176789D02*
X0184805Y0176789D01*
X0183607Y0177987D02*
X0194000Y0177987D01*
X0194000Y0179186D02*
X0182408Y0179186D01*
X0181210Y0180384D02*
X0194000Y0180384D01*
X0192940Y0181583D02*
X0180011Y0181583D01*
X0178813Y0182781D02*
X0191742Y0182781D01*
X0190543Y0183980D02*
X0177614Y0183980D01*
X0176416Y0185178D02*
X0189345Y0185178D01*
X0188146Y0186377D02*
X0175217Y0186377D01*
X0174019Y0187575D02*
X0186948Y0187575D01*
X0185749Y0188774D02*
X0172624Y0188774D01*
X0171600Y0186600D02*
X0191600Y0166600D01*
X0191600Y0046600D01*
X0199200Y0072518D02*
X0203540Y0072518D01*
X0202342Y0073717D02*
X0199200Y0073717D01*
X0199200Y0074915D02*
X0201832Y0074915D01*
X0201550Y0076114D02*
X0199200Y0076114D01*
X0199200Y0077312D02*
X0201550Y0077312D01*
X0201925Y0078511D02*
X0199200Y0078511D01*
X0199200Y0079709D02*
X0202567Y0079709D01*
X0203803Y0080908D02*
X0199200Y0080908D01*
X0199200Y0082106D02*
X0204253Y0082106D01*
X0202753Y0083305D02*
X0199200Y0083305D01*
X0199200Y0084503D02*
X0202002Y0084503D01*
X0201550Y0085702D02*
X0199200Y0085702D01*
X0199200Y0086900D02*
X0201550Y0086900D01*
X0201755Y0088099D02*
X0199200Y0088099D01*
X0199200Y0089297D02*
X0202251Y0089297D01*
X0203354Y0090496D02*
X0199200Y0090496D01*
X0199200Y0091694D02*
X0205247Y0091694D01*
X0203165Y0092893D02*
X0199200Y0092893D01*
X0199200Y0094091D02*
X0202173Y0094091D01*
X0201677Y0095290D02*
X0199200Y0095290D01*
X0199200Y0096488D02*
X0201550Y0096488D01*
X0201584Y0097687D02*
X0199200Y0097687D01*
X0199200Y0098885D02*
X0202081Y0098885D01*
X0202942Y0100084D02*
X0199200Y0100084D01*
X0199200Y0101282D02*
X0204708Y0101282D01*
X0203577Y0102481D02*
X0199200Y0102481D01*
X0199200Y0103679D02*
X0202379Y0103679D01*
X0201847Y0104878D02*
X0199200Y0104878D01*
X0199200Y0106076D02*
X0201550Y0106076D01*
X0201550Y0107275D02*
X0199200Y0107275D01*
X0199200Y0108473D02*
X0201910Y0108473D01*
X0202530Y0109672D02*
X0199200Y0109672D01*
X0199200Y0110870D02*
X0203729Y0110870D01*
X0204343Y0112069D02*
X0199200Y0112069D01*
X0199200Y0113268D02*
X0202791Y0113268D01*
X0202018Y0114466D02*
X0199200Y0114466D01*
X0199200Y0115665D02*
X0201550Y0115665D01*
X0201550Y0116863D02*
X0199200Y0116863D01*
X0199200Y0118062D02*
X0201739Y0118062D01*
X0202236Y0119260D02*
X0199200Y0119260D01*
X0199200Y0120459D02*
X0203317Y0120459D01*
X0205337Y0121657D02*
X0199200Y0121657D01*
X0199200Y0122856D02*
X0203203Y0122856D01*
X0202188Y0124054D02*
X0199200Y0124054D01*
X0199200Y0125253D02*
X0201692Y0125253D01*
X0201550Y0126451D02*
X0199200Y0126451D01*
X0199200Y0127650D02*
X0201569Y0127650D01*
X0202065Y0128848D02*
X0199200Y0128848D01*
X0199200Y0130047D02*
X0202905Y0130047D01*
X0204618Y0131245D02*
X0199200Y0131245D01*
X0199200Y0132444D02*
X0203615Y0132444D01*
X0202416Y0133642D02*
X0199200Y0133642D01*
X0199200Y0134841D02*
X0201863Y0134841D01*
X0201550Y0136039D02*
X0199200Y0136039D01*
X0199200Y0137238D02*
X0201550Y0137238D01*
X0201895Y0138436D02*
X0199200Y0138436D01*
X0199200Y0139635D02*
X0202493Y0139635D01*
X0203691Y0140833D02*
X0199200Y0140833D01*
X0199200Y0142032D02*
X0204432Y0142032D01*
X0202828Y0143230D02*
X0199200Y0143230D01*
X0199200Y0144429D02*
X0202033Y0144429D01*
X0201550Y0145627D02*
X0199200Y0145627D01*
X0199200Y0146826D02*
X0201550Y0146826D01*
X0201724Y0148024D02*
X0199200Y0148024D01*
X0199200Y0149223D02*
X0202220Y0149223D01*
X0203280Y0150421D02*
X0199200Y0150421D01*
X0199200Y0151620D02*
X0205427Y0151620D01*
X0203240Y0152818D02*
X0199200Y0152818D01*
X0199200Y0154017D02*
X0202204Y0154017D01*
X0201707Y0155215D02*
X0199200Y0155215D01*
X0199200Y0156414D02*
X0201550Y0156414D01*
X0201553Y0157612D02*
X0199200Y0157612D01*
X0199200Y0158811D02*
X0202050Y0158811D01*
X0202868Y0160009D02*
X0199200Y0160009D01*
X0199200Y0161208D02*
X0204528Y0161208D01*
X0203652Y0162406D02*
X0199200Y0162406D01*
X0199200Y0163605D02*
X0202453Y0163605D01*
X0201878Y0164803D02*
X0199200Y0164803D01*
X0199200Y0166002D02*
X0201550Y0166002D01*
X0201550Y0167201D02*
X0199200Y0167201D01*
X0199200Y0168399D02*
X0201879Y0168399D01*
X0202456Y0169598D02*
X0199200Y0169598D01*
X0199200Y0170796D02*
X0203654Y0170796D01*
X0204522Y0171995D02*
X0199200Y0171995D01*
X0199200Y0173193D02*
X0202865Y0173193D01*
X0202049Y0174392D02*
X0199200Y0174392D01*
X0199200Y0175590D02*
X0201552Y0175590D01*
X0201550Y0176789D02*
X0199200Y0176789D01*
X0199200Y0177987D02*
X0201708Y0177987D01*
X0202205Y0179186D02*
X0199200Y0179186D01*
X0199200Y0180384D02*
X0203242Y0180384D01*
X0203277Y0182781D02*
X0198925Y0182781D01*
X0199200Y0181583D02*
X0205433Y0181583D01*
X0202219Y0183980D02*
X0197897Y0183980D01*
X0196699Y0185178D02*
X0201723Y0185178D01*
X0201550Y0186377D02*
X0195500Y0186377D01*
X0194302Y0187575D02*
X0201550Y0187575D01*
X0202034Y0188774D02*
X0193103Y0188774D01*
X0191905Y0189972D02*
X0202830Y0189972D01*
X0204438Y0191171D02*
X0190706Y0191171D01*
X0189508Y0192369D02*
X0203689Y0192369D01*
X0202490Y0193568D02*
X0188309Y0193568D01*
X0187111Y0194766D02*
X0201893Y0194766D01*
X0201550Y0195965D02*
X0185912Y0195965D01*
X0184714Y0197163D02*
X0201550Y0197163D01*
X0201864Y0198362D02*
X0183515Y0198362D01*
X0182317Y0199560D02*
X0202419Y0199560D01*
X0203617Y0200759D02*
X0181118Y0200759D01*
X0179920Y0201957D02*
X0204612Y0201957D01*
X0202902Y0203156D02*
X0178721Y0203156D01*
X0177523Y0204354D02*
X0202064Y0204354D01*
X0201568Y0205553D02*
X0176324Y0205553D01*
X0175126Y0206751D02*
X0201550Y0206751D01*
X0201693Y0207950D02*
X0173927Y0207950D01*
X0172729Y0209148D02*
X0202190Y0209148D01*
X0203205Y0210347D02*
X0171530Y0210347D01*
X0170331Y0211545D02*
X0205343Y0211545D01*
X0203314Y0212744D02*
X0169133Y0212744D01*
X0167739Y0213942D02*
X0202235Y0213942D01*
X0201738Y0215141D02*
X0123535Y0215141D01*
X0122337Y0213942D02*
X0140461Y0213942D01*
X0139067Y0212744D02*
X0121138Y0212744D01*
X0119940Y0211545D02*
X0137868Y0211545D01*
X0136670Y0210347D02*
X0118741Y0210347D01*
X0116600Y0211600D02*
X0106600Y0211600D01*
X0101600Y0206600D01*
X0101600Y0196600D01*
X0091600Y0186600D01*
X0171600Y0186600D01*
X0178558Y0195965D02*
X0103935Y0195965D01*
X0104000Y0197163D02*
X0116991Y0197163D01*
X0116550Y0198362D02*
X0104000Y0198362D01*
X0104000Y0199560D02*
X0116550Y0199560D01*
X0116550Y0200759D02*
X0104000Y0200759D01*
X0104000Y0201957D02*
X0116550Y0201957D01*
X0116550Y0203156D02*
X0104000Y0203156D01*
X0104000Y0204354D02*
X0116550Y0204354D01*
X0116550Y0205553D02*
X0104000Y0205553D01*
X0105145Y0206751D02*
X0133074Y0206751D01*
X0134273Y0207950D02*
X0106344Y0207950D01*
X0107543Y0209148D02*
X0135471Y0209148D01*
X0140428Y0206751D02*
X0167772Y0206751D01*
X0168970Y0205553D02*
X0144411Y0205553D01*
X0144142Y0205748D02*
X0143462Y0206095D01*
X0142736Y0206331D01*
X0142025Y0206443D01*
X0142025Y0202025D01*
X0141175Y0202025D01*
X0141175Y0201175D01*
X0142025Y0201175D01*
X0142025Y0202025D01*
X0146443Y0202025D01*
X0146331Y0202736D01*
X0146095Y0203462D01*
X0145748Y0204142D01*
X0145299Y0204760D01*
X0144760Y0205299D01*
X0144142Y0205748D01*
X0145594Y0204354D02*
X0170169Y0204354D01*
X0171367Y0203156D02*
X0146194Y0203156D01*
X0146443Y0201175D02*
X0142025Y0201175D01*
X0142025Y0196757D01*
X0142736Y0196869D01*
X0143462Y0197105D01*
X0144142Y0197452D01*
X0144760Y0197901D01*
X0145299Y0198440D01*
X0145748Y0199058D01*
X0146095Y0199738D01*
X0146331Y0200464D01*
X0146443Y0201175D01*
X0146377Y0200759D02*
X0173764Y0200759D01*
X0172566Y0201957D02*
X0142025Y0201957D01*
X0141175Y0201957D02*
X0136650Y0201957D01*
X0136757Y0201175D02*
X0136869Y0200464D01*
X0137105Y0199738D01*
X0137452Y0199058D01*
X0137901Y0198440D01*
X0138440Y0197901D01*
X0139058Y0197452D01*
X0139738Y0197105D01*
X0140464Y0196869D01*
X0141175Y0196757D01*
X0141175Y0201175D01*
X0136757Y0201175D01*
X0136823Y0200759D02*
X0136650Y0200759D01*
X0136221Y0199560D02*
X0137196Y0199560D01*
X0137979Y0198362D02*
X0135504Y0198362D01*
X0134085Y0197163D02*
X0139624Y0197163D01*
X0141175Y0197163D02*
X0142025Y0197163D01*
X0142025Y0198362D02*
X0141175Y0198362D01*
X0141175Y0199560D02*
X0142025Y0199560D01*
X0142025Y0200759D02*
X0141175Y0200759D01*
X0141175Y0203156D02*
X0142025Y0203156D01*
X0142025Y0204354D02*
X0141175Y0204354D01*
X0141175Y0205553D02*
X0142025Y0205553D01*
X0141627Y0207950D02*
X0166573Y0207950D01*
X0174963Y0199560D02*
X0146004Y0199560D01*
X0145221Y0198362D02*
X0176161Y0198362D01*
X0177360Y0197163D02*
X0143576Y0197163D01*
X0137006Y0203156D02*
X0136833Y0203156D01*
X0128411Y0205553D02*
X0126650Y0205553D01*
X0126650Y0204354D02*
X0127275Y0204354D01*
X0126778Y0203156D02*
X0126650Y0203156D01*
X0126650Y0199560D02*
X0126979Y0199560D01*
X0126650Y0198362D02*
X0127696Y0198362D01*
X0129115Y0197163D02*
X0126209Y0197163D01*
X0116600Y0211600D02*
X0131600Y0226600D01*
X0134620Y0230722D02*
X0138580Y0230722D01*
X0137381Y0229523D02*
X0135819Y0229523D01*
X0136352Y0228325D02*
X0136848Y0228325D01*
X0136909Y0224729D02*
X0136291Y0224729D01*
X0135672Y0223531D02*
X0137528Y0223531D01*
X0138726Y0222332D02*
X0134474Y0222332D01*
X0129528Y0221134D02*
X0204349Y0221134D01*
X0203726Y0222332D02*
X0173837Y0222332D01*
X0175036Y0223531D02*
X0202528Y0223531D01*
X0201909Y0224729D02*
X0176200Y0224729D01*
X0176200Y0225928D02*
X0201550Y0225928D01*
X0201550Y0227126D02*
X0176200Y0227126D01*
X0176200Y0228325D02*
X0201848Y0228325D01*
X0202381Y0229523D02*
X0175182Y0229523D01*
X0173984Y0230722D02*
X0203580Y0230722D01*
X0204702Y0231920D02*
X0080314Y0231920D01*
X0079116Y0230722D02*
X0116676Y0230722D01*
X0116550Y0229523D02*
X0077917Y0229523D01*
X0076719Y0228325D02*
X0116550Y0228325D01*
X0116550Y0227126D02*
X0075520Y0227126D01*
X0074322Y0225928D02*
X0116550Y0225928D01*
X0116550Y0224729D02*
X0073123Y0224729D01*
X0071925Y0223531D02*
X0116550Y0223531D01*
X0116822Y0222332D02*
X0070726Y0222332D01*
X0069528Y0221134D02*
X0122739Y0221134D01*
X0121541Y0219935D02*
X0069000Y0219935D01*
X0069000Y0218737D02*
X0120342Y0218737D01*
X0119144Y0217538D02*
X0069000Y0217538D01*
X0069000Y0216339D02*
X0117945Y0216339D01*
X0116747Y0215141D02*
X0069000Y0215141D01*
X0069000Y0213942D02*
X0105984Y0213942D01*
X0104350Y0212744D02*
X0069000Y0212744D01*
X0069000Y0211545D02*
X0103151Y0211545D01*
X0101953Y0210347D02*
X0069000Y0210347D01*
X0069000Y0209148D02*
X0100754Y0209148D01*
X0099561Y0207950D02*
X0069000Y0207950D01*
X0069000Y0206751D02*
X0099200Y0206751D01*
X0099200Y0205553D02*
X0069000Y0205553D01*
X0069000Y0204354D02*
X0099200Y0204354D01*
X0099200Y0203156D02*
X0069000Y0203156D01*
X0069000Y0201957D02*
X0099200Y0201957D01*
X0099200Y0200759D02*
X0069000Y0200759D01*
X0069513Y0199560D02*
X0099200Y0199560D01*
X0099200Y0198362D02*
X0070000Y0198362D01*
X0070000Y0197163D02*
X0098769Y0197163D01*
X0097571Y0195965D02*
X0070000Y0195965D01*
X0070000Y0194766D02*
X0096372Y0194766D01*
X0095174Y0193568D02*
X0069973Y0193568D01*
X0069468Y0192369D02*
X0093975Y0192369D01*
X0092777Y0191171D02*
X0067907Y0191171D01*
X0066622Y0189972D02*
X0091578Y0189972D01*
X0091600Y0186600D02*
X0066600Y0186600D01*
X0061600Y0191600D01*
X0061600Y0196009D01*
X0060077Y0200759D02*
X0058123Y0200759D01*
X0055077Y0200759D02*
X0054000Y0200759D01*
X0054000Y0201957D02*
X0064200Y0201957D01*
X0064200Y0200759D02*
X0063123Y0200759D01*
X0064200Y0203156D02*
X0054000Y0203156D01*
X0054000Y0204354D02*
X0064200Y0204354D01*
X0064200Y0205553D02*
X0054000Y0205553D01*
X0054000Y0206751D02*
X0064200Y0206751D01*
X0064200Y0207950D02*
X0054000Y0207950D01*
X0054000Y0209148D02*
X0064200Y0209148D01*
X0064200Y0210347D02*
X0054000Y0210347D01*
X0054000Y0211545D02*
X0064200Y0211545D01*
X0064200Y0212744D02*
X0054000Y0212744D01*
X0054000Y0213942D02*
X0064200Y0213942D01*
X0064200Y0215141D02*
X0054000Y0215141D01*
X0054000Y0216339D02*
X0064200Y0216339D01*
X0064200Y0217538D02*
X0054000Y0217538D01*
X0054000Y0218737D02*
X0064200Y0218737D01*
X0064200Y0219935D02*
X0054000Y0219935D01*
X0054000Y0221134D02*
X0064200Y0221134D01*
X0064305Y0222332D02*
X0054000Y0222332D01*
X0054000Y0223531D02*
X0065136Y0223531D01*
X0066335Y0224729D02*
X0054000Y0224729D01*
X0054000Y0225928D02*
X0067533Y0225928D01*
X0068732Y0227126D02*
X0054000Y0227126D01*
X0054000Y0228325D02*
X0069930Y0228325D01*
X0071129Y0229523D02*
X0054000Y0229523D01*
X0054000Y0230722D02*
X0072328Y0230722D01*
X0073526Y0231920D02*
X0054000Y0231920D01*
X0054000Y0233119D02*
X0074725Y0233119D01*
X0075923Y0234317D02*
X0054000Y0234317D01*
X0054000Y0235516D02*
X0077122Y0235516D01*
X0078320Y0236714D02*
X0054000Y0236714D01*
X0054000Y0237913D02*
X0079519Y0237913D01*
X0081600Y0236600D02*
X0206600Y0236600D01*
X0202940Y0233119D02*
X0081513Y0233119D01*
X0081600Y0236600D02*
X0066600Y0221600D01*
X0066600Y0196009D01*
X0056600Y0196009D02*
X0056600Y0186600D01*
X0061600Y0181600D01*
X0156600Y0181600D01*
X0171600Y0166600D01*
X0168090Y0163605D02*
X0066999Y0163605D01*
X0065801Y0162406D02*
X0169000Y0162406D01*
X0169000Y0161208D02*
X0064602Y0161208D01*
X0063404Y0160009D02*
X0169000Y0160009D01*
X0169000Y0158811D02*
X0031150Y0158811D01*
X0031647Y0157612D02*
X0169000Y0157612D01*
X0169000Y0156414D02*
X0031650Y0156414D01*
X0031493Y0155215D02*
X0169000Y0155215D01*
X0169000Y0154017D02*
X0030996Y0154017D01*
X0029960Y0152818D02*
X0169000Y0152818D01*
X0169000Y0151620D02*
X0027773Y0151620D01*
X0029920Y0150421D02*
X0169000Y0150421D01*
X0169000Y0149223D02*
X0030980Y0149223D01*
X0031476Y0148024D02*
X0169000Y0148024D01*
X0169000Y0146826D02*
X0031650Y0146826D01*
X0031650Y0145627D02*
X0169000Y0145627D01*
X0169000Y0144429D02*
X0031167Y0144429D01*
X0030372Y0143230D02*
X0169000Y0143230D01*
X0169000Y0142032D02*
X0028768Y0142032D01*
X0029509Y0140833D02*
X0169000Y0140833D01*
X0169000Y0139635D02*
X0030707Y0139635D01*
X0031305Y0138436D02*
X0169000Y0138436D01*
X0169000Y0137238D02*
X0031650Y0137238D01*
X0031650Y0136039D02*
X0169000Y0136039D01*
X0169000Y0134841D02*
X0031337Y0134841D01*
X0030784Y0133642D02*
X0169000Y0133642D01*
X0169000Y0132444D02*
X0029585Y0132444D01*
X0028582Y0131245D02*
X0169000Y0131245D01*
X0169000Y0130047D02*
X0030295Y0130047D01*
X0031135Y0128848D02*
X0169000Y0128848D01*
X0169000Y0127650D02*
X0031631Y0127650D01*
X0031650Y0126451D02*
X0169000Y0126451D01*
X0169000Y0125253D02*
X0031508Y0125253D01*
X0031012Y0124054D02*
X0169000Y0124054D01*
X0169000Y0122856D02*
X0029997Y0122856D01*
X0029883Y0120459D02*
X0169000Y0120459D01*
X0169000Y0121657D02*
X0027863Y0121657D01*
X0030964Y0119260D02*
X0169000Y0119260D01*
X0169000Y0118062D02*
X0031461Y0118062D01*
X0031650Y0116863D02*
X0169000Y0116863D01*
X0169000Y0115665D02*
X0031650Y0115665D01*
X0031182Y0114466D02*
X0169000Y0114466D01*
X0169000Y0113268D02*
X0030409Y0113268D01*
X0028857Y0112069D02*
X0169000Y0112069D01*
X0169000Y0110870D02*
X0029471Y0110870D01*
X0030670Y0109672D02*
X0169000Y0109672D01*
X0169000Y0108473D02*
X0031290Y0108473D01*
X0031650Y0107275D02*
X0169000Y0107275D01*
X0169000Y0106076D02*
X0031650Y0106076D01*
X0031353Y0104878D02*
X0169000Y0104878D01*
X0169000Y0103679D02*
X0030821Y0103679D01*
X0029623Y0102481D02*
X0169000Y0102481D01*
X0169000Y0101282D02*
X0028492Y0101282D01*
X0030258Y0100084D02*
X0169000Y0100084D01*
X0169000Y0098885D02*
X0031119Y0098885D01*
X0031616Y0097687D02*
X0169000Y0097687D01*
X0169000Y0096488D02*
X0031650Y0096488D01*
X0031523Y0095290D02*
X0169000Y0095290D01*
X0169000Y0094091D02*
X0031027Y0094091D01*
X0030035Y0092893D02*
X0169000Y0092893D01*
X0169000Y0091694D02*
X0027953Y0091694D01*
X0029846Y0090496D02*
X0169000Y0090496D01*
X0169000Y0089297D02*
X0030949Y0089297D01*
X0031445Y0088099D02*
X0169000Y0088099D01*
X0169000Y0086900D02*
X0031650Y0086900D01*
X0031650Y0085702D02*
X0169000Y0085702D01*
X0169000Y0084503D02*
X0031198Y0084503D01*
X0030447Y0083305D02*
X0169000Y0083305D01*
X0169000Y0082106D02*
X0028947Y0082106D01*
X0029397Y0080908D02*
X0169000Y0080908D01*
X0169000Y0079709D02*
X0030633Y0079709D01*
X0031275Y0078511D02*
X0169000Y0078511D01*
X0169000Y0077312D02*
X0031650Y0077312D01*
X0031650Y0076114D02*
X0169000Y0076114D01*
X0169000Y0074915D02*
X0031368Y0074915D01*
X0030858Y0073717D02*
X0169000Y0073717D01*
X0169000Y0062930D02*
X0035453Y0062930D01*
X0036451Y0061732D02*
X0169000Y0061732D01*
X0169000Y0060533D02*
X0036451Y0060533D01*
X0036451Y0059334D02*
X0169000Y0059334D01*
X0169000Y0058136D02*
X0036451Y0058136D01*
X0036451Y0056937D02*
X0169000Y0056937D01*
X0169000Y0055739D02*
X0036451Y0055739D01*
X0036451Y0054540D02*
X0169000Y0054540D01*
X0169000Y0053342D02*
X0036451Y0053342D01*
X0036451Y0052143D02*
X0169000Y0052143D01*
X0168893Y0050945D02*
X0164307Y0050945D01*
X0165595Y0049746D02*
X0167605Y0049746D01*
X0166941Y0048548D02*
X0166259Y0048548D01*
X0162680Y0041357D02*
X0034747Y0041357D01*
X0035686Y0040158D02*
X0161481Y0040158D01*
X0158503Y0042555D02*
X0154697Y0042555D01*
X0155887Y0043754D02*
X0157313Y0043754D01*
X0156816Y0044952D02*
X0156384Y0044952D01*
X0156259Y0048548D02*
X0156941Y0048548D01*
X0157605Y0049746D02*
X0155595Y0049746D01*
X0154307Y0050945D02*
X0158893Y0050945D01*
X0148893Y0050945D02*
X0144307Y0050945D01*
X0145595Y0049746D02*
X0147605Y0049746D01*
X0146941Y0048548D02*
X0146259Y0048548D01*
X0146384Y0044952D02*
X0146816Y0044952D01*
X0147313Y0043754D02*
X0145887Y0043754D01*
X0144697Y0042555D02*
X0148503Y0042555D01*
X0138503Y0042555D02*
X0134697Y0042555D01*
X0135887Y0043754D02*
X0137313Y0043754D01*
X0136816Y0044952D02*
X0136384Y0044952D01*
X0136259Y0048548D02*
X0136941Y0048548D01*
X0137605Y0049746D02*
X0135595Y0049746D01*
X0134307Y0050945D02*
X0138893Y0050945D01*
X0128893Y0050945D02*
X0035813Y0050945D01*
X0033263Y0042555D02*
X0128503Y0042555D01*
X0127313Y0043754D02*
X0024200Y0043754D01*
X0024200Y0044952D02*
X0126816Y0044952D01*
X0126550Y0046151D02*
X0024200Y0046151D01*
X0024200Y0047349D02*
X0126550Y0047349D01*
X0126941Y0048548D02*
X0024200Y0048548D01*
X0024200Y0049746D02*
X0127605Y0049746D01*
X0209660Y0072518D02*
X0213540Y0072518D01*
X0212342Y0073717D02*
X0210858Y0073717D01*
X0211368Y0074915D02*
X0211832Y0074915D01*
X0167000Y0164803D02*
X0068198Y0164803D01*
X0068950Y0166002D02*
X0167000Y0166002D01*
X0167000Y0167201D02*
X0069000Y0167201D01*
X0069658Y0168399D02*
X0166407Y0168399D01*
X0165208Y0169598D02*
X0070000Y0169598D01*
X0070000Y0170796D02*
X0164010Y0170796D01*
X0162811Y0171995D02*
X0070000Y0171995D01*
X0070000Y0173193D02*
X0161613Y0173193D01*
X0160414Y0174392D02*
X0069828Y0174392D01*
X0069118Y0175590D02*
X0159216Y0175590D01*
X0158017Y0176789D02*
X0059000Y0176789D01*
X0059118Y0175590D02*
X0059365Y0175590D01*
X0061400Y0175590D02*
X0061800Y0175590D01*
X0061800Y0174392D02*
X0061400Y0174392D01*
X0061400Y0173193D02*
X0061800Y0173193D01*
X0061800Y0171995D02*
X0061400Y0171995D01*
X0061400Y0171400D02*
X0061800Y0171400D01*
X0061800Y0166700D01*
X0061915Y0166700D01*
X0062533Y0166823D01*
X0063116Y0167064D01*
X0063640Y0167414D01*
X0063959Y0167733D01*
X0064149Y0167543D01*
X0060606Y0164000D01*
X0042594Y0164000D01*
X0031459Y0175135D01*
X0031650Y0175595D01*
X0031650Y0177605D01*
X0030881Y0179461D01*
X0029461Y0180881D01*
X0027725Y0181600D01*
X0029461Y0182319D01*
X0030881Y0183739D01*
X0031072Y0184200D01*
X0035606Y0184200D01*
X0048200Y0171606D01*
X0048200Y0169224D01*
X0048718Y0167974D01*
X0049674Y0167018D01*
X0050924Y0166500D01*
X0052276Y0166500D01*
X0053526Y0167018D01*
X0054100Y0167592D01*
X0054674Y0167018D01*
X0055924Y0166500D01*
X0057276Y0166500D01*
X0058526Y0167018D01*
X0059241Y0167733D01*
X0059560Y0167414D01*
X0060084Y0167064D01*
X0060667Y0166823D01*
X0061285Y0166700D01*
X0061400Y0166700D01*
X0061400Y0171400D01*
X0061400Y0170796D02*
X0061800Y0170796D01*
X0061800Y0169598D02*
X0061400Y0169598D01*
X0061400Y0168399D02*
X0061800Y0168399D01*
X0061800Y0167201D02*
X0061400Y0167201D01*
X0059880Y0167201D02*
X0058709Y0167201D01*
X0061409Y0164803D02*
X0041791Y0164803D01*
X0040592Y0166002D02*
X0062608Y0166002D01*
X0063320Y0167201D02*
X0063806Y0167201D01*
X0066600Y0166600D02*
X0066600Y0171600D01*
X0064082Y0175590D02*
X0063835Y0175590D01*
X0058607Y0177987D02*
X0156819Y0177987D01*
X0155620Y0179186D02*
X0057408Y0179186D01*
X0056210Y0180384D02*
X0059422Y0180384D01*
X0058223Y0181583D02*
X0055011Y0181583D01*
X0054000Y0182781D02*
X0057025Y0182781D01*
X0055826Y0183980D02*
X0054000Y0183980D01*
X0054000Y0185178D02*
X0054628Y0185178D01*
X0054200Y0186377D02*
X0054000Y0186377D01*
X0054000Y0187575D02*
X0054200Y0187575D01*
X0054200Y0188774D02*
X0054000Y0188774D01*
X0054000Y0189972D02*
X0054200Y0189972D01*
X0054200Y0191171D02*
X0054000Y0191171D01*
X0051600Y0196009D02*
X0051600Y0261600D01*
X0026600Y0286600D01*
X0026175Y0293044D02*
X0027025Y0293044D01*
X0027025Y0294243D02*
X0026175Y0294243D01*
X0026175Y0295441D02*
X0027025Y0295441D01*
X0027025Y0296640D02*
X0049800Y0296640D01*
X0049800Y0297838D02*
X0031297Y0297838D01*
X0030802Y0299037D02*
X0049800Y0299037D01*
X0049800Y0300235D02*
X0029824Y0300235D01*
X0027025Y0300235D02*
X0026175Y0300235D01*
X0026175Y0299037D02*
X0027025Y0299037D01*
X0027025Y0297838D02*
X0026175Y0297838D01*
X0026175Y0296640D02*
X0017025Y0296640D01*
X0017025Y0297838D02*
X0016175Y0297838D01*
X0016175Y0299037D02*
X0017025Y0299037D01*
X0017025Y0300235D02*
X0016175Y0300235D01*
X0016175Y0301434D02*
X0017025Y0301434D01*
X0011750Y0295441D02*
X0003400Y0295441D01*
X0003400Y0294243D02*
X0011750Y0294243D01*
X0011775Y0293044D02*
X0003400Y0293044D01*
X0003400Y0291846D02*
X0012782Y0291846D01*
X0003400Y0303831D02*
X0049800Y0303831D01*
X0049800Y0295441D02*
X0031323Y0295441D01*
X0030842Y0294243D02*
X0049800Y0294243D01*
X0049800Y0293044D02*
X0029903Y0293044D01*
X0035535Y0281059D02*
X0204169Y0281059D01*
X0202719Y0279861D02*
X0036734Y0279861D01*
X0037932Y0278662D02*
X0201988Y0278662D01*
X0201550Y0277464D02*
X0039131Y0277464D01*
X0040329Y0276265D02*
X0201550Y0276265D01*
X0201769Y0275067D02*
X0041528Y0275067D01*
X0042726Y0273868D02*
X0202266Y0273868D01*
X0203389Y0272670D02*
X0043925Y0272670D01*
X0045123Y0271471D02*
X0205163Y0271471D01*
X0203131Y0270272D02*
X0046322Y0270272D01*
X0047520Y0269074D02*
X0202159Y0269074D01*
X0201662Y0267875D02*
X0048719Y0267875D01*
X0049917Y0266677D02*
X0201550Y0266677D01*
X0201598Y0265478D02*
X0051116Y0265478D01*
X0052314Y0264280D02*
X0202095Y0264280D01*
X0202977Y0263081D02*
X0053513Y0263081D01*
X0054000Y0261883D02*
X0204792Y0261883D01*
X0203543Y0260684D02*
X0054000Y0260684D01*
X0054000Y0259486D02*
X0202344Y0259486D01*
X0201833Y0258287D02*
X0054000Y0258287D01*
X0054000Y0257089D02*
X0201550Y0257089D01*
X0201550Y0255890D02*
X0054000Y0255890D01*
X0054000Y0254692D02*
X0201924Y0254692D01*
X0202565Y0253493D02*
X0054000Y0253493D01*
X0054000Y0252295D02*
X0203797Y0252295D01*
X0204259Y0251096D02*
X0054000Y0251096D01*
X0054000Y0249898D02*
X0202756Y0249898D01*
X0202003Y0248699D02*
X0054000Y0248699D01*
X0054000Y0247501D02*
X0201550Y0247501D01*
X0201550Y0246302D02*
X0054000Y0246302D01*
X0054000Y0245104D02*
X0201754Y0245104D01*
X0202250Y0243905D02*
X0054000Y0243905D01*
X0054000Y0242707D02*
X0203351Y0242707D01*
X0205253Y0241508D02*
X0054000Y0241508D01*
X0054000Y0240310D02*
X0203168Y0240310D01*
X0202174Y0239111D02*
X0054000Y0239111D01*
X0051600Y0196009D02*
X0051600Y0181600D01*
X0056600Y0176600D01*
X0056600Y0171600D01*
X0054491Y0167201D02*
X0053709Y0167201D01*
X0051600Y0171600D02*
X0036600Y0186600D01*
X0026600Y0186600D01*
X0029923Y0182781D02*
X0037025Y0182781D01*
X0038223Y0181583D02*
X0027767Y0181583D01*
X0029958Y0180384D02*
X0039422Y0180384D01*
X0040620Y0179186D02*
X0030995Y0179186D01*
X0031492Y0177987D02*
X0041819Y0177987D01*
X0043017Y0176789D02*
X0031650Y0176789D01*
X0031648Y0175590D02*
X0044216Y0175590D01*
X0045414Y0174392D02*
X0032203Y0174392D01*
X0033401Y0173193D02*
X0046613Y0173193D01*
X0047811Y0171995D02*
X0034600Y0171995D01*
X0035798Y0170796D02*
X0048200Y0170796D01*
X0048200Y0169598D02*
X0036997Y0169598D01*
X0038195Y0168399D02*
X0048542Y0168399D01*
X0049491Y0167201D02*
X0039394Y0167201D01*
X0036201Y0163605D02*
X0030747Y0163605D01*
X0031322Y0164803D02*
X0035002Y0164803D01*
X0033804Y0166002D02*
X0031650Y0166002D01*
X0031650Y0167201D02*
X0032605Y0167201D01*
X0031407Y0168399D02*
X0031321Y0168399D01*
X0029548Y0162406D02*
X0037399Y0162406D01*
X0038598Y0161208D02*
X0028672Y0161208D01*
X0030332Y0160009D02*
X0039796Y0160009D01*
X0041600Y0161600D02*
X0026600Y0176600D01*
X0030981Y0183980D02*
X0035826Y0183980D01*
X0041600Y0161600D02*
X0061600Y0161600D01*
X0066600Y0166600D01*
X0098366Y0189972D02*
X0184551Y0189972D01*
X0183352Y0191171D02*
X0099565Y0191171D01*
X0100763Y0192369D02*
X0182154Y0192369D01*
X0180955Y0193568D02*
X0101962Y0193568D01*
X0103160Y0194766D02*
X0179757Y0194766D01*
X0169363Y0222332D02*
X0144474Y0222332D01*
X0145672Y0223531D02*
X0168164Y0223531D01*
X0171600Y0226600D02*
X0141600Y0226600D01*
X0144620Y0230722D02*
X0169216Y0230722D01*
X0168018Y0229523D02*
X0145819Y0229523D01*
X0128580Y0230722D02*
X0126524Y0230722D01*
X0126650Y0229523D02*
X0127381Y0229523D01*
X0126848Y0228325D02*
X0126650Y0228325D01*
X0128329Y0219935D02*
X0202793Y0219935D01*
X0202019Y0218737D02*
X0127131Y0218737D01*
X0125932Y0217538D02*
X0201550Y0217538D01*
X0201550Y0216339D02*
X0124734Y0216339D01*
X0217947Y0241508D02*
X0228501Y0241508D01*
X0027181Y0042555D02*
X0024200Y0042555D01*
X0024200Y0041357D02*
X0025697Y0041357D01*
X0024758Y0040158D02*
X0024200Y0040158D01*
X0024200Y0038960D02*
X0024261Y0038960D01*
X0024622Y0050945D02*
X0024631Y0050945D01*
X0025007Y0020982D02*
X0003400Y0020982D01*
X0003400Y0019784D02*
X0024472Y0019784D01*
X0023993Y0018585D02*
X0003400Y0018585D01*
X0003400Y0017387D02*
X0023993Y0017387D01*
X0023993Y0016188D02*
X0003400Y0016188D01*
X0003400Y0014990D02*
X0024473Y0014990D01*
X0025009Y0013791D02*
X0003400Y0013791D01*
X0003400Y0012593D02*
X0026208Y0012593D01*
X0015427Y0151620D02*
X0003400Y0151620D01*
D17*
X0026757Y0056757D02*
X0021600Y0051600D01*
X0021600Y0031600D01*
X0026600Y0026600D01*
X0171600Y0026600D01*
X0191600Y0046600D01*
X0196600Y0061600D02*
X0196600Y0181600D01*
X0166600Y0211600D01*
X0141600Y0211600D01*
X0131600Y0201600D01*
X0171600Y0166600D02*
X0171600Y0046600D01*
X0162072Y0037072D01*
X0030222Y0037072D01*
X0030222Y0056757D02*
X0026757Y0056757D01*
X0030222Y0017387D02*
X0182387Y0017387D01*
X0211600Y0046600D01*
X0196600Y0061600D01*
M02*
