G75*
%MOIN*%
%OFA0B0*%
%FSLAX25Y25*%
%IPPOS*%
%LPD*%
%AMOC8*
5,1,8,0,0,1.08239X$1,22.5*
%
%ADD10C,0.00500*%
D10*
X0065016Y0176000D02*
X0065018Y0176062D01*
X0065024Y0176125D01*
X0065034Y0176186D01*
X0065048Y0176247D01*
X0065065Y0176307D01*
X0065086Y0176366D01*
X0065112Y0176423D01*
X0065140Y0176478D01*
X0065172Y0176532D01*
X0065208Y0176583D01*
X0065246Y0176633D01*
X0065288Y0176679D01*
X0065332Y0176723D01*
X0065380Y0176764D01*
X0065429Y0176802D01*
X0065481Y0176836D01*
X0065535Y0176867D01*
X0065591Y0176895D01*
X0065649Y0176919D01*
X0065708Y0176940D01*
X0065768Y0176956D01*
X0065829Y0176969D01*
X0065891Y0176978D01*
X0065953Y0176983D01*
X0066016Y0176984D01*
X0066078Y0176981D01*
X0066140Y0176974D01*
X0066202Y0176963D01*
X0066262Y0176948D01*
X0066322Y0176930D01*
X0066380Y0176908D01*
X0066437Y0176882D01*
X0066492Y0176852D01*
X0066545Y0176819D01*
X0066596Y0176783D01*
X0066644Y0176744D01*
X0066690Y0176701D01*
X0066733Y0176656D01*
X0066773Y0176608D01*
X0066810Y0176558D01*
X0066844Y0176505D01*
X0066875Y0176451D01*
X0066901Y0176395D01*
X0066925Y0176337D01*
X0066944Y0176277D01*
X0066960Y0176217D01*
X0066972Y0176155D01*
X0066980Y0176094D01*
X0066984Y0176031D01*
X0066984Y0175969D01*
X0066980Y0175906D01*
X0066972Y0175845D01*
X0066960Y0175783D01*
X0066944Y0175723D01*
X0066925Y0175663D01*
X0066901Y0175605D01*
X0066875Y0175549D01*
X0066844Y0175495D01*
X0066810Y0175442D01*
X0066773Y0175392D01*
X0066733Y0175344D01*
X0066690Y0175299D01*
X0066644Y0175256D01*
X0066596Y0175217D01*
X0066545Y0175181D01*
X0066492Y0175148D01*
X0066437Y0175118D01*
X0066380Y0175092D01*
X0066322Y0175070D01*
X0066262Y0175052D01*
X0066202Y0175037D01*
X0066140Y0175026D01*
X0066078Y0175019D01*
X0066016Y0175016D01*
X0065953Y0175017D01*
X0065891Y0175022D01*
X0065829Y0175031D01*
X0065768Y0175044D01*
X0065708Y0175060D01*
X0065649Y0175081D01*
X0065591Y0175105D01*
X0065535Y0175133D01*
X0065481Y0175164D01*
X0065429Y0175198D01*
X0065380Y0175236D01*
X0065332Y0175277D01*
X0065288Y0175321D01*
X0065246Y0175367D01*
X0065208Y0175417D01*
X0065172Y0175468D01*
X0065140Y0175522D01*
X0065112Y0175577D01*
X0065086Y0175634D01*
X0065065Y0175693D01*
X0065048Y0175753D01*
X0065034Y0175814D01*
X0065024Y0175875D01*
X0065018Y0175938D01*
X0065016Y0176000D01*
M02*
