G75*
%MOIN*%
%OFA0B0*%
%FSLAX25Y25*%
%IPPOS*%
%LPD*%
%AMOC8*
5,1,8,0,0,1.08239X$1,22.5*
%
%ADD10C,0.00000*%
%ADD11R,0.06500X0.06500*%
%ADD12C,0.06500*%
%ADD13OC8,0.05600*%
%ADD14R,0.08858X0.08858*%
%ADD15C,0.08858*%
D10*
X0001600Y0001600D02*
X0001600Y0306561D01*
X0001600Y0306600D02*
X0051600Y0306600D01*
X0051600Y0286600D01*
X0181600Y0286600D01*
X0181600Y0306600D01*
X0231600Y0306600D01*
X0230301Y0306561D02*
X0230301Y0001600D01*
X0001600Y0001600D01*
D11*
X0076600Y0196600D03*
X0121600Y0201600D03*
X0121600Y0226600D03*
X0121600Y0251600D03*
X0206600Y0296600D03*
X0016600Y0296600D03*
X0211600Y0046600D03*
D12*
X0201600Y0046600D03*
X0191600Y0046600D03*
X0181600Y0046600D03*
X0171600Y0046600D03*
X0161600Y0046600D03*
X0151600Y0046600D03*
X0141600Y0046600D03*
X0131600Y0046600D03*
X0206600Y0076600D03*
X0206600Y0086600D03*
X0206600Y0096600D03*
X0206600Y0106600D03*
X0206600Y0116600D03*
X0206600Y0126600D03*
X0206600Y0136600D03*
X0206600Y0146600D03*
X0206600Y0156600D03*
X0206600Y0166600D03*
X0206600Y0176600D03*
X0206600Y0186600D03*
X0206600Y0196600D03*
X0206600Y0206600D03*
X0206600Y0216600D03*
X0206600Y0226600D03*
X0206600Y0236600D03*
X0206600Y0246600D03*
X0206600Y0256600D03*
X0206600Y0266600D03*
X0206600Y0276600D03*
X0206600Y0286600D03*
X0216600Y0286600D03*
X0216600Y0276600D03*
X0216600Y0266600D03*
X0216600Y0256600D03*
X0216600Y0246600D03*
X0216600Y0236600D03*
X0216600Y0226600D03*
X0216600Y0216600D03*
X0216600Y0206600D03*
X0216600Y0196600D03*
X0216600Y0186600D03*
X0216600Y0176600D03*
X0216600Y0166600D03*
X0216600Y0156600D03*
X0216600Y0146600D03*
X0216600Y0136600D03*
X0216600Y0126600D03*
X0216600Y0116600D03*
X0216600Y0106600D03*
X0216600Y0096600D03*
X0216600Y0086600D03*
X0216600Y0076600D03*
X0141600Y0201600D03*
X0131600Y0201600D03*
X0131600Y0226600D03*
X0141600Y0226600D03*
X0141600Y0251600D03*
X0131600Y0251600D03*
X0076600Y0166600D03*
X0066600Y0166600D03*
X0056600Y0166600D03*
X0046600Y0166600D03*
X0026600Y0166600D03*
X0026600Y0176600D03*
X0026600Y0186600D03*
X0026600Y0196600D03*
X0026600Y0206600D03*
X0026600Y0216600D03*
X0026600Y0226600D03*
X0026600Y0236600D03*
X0026600Y0246600D03*
X0026600Y0256600D03*
X0026600Y0266600D03*
X0026600Y0276600D03*
X0026600Y0286600D03*
X0026600Y0296600D03*
X0016600Y0286600D03*
X0016600Y0276600D03*
X0016600Y0266600D03*
X0016600Y0256600D03*
X0016600Y0246600D03*
X0016600Y0236600D03*
X0016600Y0226600D03*
X0016600Y0216600D03*
X0016600Y0206600D03*
X0016600Y0196600D03*
X0016600Y0186600D03*
X0016600Y0176600D03*
X0016600Y0166600D03*
X0016600Y0156600D03*
X0016600Y0146600D03*
X0016600Y0136600D03*
X0016600Y0126600D03*
X0016600Y0116600D03*
X0016600Y0106600D03*
X0016600Y0096600D03*
X0016600Y0086600D03*
X0016600Y0076600D03*
X0026600Y0076600D03*
X0026600Y0086600D03*
X0026600Y0096600D03*
X0026600Y0106600D03*
X0026600Y0116600D03*
X0026600Y0126600D03*
X0026600Y0136600D03*
X0026600Y0146600D03*
X0026600Y0156600D03*
X0046600Y0196600D03*
X0056600Y0196600D03*
X0066600Y0196600D03*
X0216600Y0296600D03*
D13*
X0171600Y0226600D03*
X0171600Y0166600D03*
D14*
X0030222Y0056757D03*
D15*
X0030222Y0037072D03*
X0030222Y0017387D03*
M02*
