%
M48
M72
T01C0.03150
T02C0.03200
T03C0.04100
T04C0.04921
%
T01
X131000Y46000
X141000Y46000
X151000Y46000
X161000Y46000
X171000Y46000
X181000Y46000
X191000Y46000
X201000Y46000
X211000Y46000
X141000Y201000
X131000Y201000
X121000Y201000
X121000Y226000
X131000Y226000
X141000Y226000
T02
X171000Y226000
X171000Y166000
T03
X206000Y166000
X206000Y176000
X206000Y186000
X206000Y196000
X206000Y206000
X206000Y216000
X206000Y226000
X206000Y236000
X206000Y246000
X206000Y256000
X206000Y266000
X206000Y276000
X206000Y286000
X206000Y296000
X216000Y296000
X216000Y286000
X216000Y276000
X216000Y266000
X216000Y256000
X216000Y246000
X216000Y236000
X216000Y226000
X216000Y216000
X216000Y206000
X216000Y196000
X216000Y186000
X216000Y176000
X216000Y166000
X216000Y156000
X216000Y146000
X216000Y136000
X216000Y126000
X216000Y116000
X216000Y106000
X216000Y96000
X216000Y86000
X216000Y76000
X206000Y76000
X206000Y86000
X206000Y96000
X206000Y106000
X206000Y116000
X206000Y126000
X206000Y136000
X206000Y146000
X206000Y156000
X26000Y156000
X26000Y146000
X26000Y136000
X26000Y126000
X26000Y116000
X26000Y106000
X26000Y96000
X26000Y86000
X26000Y76000
X16000Y76000
X16000Y86000
X16000Y96000
X16000Y106000
X16000Y116000
X16000Y126000
X16000Y136000
X16000Y146000
X16000Y156000
X16000Y166000
X16000Y176000
X16000Y186000
X16000Y196000
X16000Y206000
X16000Y216000
X16000Y226000
X16000Y236000
X16000Y246000
X16000Y256000
X16000Y266000
X16000Y276000
X16000Y286000
X16000Y296000
X26000Y296000
X26000Y286000
X26000Y276000
X26000Y266000
X26000Y256000
X26000Y246000
X26000Y236000
X26000Y226000
X26000Y216000
X26000Y206000
X26000Y196000
X26000Y186000
X26000Y176000
X26000Y166000
T04
X29622Y16787
X29622Y36472
X29622Y56157
M30
