G75*
%MOIN*%
%OFA0B0*%
%FSLAX25Y25*%
%IPPOS*%
%LPD*%
%AMOC8*
5,1,8,0,0,1.08239X$1,22.5*
%
%ADD10R,0.06500X0.06500*%
%ADD11C,0.06500*%
%ADD12C,0.07382*%
%ADD13R,0.05550X0.05550*%
%ADD14C,0.05550*%
%ADD15C,0.03200*%
%ADD16OC8,0.05600*%
%ADD17C,0.01200*%
%ADD18C,0.01600*%
D10*
X0016000Y0296000D03*
X0206000Y0296000D03*
D11*
X0206000Y0286000D03*
X0206000Y0276000D03*
X0206000Y0266000D03*
X0206000Y0256000D03*
X0206000Y0246000D03*
X0206000Y0236000D03*
X0206000Y0226000D03*
X0206000Y0216000D03*
X0206000Y0206000D03*
X0206000Y0196000D03*
X0206000Y0186000D03*
X0206000Y0176000D03*
X0206000Y0166000D03*
X0206000Y0156000D03*
X0206000Y0146000D03*
X0206000Y0136000D03*
X0206000Y0126000D03*
X0206000Y0116000D03*
X0206000Y0106000D03*
X0206000Y0096000D03*
X0206000Y0086000D03*
X0206000Y0076000D03*
X0216000Y0076000D03*
X0216000Y0086000D03*
X0216000Y0096000D03*
X0216000Y0106000D03*
X0216000Y0116000D03*
X0216000Y0126000D03*
X0216000Y0136000D03*
X0216000Y0146000D03*
X0216000Y0156000D03*
X0216000Y0166000D03*
X0216000Y0176000D03*
X0216000Y0186000D03*
X0216000Y0196000D03*
X0216000Y0206000D03*
X0216000Y0216000D03*
X0216000Y0226000D03*
X0216000Y0236000D03*
X0216000Y0246000D03*
X0216000Y0256000D03*
X0216000Y0266000D03*
X0216000Y0276000D03*
X0216000Y0286000D03*
X0216000Y0296000D03*
X0026000Y0296000D03*
X0026000Y0286000D03*
X0026000Y0276000D03*
X0026000Y0266000D03*
X0026000Y0256000D03*
X0026000Y0246000D03*
X0026000Y0236000D03*
X0026000Y0226000D03*
X0026000Y0216000D03*
X0026000Y0206000D03*
X0026000Y0196000D03*
X0026000Y0186000D03*
X0026000Y0176000D03*
X0026000Y0166000D03*
X0026000Y0156000D03*
X0026000Y0146000D03*
X0026000Y0136000D03*
X0026000Y0126000D03*
X0026000Y0116000D03*
X0026000Y0106000D03*
X0026000Y0096000D03*
X0026000Y0086000D03*
X0026000Y0076000D03*
X0016000Y0076000D03*
X0016000Y0086000D03*
X0016000Y0096000D03*
X0016000Y0106000D03*
X0016000Y0116000D03*
X0016000Y0126000D03*
X0016000Y0136000D03*
X0016000Y0146000D03*
X0016000Y0156000D03*
X0016000Y0166000D03*
X0016000Y0176000D03*
X0016000Y0186000D03*
X0016000Y0196000D03*
X0016000Y0206000D03*
X0016000Y0216000D03*
X0016000Y0226000D03*
X0016000Y0236000D03*
X0016000Y0246000D03*
X0016000Y0256000D03*
X0016000Y0266000D03*
X0016000Y0276000D03*
X0016000Y0286000D03*
D12*
X0029622Y0056157D03*
X0029622Y0036472D03*
X0029622Y0016787D03*
D13*
X0121000Y0201000D03*
X0121000Y0226000D03*
X0211000Y0046000D03*
D14*
X0201000Y0046000D03*
X0191000Y0046000D03*
X0181000Y0046000D03*
X0171000Y0046000D03*
X0161000Y0046000D03*
X0151000Y0046000D03*
X0141000Y0046000D03*
X0131000Y0046000D03*
X0131000Y0201000D03*
X0141000Y0201000D03*
X0141000Y0226000D03*
X0131000Y0226000D03*
D15*
X0066000Y0197109D02*
X0066000Y0193709D01*
X0061000Y0193709D02*
X0061000Y0197109D01*
X0056000Y0197109D02*
X0056000Y0193709D01*
X0051000Y0193709D02*
X0051000Y0197109D01*
X0051000Y0172700D02*
X0051000Y0169300D01*
X0056000Y0169300D02*
X0056000Y0172700D01*
X0061000Y0172700D02*
X0061000Y0169300D01*
X0066000Y0169300D02*
X0066000Y0172700D01*
D16*
X0171000Y0166000D03*
X0171000Y0226000D03*
D17*
X0226000Y0006000D02*
X0006000Y0006000D01*
X0006000Y0301000D01*
X0226000Y0301000D01*
X0226000Y0006000D01*
X0006000Y0006000D01*
X0006000Y0007199D02*
X0226000Y0007199D01*
X0226000Y0008397D02*
X0006000Y0008397D01*
X0006000Y0009596D02*
X0226000Y0009596D01*
X0226000Y0010794D02*
X0006000Y0010794D01*
X0006000Y0011993D02*
X0026086Y0011993D01*
X0026285Y0011793D02*
X0028450Y0010896D01*
X0030794Y0010896D01*
X0032959Y0011793D01*
X0034616Y0013450D01*
X0035513Y0015616D01*
X0035513Y0017959D01*
X0034616Y0020124D01*
X0032959Y0021781D01*
X0030794Y0022678D01*
X0028450Y0022678D01*
X0026285Y0021781D01*
X0024628Y0020124D01*
X0023731Y0017959D01*
X0023731Y0015616D01*
X0024628Y0013450D01*
X0026285Y0011793D01*
X0024887Y0013191D02*
X0006000Y0013191D01*
X0006000Y0014390D02*
X0024239Y0014390D01*
X0023742Y0015588D02*
X0006000Y0015588D01*
X0006000Y0016787D02*
X0023731Y0016787D01*
X0023742Y0017985D02*
X0006000Y0017985D01*
X0006000Y0019184D02*
X0024238Y0019184D01*
X0024886Y0020382D02*
X0006000Y0020382D01*
X0006000Y0021581D02*
X0026084Y0021581D01*
X0025443Y0023200D02*
X0171557Y0023200D01*
X0172586Y0023626D01*
X0189992Y0041033D01*
X0190010Y0041025D01*
X0191990Y0041025D01*
X0193818Y0041783D01*
X0195217Y0043182D01*
X0195975Y0045010D01*
X0195975Y0046990D01*
X0195217Y0048818D01*
X0193818Y0050217D01*
X0193800Y0050225D01*
X0193800Y0059240D01*
X0194414Y0058626D01*
X0202119Y0050921D01*
X0201990Y0050975D01*
X0200010Y0050975D01*
X0198182Y0050217D01*
X0196783Y0048818D01*
X0196025Y0046990D01*
X0196025Y0045010D01*
X0196783Y0043182D01*
X0198182Y0041783D01*
X0200010Y0041025D01*
X0201990Y0041025D01*
X0203818Y0041783D01*
X0205217Y0043182D01*
X0205975Y0045010D01*
X0205975Y0046990D01*
X0205921Y0047119D01*
X0206025Y0047015D01*
X0206025Y0042314D01*
X0207314Y0041025D01*
X0214686Y0041025D01*
X0215975Y0042314D01*
X0215975Y0049686D01*
X0214686Y0050975D01*
X0209985Y0050975D01*
X0198800Y0062160D01*
X0198800Y0181557D01*
X0198374Y0182586D01*
X0168374Y0212586D01*
X0167586Y0213374D01*
X0166557Y0213800D01*
X0140443Y0213800D01*
X0139414Y0213374D01*
X0132008Y0205967D01*
X0131990Y0205975D01*
X0130010Y0205975D01*
X0128182Y0205217D01*
X0126783Y0203818D01*
X0126025Y0201990D01*
X0126025Y0200010D01*
X0126783Y0198182D01*
X0128182Y0196783D01*
X0130010Y0196025D01*
X0131990Y0196025D01*
X0133818Y0196783D01*
X0135217Y0198182D01*
X0135975Y0200010D01*
X0135975Y0201990D01*
X0135967Y0202008D01*
X0137273Y0203314D01*
X0137258Y0203293D01*
X0136946Y0202679D01*
X0136733Y0202024D01*
X0136625Y0201344D01*
X0136625Y0201187D01*
X0140813Y0201187D01*
X0140813Y0200813D01*
X0141187Y0200813D01*
X0141187Y0196625D01*
X0141344Y0196625D01*
X0142024Y0196733D01*
X0142679Y0196946D01*
X0143293Y0197258D01*
X0143850Y0197663D01*
X0144337Y0198150D01*
X0144742Y0198707D01*
X0145054Y0199321D01*
X0145267Y0199976D01*
X0145375Y0200656D01*
X0145375Y0200813D01*
X0141187Y0200813D01*
X0141187Y0201187D01*
X0145375Y0201187D01*
X0145375Y0201344D01*
X0145267Y0202024D01*
X0145054Y0202679D01*
X0144742Y0203293D01*
X0144337Y0203850D01*
X0143850Y0204337D01*
X0143293Y0204742D01*
X0142679Y0205054D01*
X0142024Y0205267D01*
X0141344Y0205375D01*
X0141187Y0205375D01*
X0141187Y0201187D01*
X0140813Y0201187D01*
X0140813Y0205375D01*
X0140656Y0205375D01*
X0139976Y0205267D01*
X0139321Y0205054D01*
X0138707Y0204742D01*
X0138686Y0204727D01*
X0142160Y0208200D01*
X0164840Y0208200D01*
X0193200Y0179840D01*
X0193200Y0167760D01*
X0192586Y0168374D01*
X0172586Y0188374D01*
X0171557Y0188800D01*
X0097760Y0188800D01*
X0102586Y0193626D01*
X0103374Y0194414D01*
X0103800Y0195443D01*
X0103800Y0204840D01*
X0107160Y0208200D01*
X0116557Y0208200D01*
X0117586Y0208626D01*
X0129992Y0221033D01*
X0130010Y0221025D01*
X0131990Y0221025D01*
X0133818Y0221783D01*
X0135217Y0223182D01*
X0135975Y0225010D01*
X0135975Y0226990D01*
X0135217Y0228818D01*
X0133818Y0230217D01*
X0131990Y0230975D01*
X0130010Y0230975D01*
X0128182Y0230217D01*
X0126783Y0228818D01*
X0126025Y0226990D01*
X0126025Y0225010D01*
X0126033Y0224992D01*
X0125975Y0224935D01*
X0125975Y0229686D01*
X0124686Y0230975D01*
X0117314Y0230975D01*
X0116025Y0229686D01*
X0116025Y0222314D01*
X0117314Y0221025D01*
X0122065Y0221025D01*
X0114840Y0213800D01*
X0105443Y0213800D01*
X0104414Y0213374D01*
X0103626Y0212586D01*
X0098626Y0207586D01*
X0098200Y0206557D01*
X0098200Y0197160D01*
X0089840Y0188800D01*
X0067160Y0188800D01*
X0066050Y0189909D01*
X0066756Y0189909D01*
X0068153Y0190488D01*
X0069221Y0191557D01*
X0069800Y0192954D01*
X0069800Y0197865D01*
X0069221Y0199262D01*
X0068800Y0199683D01*
X0068800Y0219840D01*
X0082160Y0233200D01*
X0201261Y0233200D01*
X0201380Y0232913D01*
X0202913Y0231380D01*
X0203830Y0231000D01*
X0202913Y0230620D01*
X0201380Y0229087D01*
X0200550Y0227084D01*
X0200550Y0224916D01*
X0201380Y0222913D01*
X0202913Y0221380D01*
X0203830Y0221000D01*
X0202913Y0220620D01*
X0201380Y0219087D01*
X0200550Y0217084D01*
X0200550Y0214916D01*
X0201380Y0212913D01*
X0202913Y0211380D01*
X0203830Y0211000D01*
X0202913Y0210620D01*
X0201380Y0209087D01*
X0200550Y0207084D01*
X0200550Y0204916D01*
X0201380Y0202913D01*
X0202913Y0201380D01*
X0203830Y0201000D01*
X0202913Y0200620D01*
X0201380Y0199087D01*
X0200550Y0197084D01*
X0200550Y0194916D01*
X0201380Y0192913D01*
X0202913Y0191380D01*
X0203830Y0191000D01*
X0202913Y0190620D01*
X0201380Y0189087D01*
X0200550Y0187084D01*
X0200550Y0184916D01*
X0201380Y0182913D01*
X0202913Y0181380D01*
X0203830Y0181000D01*
X0202913Y0180620D01*
X0201380Y0179087D01*
X0200550Y0177084D01*
X0200550Y0174916D01*
X0201380Y0172913D01*
X0202913Y0171380D01*
X0203830Y0171000D01*
X0202913Y0170620D01*
X0201380Y0169087D01*
X0200550Y0167084D01*
X0200550Y0164916D01*
X0201380Y0162913D01*
X0202913Y0161380D01*
X0203830Y0161000D01*
X0202913Y0160620D01*
X0201380Y0159087D01*
X0200550Y0157084D01*
X0200550Y0154916D01*
X0201380Y0152913D01*
X0202913Y0151380D01*
X0203830Y0151000D01*
X0202913Y0150620D01*
X0201380Y0149087D01*
X0200550Y0147084D01*
X0200550Y0144916D01*
X0201380Y0142913D01*
X0202913Y0141380D01*
X0203830Y0141000D01*
X0202913Y0140620D01*
X0201380Y0139087D01*
X0200550Y0137084D01*
X0200550Y0134916D01*
X0201380Y0132913D01*
X0202913Y0131380D01*
X0203830Y0131000D01*
X0202913Y0130620D01*
X0201380Y0129087D01*
X0200550Y0127084D01*
X0200550Y0124916D01*
X0201380Y0122913D01*
X0202913Y0121380D01*
X0203830Y0121000D01*
X0202913Y0120620D01*
X0201380Y0119087D01*
X0200550Y0117084D01*
X0200550Y0114916D01*
X0201380Y0112913D01*
X0202913Y0111380D01*
X0203830Y0111000D01*
X0202913Y0110620D01*
X0201380Y0109087D01*
X0200550Y0107084D01*
X0200550Y0104916D01*
X0201380Y0102913D01*
X0202913Y0101380D01*
X0203830Y0101000D01*
X0202913Y0100620D01*
X0201380Y0099087D01*
X0200550Y0097084D01*
X0200550Y0094916D01*
X0201380Y0092913D01*
X0202913Y0091380D01*
X0203830Y0091000D01*
X0202913Y0090620D01*
X0201380Y0089087D01*
X0200550Y0087084D01*
X0200550Y0084916D01*
X0201380Y0082913D01*
X0202913Y0081380D01*
X0203830Y0081000D01*
X0202913Y0080620D01*
X0201380Y0079087D01*
X0200550Y0077084D01*
X0200550Y0074916D01*
X0201380Y0072913D01*
X0202913Y0071380D01*
X0204916Y0070550D01*
X0207084Y0070550D01*
X0209087Y0071380D01*
X0210620Y0072913D01*
X0211000Y0073830D01*
X0211380Y0072913D01*
X0212913Y0071380D01*
X0214916Y0070550D01*
X0217084Y0070550D01*
X0219087Y0071380D01*
X0220620Y0072913D01*
X0221450Y0074916D01*
X0221450Y0077084D01*
X0220620Y0079087D01*
X0219087Y0080620D01*
X0218170Y0081000D01*
X0219087Y0081380D01*
X0220620Y0082913D01*
X0221450Y0084916D01*
X0221450Y0087084D01*
X0220620Y0089087D01*
X0219087Y0090620D01*
X0218170Y0091000D01*
X0219087Y0091380D01*
X0220620Y0092913D01*
X0221450Y0094916D01*
X0221450Y0097084D01*
X0220620Y0099087D01*
X0219087Y0100620D01*
X0218170Y0101000D01*
X0219087Y0101380D01*
X0220620Y0102913D01*
X0221450Y0104916D01*
X0221450Y0107084D01*
X0220620Y0109087D01*
X0219087Y0110620D01*
X0218170Y0111000D01*
X0219087Y0111380D01*
X0220620Y0112913D01*
X0221450Y0114916D01*
X0221450Y0117084D01*
X0220620Y0119087D01*
X0219087Y0120620D01*
X0218170Y0121000D01*
X0219087Y0121380D01*
X0220620Y0122913D01*
X0221450Y0124916D01*
X0221450Y0127084D01*
X0220620Y0129087D01*
X0219087Y0130620D01*
X0218170Y0131000D01*
X0219087Y0131380D01*
X0220620Y0132913D01*
X0221450Y0134916D01*
X0221450Y0137084D01*
X0220620Y0139087D01*
X0219087Y0140620D01*
X0218170Y0141000D01*
X0219087Y0141380D01*
X0220620Y0142913D01*
X0221450Y0144916D01*
X0221450Y0147084D01*
X0220620Y0149087D01*
X0219087Y0150620D01*
X0218170Y0151000D01*
X0219087Y0151380D01*
X0220620Y0152913D01*
X0221450Y0154916D01*
X0221450Y0157084D01*
X0220620Y0159087D01*
X0219087Y0160620D01*
X0218170Y0161000D01*
X0219087Y0161380D01*
X0220620Y0162913D01*
X0221450Y0164916D01*
X0221450Y0167084D01*
X0220620Y0169087D01*
X0219087Y0170620D01*
X0218170Y0171000D01*
X0219087Y0171380D01*
X0220620Y0172913D01*
X0221450Y0174916D01*
X0221450Y0177084D01*
X0220620Y0179087D01*
X0219087Y0180620D01*
X0218170Y0181000D01*
X0219087Y0181380D01*
X0220620Y0182913D01*
X0221450Y0184916D01*
X0221450Y0187084D01*
X0220620Y0189087D01*
X0219087Y0190620D01*
X0218170Y0191000D01*
X0219087Y0191380D01*
X0220620Y0192913D01*
X0221450Y0194916D01*
X0221450Y0197084D01*
X0220620Y0199087D01*
X0219087Y0200620D01*
X0218170Y0201000D01*
X0219087Y0201380D01*
X0220620Y0202913D01*
X0221450Y0204916D01*
X0221450Y0207084D01*
X0220620Y0209087D01*
X0219087Y0210620D01*
X0218170Y0211000D01*
X0219087Y0211380D01*
X0220620Y0212913D01*
X0221450Y0214916D01*
X0221450Y0217084D01*
X0220620Y0219087D01*
X0219087Y0220620D01*
X0218170Y0221000D01*
X0219087Y0221380D01*
X0220620Y0222913D01*
X0221450Y0224916D01*
X0221450Y0227084D01*
X0220620Y0229087D01*
X0219087Y0230620D01*
X0218170Y0231000D01*
X0219087Y0231380D01*
X0220620Y0232913D01*
X0221450Y0234916D01*
X0221450Y0237084D01*
X0220620Y0239087D01*
X0219087Y0240620D01*
X0218170Y0241000D01*
X0219087Y0241380D01*
X0220620Y0242913D01*
X0221450Y0244916D01*
X0221450Y0247084D01*
X0220620Y0249087D01*
X0219087Y0250620D01*
X0218170Y0251000D01*
X0219087Y0251380D01*
X0220620Y0252913D01*
X0221450Y0254916D01*
X0221450Y0257084D01*
X0220620Y0259087D01*
X0219087Y0260620D01*
X0218170Y0261000D01*
X0219087Y0261380D01*
X0220620Y0262913D01*
X0221450Y0264916D01*
X0221450Y0267084D01*
X0220620Y0269087D01*
X0219087Y0270620D01*
X0218170Y0271000D01*
X0219087Y0271380D01*
X0220620Y0272913D01*
X0221450Y0274916D01*
X0221450Y0277084D01*
X0220620Y0279087D01*
X0219087Y0280620D01*
X0218170Y0281000D01*
X0219087Y0281380D01*
X0220620Y0282913D01*
X0221450Y0284916D01*
X0221450Y0287084D01*
X0220620Y0289087D01*
X0219087Y0290620D01*
X0217351Y0291339D01*
X0217862Y0291505D01*
X0218542Y0291852D01*
X0219160Y0292301D01*
X0219699Y0292840D01*
X0220148Y0293458D01*
X0220495Y0294138D01*
X0220731Y0294864D01*
X0220843Y0295575D01*
X0216425Y0295575D01*
X0216425Y0296425D01*
X0215575Y0296425D01*
X0215575Y0300843D01*
X0214864Y0300731D01*
X0214138Y0300495D01*
X0213458Y0300148D01*
X0212840Y0299699D01*
X0212301Y0299160D01*
X0211852Y0298542D01*
X0211505Y0297862D01*
X0211269Y0297136D01*
X0211157Y0296425D01*
X0215575Y0296425D01*
X0215575Y0295575D01*
X0211157Y0295575D01*
X0211269Y0294864D01*
X0211505Y0294138D01*
X0211852Y0293458D01*
X0212301Y0292840D01*
X0212840Y0292301D01*
X0213458Y0291852D01*
X0214138Y0291505D01*
X0214649Y0291339D01*
X0212913Y0290620D01*
X0211380Y0289087D01*
X0211000Y0288170D01*
X0210620Y0289087D01*
X0209087Y0290620D01*
X0207808Y0291150D01*
X0209461Y0291150D01*
X0209868Y0291259D01*
X0210232Y0291470D01*
X0210530Y0291768D01*
X0210741Y0292132D01*
X0210850Y0292539D01*
X0210850Y0295575D01*
X0206425Y0295575D01*
X0206425Y0296425D01*
X0205575Y0296425D01*
X0205575Y0300850D01*
X0202539Y0300850D01*
X0202132Y0300741D01*
X0201768Y0300530D01*
X0201470Y0300232D01*
X0201259Y0299868D01*
X0201150Y0299461D01*
X0201150Y0296425D01*
X0205575Y0296425D01*
X0205575Y0295575D01*
X0201150Y0295575D01*
X0201150Y0292539D01*
X0201259Y0292132D01*
X0201470Y0291768D01*
X0201768Y0291470D01*
X0202132Y0291259D01*
X0202539Y0291150D01*
X0204192Y0291150D01*
X0202913Y0290620D01*
X0201380Y0289087D01*
X0200550Y0287084D01*
X0200550Y0284916D01*
X0201380Y0282913D01*
X0202913Y0281380D01*
X0203830Y0281000D01*
X0202913Y0280620D01*
X0201380Y0279087D01*
X0200550Y0277084D01*
X0200550Y0274916D01*
X0201380Y0272913D01*
X0202913Y0271380D01*
X0203830Y0271000D01*
X0202913Y0270620D01*
X0201380Y0269087D01*
X0200550Y0267084D01*
X0200550Y0264916D01*
X0201380Y0262913D01*
X0202913Y0261380D01*
X0203830Y0261000D01*
X0202913Y0260620D01*
X0201380Y0259087D01*
X0200550Y0257084D01*
X0200550Y0254916D01*
X0201380Y0252913D01*
X0202913Y0251380D01*
X0203830Y0251000D01*
X0202913Y0250620D01*
X0201380Y0249087D01*
X0200550Y0247084D01*
X0200550Y0244916D01*
X0201380Y0242913D01*
X0202913Y0241380D01*
X0203830Y0241000D01*
X0202913Y0240620D01*
X0201380Y0239087D01*
X0201261Y0238800D01*
X0080443Y0238800D01*
X0079414Y0238374D01*
X0078626Y0237586D01*
X0063626Y0222586D01*
X0063200Y0221557D01*
X0063200Y0200283D01*
X0063153Y0200331D01*
X0061756Y0200909D01*
X0060244Y0200909D01*
X0058847Y0200331D01*
X0058500Y0199983D01*
X0058153Y0200331D01*
X0056756Y0200909D01*
X0055244Y0200909D01*
X0053847Y0200331D01*
X0053800Y0200283D01*
X0053800Y0261557D01*
X0053374Y0262586D01*
X0031331Y0284629D01*
X0031450Y0284916D01*
X0031450Y0287084D01*
X0030620Y0289087D01*
X0029087Y0290620D01*
X0027351Y0291339D01*
X0027862Y0291505D01*
X0028542Y0291852D01*
X0029160Y0292301D01*
X0029699Y0292840D01*
X0030148Y0293458D01*
X0030495Y0294138D01*
X0030731Y0294864D01*
X0030843Y0295575D01*
X0026425Y0295575D01*
X0026425Y0296425D01*
X0025575Y0296425D01*
X0025575Y0300843D01*
X0024864Y0300731D01*
X0024138Y0300495D01*
X0023458Y0300148D01*
X0022840Y0299699D01*
X0022301Y0299160D01*
X0021852Y0298542D01*
X0021505Y0297862D01*
X0021269Y0297136D01*
X0021157Y0296425D01*
X0025575Y0296425D01*
X0025575Y0295575D01*
X0021157Y0295575D01*
X0021269Y0294864D01*
X0021505Y0294138D01*
X0021852Y0293458D01*
X0022301Y0292840D01*
X0022840Y0292301D01*
X0023458Y0291852D01*
X0024138Y0291505D01*
X0024649Y0291339D01*
X0022913Y0290620D01*
X0021380Y0289087D01*
X0021000Y0288170D01*
X0020620Y0289087D01*
X0019087Y0290620D01*
X0017808Y0291150D01*
X0019461Y0291150D01*
X0019868Y0291259D01*
X0020232Y0291470D01*
X0020530Y0291768D01*
X0020741Y0292132D01*
X0020850Y0292539D01*
X0020850Y0295575D01*
X0016425Y0295575D01*
X0016425Y0296425D01*
X0015575Y0296425D01*
X0015575Y0300850D01*
X0012539Y0300850D01*
X0012132Y0300741D01*
X0011768Y0300530D01*
X0011470Y0300232D01*
X0011259Y0299868D01*
X0011150Y0299461D01*
X0011150Y0296425D01*
X0015575Y0296425D01*
X0015575Y0295575D01*
X0011150Y0295575D01*
X0011150Y0292539D01*
X0011259Y0292132D01*
X0011470Y0291768D01*
X0011768Y0291470D01*
X0012132Y0291259D01*
X0012539Y0291150D01*
X0014192Y0291150D01*
X0012913Y0290620D01*
X0011380Y0289087D01*
X0010550Y0287084D01*
X0010550Y0284916D01*
X0011380Y0282913D01*
X0012913Y0281380D01*
X0013830Y0281000D01*
X0012913Y0280620D01*
X0011380Y0279087D01*
X0010550Y0277084D01*
X0010550Y0274916D01*
X0011380Y0272913D01*
X0012913Y0271380D01*
X0013830Y0271000D01*
X0012913Y0270620D01*
X0011380Y0269087D01*
X0010550Y0267084D01*
X0010550Y0264916D01*
X0011380Y0262913D01*
X0012913Y0261380D01*
X0013830Y0261000D01*
X0012913Y0260620D01*
X0011380Y0259087D01*
X0010550Y0257084D01*
X0010550Y0254916D01*
X0011380Y0252913D01*
X0012913Y0251380D01*
X0013830Y0251000D01*
X0012913Y0250620D01*
X0011380Y0249087D01*
X0010550Y0247084D01*
X0010550Y0244916D01*
X0011380Y0242913D01*
X0012913Y0241380D01*
X0013830Y0241000D01*
X0012913Y0240620D01*
X0011380Y0239087D01*
X0010550Y0237084D01*
X0010550Y0234916D01*
X0011380Y0232913D01*
X0012913Y0231380D01*
X0013830Y0231000D01*
X0012913Y0230620D01*
X0011380Y0229087D01*
X0010550Y0227084D01*
X0010550Y0224916D01*
X0011380Y0222913D01*
X0012913Y0221380D01*
X0013830Y0221000D01*
X0012913Y0220620D01*
X0011380Y0219087D01*
X0010550Y0217084D01*
X0010550Y0214916D01*
X0011380Y0212913D01*
X0012913Y0211380D01*
X0013830Y0211000D01*
X0012913Y0210620D01*
X0011380Y0209087D01*
X0010550Y0207084D01*
X0010550Y0204916D01*
X0011380Y0202913D01*
X0012913Y0201380D01*
X0013830Y0201000D01*
X0012913Y0200620D01*
X0011380Y0199087D01*
X0010550Y0197084D01*
X0010550Y0194916D01*
X0011380Y0192913D01*
X0012913Y0191380D01*
X0013830Y0191000D01*
X0012913Y0190620D01*
X0011380Y0189087D01*
X0010550Y0187084D01*
X0010550Y0184916D01*
X0011380Y0182913D01*
X0012913Y0181380D01*
X0013830Y0181000D01*
X0012913Y0180620D01*
X0011380Y0179087D01*
X0010550Y0177084D01*
X0010550Y0174916D01*
X0011380Y0172913D01*
X0012913Y0171380D01*
X0013830Y0171000D01*
X0012913Y0170620D01*
X0011380Y0169087D01*
X0010550Y0167084D01*
X0010550Y0164916D01*
X0011380Y0162913D01*
X0012913Y0161380D01*
X0013830Y0161000D01*
X0012913Y0160620D01*
X0011380Y0159087D01*
X0010550Y0157084D01*
X0010550Y0154916D01*
X0011380Y0152913D01*
X0012913Y0151380D01*
X0013830Y0151000D01*
X0012913Y0150620D01*
X0011380Y0149087D01*
X0010550Y0147084D01*
X0010550Y0144916D01*
X0011380Y0142913D01*
X0012913Y0141380D01*
X0013830Y0141000D01*
X0012913Y0140620D01*
X0011380Y0139087D01*
X0010550Y0137084D01*
X0010550Y0134916D01*
X0011380Y0132913D01*
X0012913Y0131380D01*
X0013830Y0131000D01*
X0012913Y0130620D01*
X0011380Y0129087D01*
X0010550Y0127084D01*
X0010550Y0124916D01*
X0011380Y0122913D01*
X0012913Y0121380D01*
X0013830Y0121000D01*
X0012913Y0120620D01*
X0011380Y0119087D01*
X0010550Y0117084D01*
X0010550Y0114916D01*
X0011380Y0112913D01*
X0012913Y0111380D01*
X0013830Y0111000D01*
X0012913Y0110620D01*
X0011380Y0109087D01*
X0010550Y0107084D01*
X0010550Y0104916D01*
X0011380Y0102913D01*
X0012913Y0101380D01*
X0013830Y0101000D01*
X0012913Y0100620D01*
X0011380Y0099087D01*
X0010550Y0097084D01*
X0010550Y0094916D01*
X0011380Y0092913D01*
X0012913Y0091380D01*
X0013830Y0091000D01*
X0012913Y0090620D01*
X0011380Y0089087D01*
X0010550Y0087084D01*
X0010550Y0084916D01*
X0011380Y0082913D01*
X0012913Y0081380D01*
X0013830Y0081000D01*
X0012913Y0080620D01*
X0011380Y0079087D01*
X0010550Y0077084D01*
X0010550Y0074916D01*
X0011380Y0072913D01*
X0012913Y0071380D01*
X0014916Y0070550D01*
X0017084Y0070550D01*
X0019087Y0071380D01*
X0020620Y0072913D01*
X0021000Y0073830D01*
X0021380Y0072913D01*
X0022913Y0071380D01*
X0024916Y0070550D01*
X0027084Y0070550D01*
X0029087Y0071380D01*
X0030620Y0072913D01*
X0031450Y0074916D01*
X0031450Y0077084D01*
X0030620Y0079087D01*
X0029087Y0080620D01*
X0028170Y0081000D01*
X0029087Y0081380D01*
X0030620Y0082913D01*
X0031450Y0084916D01*
X0031450Y0087084D01*
X0030620Y0089087D01*
X0029087Y0090620D01*
X0028170Y0091000D01*
X0029087Y0091380D01*
X0030620Y0092913D01*
X0031450Y0094916D01*
X0031450Y0097084D01*
X0030620Y0099087D01*
X0029087Y0100620D01*
X0028170Y0101000D01*
X0029087Y0101380D01*
X0030620Y0102913D01*
X0031450Y0104916D01*
X0031450Y0107084D01*
X0030620Y0109087D01*
X0029087Y0110620D01*
X0028170Y0111000D01*
X0029087Y0111380D01*
X0030620Y0112913D01*
X0031450Y0114916D01*
X0031450Y0117084D01*
X0030620Y0119087D01*
X0029087Y0120620D01*
X0028170Y0121000D01*
X0029087Y0121380D01*
X0030620Y0122913D01*
X0031450Y0124916D01*
X0031450Y0127084D01*
X0030620Y0129087D01*
X0029087Y0130620D01*
X0028170Y0131000D01*
X0029087Y0131380D01*
X0030620Y0132913D01*
X0031450Y0134916D01*
X0031450Y0137084D01*
X0030620Y0139087D01*
X0029087Y0140620D01*
X0028170Y0141000D01*
X0029087Y0141380D01*
X0030620Y0142913D01*
X0031450Y0144916D01*
X0031450Y0147084D01*
X0030620Y0149087D01*
X0029087Y0150620D01*
X0028170Y0151000D01*
X0029087Y0151380D01*
X0030620Y0152913D01*
X0031450Y0154916D01*
X0031450Y0157084D01*
X0030620Y0159087D01*
X0029087Y0160620D01*
X0028170Y0161000D01*
X0029087Y0161380D01*
X0030620Y0162913D01*
X0031450Y0164916D01*
X0031450Y0166590D01*
X0039414Y0158626D01*
X0040443Y0158200D01*
X0061557Y0158200D01*
X0062586Y0158626D01*
X0063374Y0159414D01*
X0068374Y0164414D01*
X0068800Y0165443D01*
X0068800Y0166726D01*
X0069221Y0167147D01*
X0069800Y0168544D01*
X0069800Y0173456D01*
X0069221Y0174853D01*
X0068153Y0175921D01*
X0066756Y0176500D01*
X0065244Y0176500D01*
X0063847Y0175921D01*
X0063076Y0175150D01*
X0063040Y0175186D01*
X0062516Y0175536D01*
X0061933Y0175777D01*
X0061315Y0175900D01*
X0061200Y0175900D01*
X0061200Y0171200D01*
X0060800Y0171200D01*
X0060800Y0175900D01*
X0060685Y0175900D01*
X0060067Y0175777D01*
X0059484Y0175536D01*
X0058960Y0175186D01*
X0058924Y0175150D01*
X0058800Y0175274D01*
X0058800Y0176557D01*
X0058374Y0177586D01*
X0053800Y0182160D01*
X0053800Y0184240D01*
X0058626Y0179414D01*
X0059414Y0178626D01*
X0060443Y0178200D01*
X0154840Y0178200D01*
X0166000Y0167040D01*
X0166000Y0163929D01*
X0168200Y0161729D01*
X0168200Y0050225D01*
X0168182Y0050217D01*
X0166783Y0048818D01*
X0166025Y0046990D01*
X0166025Y0045268D01*
X0165975Y0045217D01*
X0165975Y0046990D01*
X0165217Y0048818D01*
X0163818Y0050217D01*
X0161990Y0050975D01*
X0160010Y0050975D01*
X0158182Y0050217D01*
X0156783Y0048818D01*
X0156025Y0046990D01*
X0156025Y0045010D01*
X0156783Y0043182D01*
X0158182Y0041783D01*
X0160010Y0041025D01*
X0161783Y0041025D01*
X0160230Y0039472D01*
X0034756Y0039472D01*
X0034616Y0039809D01*
X0032959Y0041467D01*
X0030794Y0042363D01*
X0028450Y0042363D01*
X0026285Y0041467D01*
X0024628Y0039809D01*
X0023800Y0037810D01*
X0023800Y0049840D01*
X0025704Y0051744D01*
X0026285Y0051163D01*
X0028450Y0050267D01*
X0030794Y0050267D01*
X0032959Y0051163D01*
X0034616Y0052821D01*
X0035513Y0054986D01*
X0035513Y0057329D01*
X0034616Y0059494D01*
X0032959Y0061152D01*
X0030794Y0062048D01*
X0028450Y0062048D01*
X0026285Y0061152D01*
X0024628Y0059494D01*
X0023987Y0057947D01*
X0019414Y0053374D01*
X0018626Y0052586D01*
X0018200Y0051557D01*
X0018200Y0030443D01*
X0018626Y0029414D01*
X0023626Y0024414D01*
X0024414Y0023626D01*
X0025443Y0023200D01*
X0024063Y0023978D02*
X0006000Y0023978D01*
X0006000Y0025176D02*
X0022864Y0025176D01*
X0021666Y0026375D02*
X0006000Y0026375D01*
X0006000Y0027573D02*
X0020467Y0027573D01*
X0019268Y0028772D02*
X0006000Y0028772D01*
X0006000Y0029970D02*
X0018396Y0029970D01*
X0018200Y0031169D02*
X0006000Y0031169D01*
X0006000Y0032367D02*
X0018200Y0032367D01*
X0018200Y0033566D02*
X0006000Y0033566D01*
X0006000Y0034764D02*
X0018200Y0034764D01*
X0018200Y0035963D02*
X0006000Y0035963D01*
X0006000Y0037161D02*
X0018200Y0037161D01*
X0018200Y0038360D02*
X0006000Y0038360D01*
X0006000Y0039558D02*
X0018200Y0039558D01*
X0018200Y0040757D02*
X0006000Y0040757D01*
X0006000Y0041955D02*
X0018200Y0041955D01*
X0018200Y0043154D02*
X0006000Y0043154D01*
X0006000Y0044352D02*
X0018200Y0044352D01*
X0018200Y0045551D02*
X0006000Y0045551D01*
X0006000Y0046749D02*
X0018200Y0046749D01*
X0018200Y0047948D02*
X0006000Y0047948D01*
X0006000Y0049146D02*
X0018200Y0049146D01*
X0018200Y0050345D02*
X0006000Y0050345D01*
X0006000Y0051543D02*
X0018200Y0051543D01*
X0018782Y0052742D02*
X0006000Y0052742D01*
X0006000Y0053940D02*
X0019981Y0053940D01*
X0021179Y0055139D02*
X0006000Y0055139D01*
X0006000Y0056337D02*
X0022378Y0056337D01*
X0023576Y0057536D02*
X0006000Y0057536D01*
X0006000Y0058734D02*
X0024313Y0058734D01*
X0025067Y0059933D02*
X0006000Y0059933D01*
X0006000Y0061132D02*
X0026265Y0061132D01*
X0026157Y0056157D02*
X0021000Y0051000D01*
X0021000Y0031000D01*
X0026000Y0026000D01*
X0171000Y0026000D01*
X0191000Y0046000D01*
X0191000Y0166000D01*
X0171000Y0186000D01*
X0091000Y0186000D01*
X0101000Y0196000D01*
X0101000Y0206000D01*
X0106000Y0211000D01*
X0116000Y0211000D01*
X0131000Y0226000D01*
X0126888Y0228923D02*
X0125975Y0228923D01*
X0125975Y0227725D02*
X0126330Y0227725D01*
X0126025Y0226526D02*
X0125975Y0226526D01*
X0125975Y0225328D02*
X0126025Y0225328D01*
X0125539Y0230122D02*
X0128086Y0230122D01*
X0133696Y0221732D02*
X0138304Y0221732D01*
X0138182Y0221783D02*
X0140010Y0221025D01*
X0141990Y0221025D01*
X0143818Y0221783D01*
X0145217Y0223182D01*
X0145225Y0223200D01*
X0166729Y0223200D01*
X0168929Y0221000D01*
X0173071Y0221000D01*
X0176000Y0223929D01*
X0176000Y0228071D01*
X0173071Y0231000D01*
X0168929Y0231000D01*
X0166729Y0228800D01*
X0145225Y0228800D01*
X0145217Y0228818D01*
X0143818Y0230217D01*
X0141990Y0230975D01*
X0140010Y0230975D01*
X0138182Y0230217D01*
X0136783Y0228818D01*
X0136025Y0226990D01*
X0136025Y0225010D01*
X0136783Y0223182D01*
X0138182Y0221783D01*
X0137034Y0222931D02*
X0134966Y0222931D01*
X0135610Y0224129D02*
X0136390Y0224129D01*
X0136025Y0225328D02*
X0135975Y0225328D01*
X0135975Y0226526D02*
X0136025Y0226526D01*
X0136330Y0227725D02*
X0135670Y0227725D01*
X0135112Y0228923D02*
X0136888Y0228923D01*
X0138086Y0230122D02*
X0133914Y0230122D01*
X0141000Y0226000D02*
X0171000Y0226000D01*
X0175002Y0222931D02*
X0201372Y0222931D01*
X0200876Y0224129D02*
X0176000Y0224129D01*
X0176000Y0225328D02*
X0200550Y0225328D01*
X0200550Y0226526D02*
X0176000Y0226526D01*
X0176000Y0227725D02*
X0200815Y0227725D01*
X0201312Y0228923D02*
X0175148Y0228923D01*
X0173949Y0230122D02*
X0202414Y0230122D01*
X0203057Y0231320D02*
X0080280Y0231320D01*
X0079081Y0230122D02*
X0116461Y0230122D01*
X0116025Y0228923D02*
X0077883Y0228923D01*
X0076684Y0227725D02*
X0116025Y0227725D01*
X0116025Y0226526D02*
X0075486Y0226526D01*
X0074287Y0225328D02*
X0116025Y0225328D01*
X0116025Y0224129D02*
X0073089Y0224129D01*
X0071890Y0222931D02*
X0116025Y0222931D01*
X0116607Y0221732D02*
X0070692Y0221732D01*
X0069493Y0220534D02*
X0121574Y0220534D01*
X0120375Y0219335D02*
X0068800Y0219335D01*
X0068800Y0218137D02*
X0119177Y0218137D01*
X0117978Y0216938D02*
X0068800Y0216938D01*
X0068800Y0215739D02*
X0116780Y0215739D01*
X0115581Y0214541D02*
X0068800Y0214541D01*
X0068800Y0213342D02*
X0104383Y0213342D01*
X0103184Y0212144D02*
X0068800Y0212144D01*
X0068800Y0210945D02*
X0101986Y0210945D01*
X0100787Y0209747D02*
X0068800Y0209747D01*
X0068800Y0208548D02*
X0099589Y0208548D01*
X0098528Y0207350D02*
X0068800Y0207350D01*
X0068800Y0206151D02*
X0098200Y0206151D01*
X0098200Y0204953D02*
X0068800Y0204953D01*
X0068800Y0203754D02*
X0098200Y0203754D01*
X0098200Y0202556D02*
X0068800Y0202556D01*
X0068800Y0201357D02*
X0098200Y0201357D01*
X0098200Y0200159D02*
X0068800Y0200159D01*
X0069346Y0198960D02*
X0098200Y0198960D01*
X0098200Y0197762D02*
X0069800Y0197762D01*
X0069800Y0196563D02*
X0097604Y0196563D01*
X0096405Y0195365D02*
X0069800Y0195365D01*
X0069800Y0194166D02*
X0095206Y0194166D01*
X0094008Y0192968D02*
X0069800Y0192968D01*
X0069309Y0191769D02*
X0092809Y0191769D01*
X0091611Y0190571D02*
X0068235Y0190571D01*
X0066588Y0189372D02*
X0090412Y0189372D01*
X0091000Y0186000D02*
X0066000Y0186000D01*
X0061000Y0191000D01*
X0061000Y0195409D01*
X0056000Y0195409D02*
X0056000Y0186000D01*
X0061000Y0181000D01*
X0156000Y0181000D01*
X0171000Y0166000D01*
X0171000Y0046000D01*
X0166422Y0047948D02*
X0165578Y0047948D01*
X0165975Y0046749D02*
X0166025Y0046749D01*
X0166025Y0045551D02*
X0165975Y0045551D01*
X0161514Y0040757D02*
X0033669Y0040757D01*
X0034720Y0039558D02*
X0160316Y0039558D01*
X0158009Y0041955D02*
X0153991Y0041955D01*
X0153818Y0041783D02*
X0155217Y0043182D01*
X0155975Y0045010D01*
X0155975Y0046990D01*
X0155217Y0048818D01*
X0153818Y0050217D01*
X0151990Y0050975D01*
X0150010Y0050975D01*
X0148182Y0050217D01*
X0146783Y0048818D01*
X0146025Y0046990D01*
X0146025Y0045010D01*
X0146783Y0043182D01*
X0148182Y0041783D01*
X0150010Y0041025D01*
X0151990Y0041025D01*
X0153818Y0041783D01*
X0155189Y0043154D02*
X0156811Y0043154D01*
X0156298Y0044352D02*
X0155702Y0044352D01*
X0155975Y0045551D02*
X0156025Y0045551D01*
X0156025Y0046749D02*
X0155975Y0046749D01*
X0155578Y0047948D02*
X0156422Y0047948D01*
X0157111Y0049146D02*
X0154889Y0049146D01*
X0153510Y0050345D02*
X0158490Y0050345D01*
X0163510Y0050345D02*
X0168200Y0050345D01*
X0168200Y0051543D02*
X0033339Y0051543D01*
X0034538Y0052742D02*
X0168200Y0052742D01*
X0168200Y0053940D02*
X0035080Y0053940D01*
X0035513Y0055139D02*
X0168200Y0055139D01*
X0168200Y0056337D02*
X0035513Y0056337D01*
X0035427Y0057536D02*
X0168200Y0057536D01*
X0168200Y0058734D02*
X0034931Y0058734D01*
X0034178Y0059933D02*
X0168200Y0059933D01*
X0168200Y0061132D02*
X0032979Y0061132D01*
X0029622Y0056157D02*
X0026157Y0056157D01*
X0025905Y0051543D02*
X0025503Y0051543D01*
X0024305Y0050345D02*
X0028261Y0050345D01*
X0030983Y0050345D02*
X0128490Y0050345D01*
X0128182Y0050217D02*
X0126783Y0048818D01*
X0126025Y0046990D01*
X0126025Y0045010D01*
X0126783Y0043182D01*
X0128182Y0041783D01*
X0130010Y0041025D01*
X0131990Y0041025D01*
X0133818Y0041783D01*
X0135217Y0043182D01*
X0135975Y0045010D01*
X0135975Y0046990D01*
X0135217Y0048818D01*
X0133818Y0050217D01*
X0131990Y0050975D01*
X0130010Y0050975D01*
X0128182Y0050217D01*
X0127111Y0049146D02*
X0023800Y0049146D01*
X0023800Y0047948D02*
X0126422Y0047948D01*
X0126025Y0046749D02*
X0023800Y0046749D01*
X0023800Y0045551D02*
X0126025Y0045551D01*
X0126298Y0044352D02*
X0023800Y0044352D01*
X0023800Y0043154D02*
X0126811Y0043154D01*
X0128009Y0041955D02*
X0031779Y0041955D01*
X0027465Y0041955D02*
X0023800Y0041955D01*
X0023800Y0040757D02*
X0025575Y0040757D01*
X0024524Y0039558D02*
X0023800Y0039558D01*
X0023800Y0038360D02*
X0024028Y0038360D01*
X0033160Y0021581D02*
X0226000Y0021581D01*
X0226000Y0022779D02*
X0006000Y0022779D01*
X0034358Y0020382D02*
X0226000Y0020382D01*
X0226000Y0019184D02*
X0035006Y0019184D01*
X0035502Y0017985D02*
X0226000Y0017985D01*
X0226000Y0016787D02*
X0035513Y0016787D01*
X0035502Y0015588D02*
X0226000Y0015588D01*
X0226000Y0014390D02*
X0035005Y0014390D01*
X0034357Y0013191D02*
X0226000Y0013191D01*
X0226000Y0011993D02*
X0033158Y0011993D01*
X0006000Y0062330D02*
X0168200Y0062330D01*
X0168200Y0063529D02*
X0006000Y0063529D01*
X0006000Y0064727D02*
X0168200Y0064727D01*
X0168200Y0065926D02*
X0006000Y0065926D01*
X0006000Y0067124D02*
X0168200Y0067124D01*
X0168200Y0068323D02*
X0006000Y0068323D01*
X0006000Y0069521D02*
X0168200Y0069521D01*
X0168200Y0070720D02*
X0027494Y0070720D01*
X0029626Y0071918D02*
X0168200Y0071918D01*
X0168200Y0073117D02*
X0030705Y0073117D01*
X0031201Y0074315D02*
X0168200Y0074315D01*
X0168200Y0075514D02*
X0031450Y0075514D01*
X0031450Y0076712D02*
X0168200Y0076712D01*
X0168200Y0077911D02*
X0031108Y0077911D01*
X0030598Y0079109D02*
X0168200Y0079109D01*
X0168200Y0080308D02*
X0029400Y0080308D01*
X0029214Y0081506D02*
X0168200Y0081506D01*
X0168200Y0082705D02*
X0030412Y0082705D01*
X0031031Y0083903D02*
X0168200Y0083903D01*
X0168200Y0085102D02*
X0031450Y0085102D01*
X0031450Y0086300D02*
X0168200Y0086300D01*
X0168200Y0087499D02*
X0031278Y0087499D01*
X0030782Y0088697D02*
X0168200Y0088697D01*
X0168200Y0089896D02*
X0029812Y0089896D01*
X0028398Y0091094D02*
X0168200Y0091094D01*
X0168200Y0092293D02*
X0030000Y0092293D01*
X0030860Y0093491D02*
X0168200Y0093491D01*
X0168200Y0094690D02*
X0031356Y0094690D01*
X0031450Y0095888D02*
X0168200Y0095888D01*
X0168200Y0097087D02*
X0031449Y0097087D01*
X0030952Y0098285D02*
X0168200Y0098285D01*
X0168200Y0099484D02*
X0030224Y0099484D01*
X0028937Y0100682D02*
X0168200Y0100682D01*
X0168200Y0101881D02*
X0029588Y0101881D01*
X0030689Y0103079D02*
X0168200Y0103079D01*
X0168200Y0104278D02*
X0031186Y0104278D01*
X0031450Y0105476D02*
X0168200Y0105476D01*
X0168200Y0106675D02*
X0031450Y0106675D01*
X0031123Y0107873D02*
X0168200Y0107873D01*
X0168200Y0109072D02*
X0030627Y0109072D01*
X0029437Y0110270D02*
X0168200Y0110270D01*
X0168200Y0111469D02*
X0029176Y0111469D01*
X0030375Y0112668D02*
X0168200Y0112668D01*
X0168200Y0113866D02*
X0031015Y0113866D01*
X0031450Y0115065D02*
X0168200Y0115065D01*
X0168200Y0116263D02*
X0031450Y0116263D01*
X0031294Y0117462D02*
X0168200Y0117462D01*
X0168200Y0118660D02*
X0030797Y0118660D01*
X0029849Y0119859D02*
X0168200Y0119859D01*
X0168200Y0121057D02*
X0028308Y0121057D01*
X0029963Y0122256D02*
X0168200Y0122256D01*
X0168200Y0123454D02*
X0030844Y0123454D01*
X0031341Y0124653D02*
X0168200Y0124653D01*
X0168200Y0125851D02*
X0031450Y0125851D01*
X0031450Y0127050D02*
X0168200Y0127050D01*
X0168200Y0128248D02*
X0030968Y0128248D01*
X0030261Y0129447D02*
X0168200Y0129447D01*
X0168200Y0130645D02*
X0029027Y0130645D01*
X0029551Y0131844D02*
X0168200Y0131844D01*
X0168200Y0133042D02*
X0030674Y0133042D01*
X0031170Y0134241D02*
X0168200Y0134241D01*
X0168200Y0135439D02*
X0031450Y0135439D01*
X0031450Y0136638D02*
X0168200Y0136638D01*
X0168200Y0137836D02*
X0031138Y0137836D01*
X0030642Y0139035D02*
X0168200Y0139035D01*
X0168200Y0140233D02*
X0029474Y0140233D01*
X0029139Y0141432D02*
X0168200Y0141432D01*
X0168200Y0142630D02*
X0030338Y0142630D01*
X0031000Y0143829D02*
X0168200Y0143829D01*
X0168200Y0145027D02*
X0031450Y0145027D01*
X0031450Y0146226D02*
X0168200Y0146226D01*
X0168200Y0147424D02*
X0031309Y0147424D01*
X0030813Y0148623D02*
X0168200Y0148623D01*
X0168200Y0149821D02*
X0029886Y0149821D01*
X0028218Y0151020D02*
X0168200Y0151020D01*
X0168200Y0152218D02*
X0029926Y0152218D01*
X0030829Y0153417D02*
X0168200Y0153417D01*
X0168200Y0154615D02*
X0031326Y0154615D01*
X0031450Y0155814D02*
X0168200Y0155814D01*
X0168200Y0157012D02*
X0031450Y0157012D01*
X0030983Y0158211D02*
X0040417Y0158211D01*
X0038631Y0159409D02*
X0030298Y0159409D01*
X0029099Y0160608D02*
X0037432Y0160608D01*
X0036234Y0161806D02*
X0029514Y0161806D01*
X0030658Y0163005D02*
X0035035Y0163005D01*
X0033837Y0164203D02*
X0031155Y0164203D01*
X0031450Y0165402D02*
X0032638Y0165402D01*
X0036962Y0168998D02*
X0047200Y0168998D01*
X0047200Y0168544D02*
X0047200Y0170840D01*
X0034840Y0183200D01*
X0030739Y0183200D01*
X0030620Y0182913D01*
X0029087Y0181380D01*
X0028170Y0181000D01*
X0029087Y0180620D01*
X0030620Y0179087D01*
X0031450Y0177084D01*
X0031450Y0174916D01*
X0031331Y0174629D01*
X0042160Y0163800D01*
X0059840Y0163800D01*
X0062496Y0166456D01*
X0061933Y0166223D01*
X0061315Y0166100D01*
X0061200Y0166100D01*
X0061200Y0170800D01*
X0060800Y0170800D01*
X0060800Y0166100D01*
X0060685Y0166100D01*
X0060067Y0166223D01*
X0059484Y0166464D01*
X0058960Y0166814D01*
X0058924Y0166850D01*
X0058153Y0166079D01*
X0056756Y0165500D01*
X0055244Y0165500D01*
X0053847Y0166079D01*
X0053500Y0166426D01*
X0053153Y0166079D01*
X0051756Y0165500D01*
X0050244Y0165500D01*
X0048847Y0166079D01*
X0047779Y0167147D01*
X0047200Y0168544D01*
X0047509Y0167799D02*
X0038161Y0167799D01*
X0039359Y0166601D02*
X0048325Y0166601D01*
X0047200Y0170196D02*
X0035764Y0170196D01*
X0034565Y0171395D02*
X0046646Y0171395D01*
X0045447Y0172593D02*
X0033367Y0172593D01*
X0032168Y0173792D02*
X0044249Y0173792D01*
X0043050Y0174990D02*
X0031450Y0174990D01*
X0031450Y0176189D02*
X0041852Y0176189D01*
X0040653Y0177387D02*
X0031324Y0177387D01*
X0030828Y0178586D02*
X0039455Y0178586D01*
X0038256Y0179784D02*
X0029923Y0179784D01*
X0028212Y0180983D02*
X0037058Y0180983D01*
X0035859Y0182181D02*
X0029889Y0182181D01*
X0026000Y0186000D02*
X0036000Y0186000D01*
X0051000Y0171000D01*
X0056000Y0171000D02*
X0056000Y0176000D01*
X0051000Y0181000D01*
X0051000Y0195409D01*
X0051000Y0261000D01*
X0026000Y0286000D01*
X0029660Y0290047D02*
X0202340Y0290047D01*
X0202182Y0291246D02*
X0027577Y0291246D01*
X0029303Y0292444D02*
X0201175Y0292444D01*
X0201150Y0293643D02*
X0030242Y0293643D01*
X0030723Y0294841D02*
X0201150Y0294841D01*
X0201150Y0297238D02*
X0030697Y0297238D01*
X0030731Y0297136D02*
X0030495Y0297862D01*
X0030148Y0298542D01*
X0029699Y0299160D01*
X0029160Y0299699D01*
X0028542Y0300148D01*
X0027862Y0300495D01*
X0027136Y0300731D01*
X0026425Y0300843D01*
X0026425Y0296425D01*
X0030843Y0296425D01*
X0030731Y0297136D01*
X0030202Y0298437D02*
X0201150Y0298437D01*
X0201197Y0299635D02*
X0029224Y0299635D01*
X0026425Y0299635D02*
X0025575Y0299635D01*
X0025575Y0298437D02*
X0026425Y0298437D01*
X0026425Y0297238D02*
X0025575Y0297238D01*
X0025575Y0296040D02*
X0016425Y0296040D01*
X0016425Y0296425D02*
X0020850Y0296425D01*
X0020850Y0299461D01*
X0020741Y0299868D01*
X0020530Y0300232D01*
X0020232Y0300530D01*
X0019868Y0300741D01*
X0019461Y0300850D01*
X0016425Y0300850D01*
X0016425Y0296425D01*
X0016425Y0297238D02*
X0015575Y0297238D01*
X0015575Y0296040D02*
X0006000Y0296040D01*
X0006000Y0297238D02*
X0011150Y0297238D01*
X0011150Y0298437D02*
X0006000Y0298437D01*
X0006000Y0299635D02*
X0011197Y0299635D01*
X0012479Y0300834D02*
X0006000Y0300834D01*
X0006000Y0294841D02*
X0011150Y0294841D01*
X0011150Y0293643D02*
X0006000Y0293643D01*
X0006000Y0292444D02*
X0011175Y0292444D01*
X0012182Y0291246D02*
X0006000Y0291246D01*
X0006000Y0290047D02*
X0012340Y0290047D01*
X0011281Y0288849D02*
X0006000Y0288849D01*
X0006000Y0287650D02*
X0010784Y0287650D01*
X0010550Y0286452D02*
X0006000Y0286452D01*
X0006000Y0285253D02*
X0010550Y0285253D01*
X0010907Y0284055D02*
X0006000Y0284055D01*
X0006000Y0282856D02*
X0011436Y0282856D01*
X0012635Y0281658D02*
X0006000Y0281658D01*
X0006000Y0280459D02*
X0012752Y0280459D01*
X0011553Y0279261D02*
X0006000Y0279261D01*
X0006000Y0278062D02*
X0010955Y0278062D01*
X0010550Y0276864D02*
X0006000Y0276864D01*
X0006000Y0275665D02*
X0010550Y0275665D01*
X0010736Y0274467D02*
X0006000Y0274467D01*
X0006000Y0273268D02*
X0011233Y0273268D01*
X0012223Y0272070D02*
X0006000Y0272070D01*
X0006000Y0270871D02*
X0013518Y0270871D01*
X0011965Y0269672D02*
X0006000Y0269672D01*
X0006000Y0268474D02*
X0011126Y0268474D01*
X0010629Y0267275D02*
X0006000Y0267275D01*
X0006000Y0266077D02*
X0010550Y0266077D01*
X0010566Y0264878D02*
X0006000Y0264878D01*
X0006000Y0263680D02*
X0011062Y0263680D01*
X0011811Y0262481D02*
X0006000Y0262481D01*
X0006000Y0261283D02*
X0013147Y0261283D01*
X0012377Y0260084D02*
X0006000Y0260084D01*
X0006000Y0258886D02*
X0011296Y0258886D01*
X0010800Y0257687D02*
X0006000Y0257687D01*
X0006000Y0256489D02*
X0010550Y0256489D01*
X0010550Y0255290D02*
X0006000Y0255290D01*
X0006000Y0254092D02*
X0010891Y0254092D01*
X0011399Y0252893D02*
X0006000Y0252893D01*
X0006000Y0251695D02*
X0012598Y0251695D01*
X0012789Y0250496D02*
X0006000Y0250496D01*
X0006000Y0249298D02*
X0011590Y0249298D01*
X0010971Y0248099D02*
X0006000Y0248099D01*
X0006000Y0246901D02*
X0010550Y0246901D01*
X0010550Y0245702D02*
X0006000Y0245702D01*
X0006000Y0244504D02*
X0010721Y0244504D01*
X0011217Y0243305D02*
X0006000Y0243305D01*
X0006000Y0242107D02*
X0012186Y0242107D01*
X0013608Y0240908D02*
X0006000Y0240908D01*
X0006000Y0239710D02*
X0012002Y0239710D01*
X0011141Y0238511D02*
X0006000Y0238511D01*
X0006000Y0237313D02*
X0010645Y0237313D01*
X0010550Y0236114D02*
X0006000Y0236114D01*
X0006000Y0234916D02*
X0010550Y0234916D01*
X0011047Y0233717D02*
X0006000Y0233717D01*
X0006000Y0232519D02*
X0011774Y0232519D01*
X0013057Y0231320D02*
X0006000Y0231320D01*
X0006000Y0230122D02*
X0012414Y0230122D01*
X0011312Y0228923D02*
X0006000Y0228923D01*
X0006000Y0227725D02*
X0010815Y0227725D01*
X0010550Y0226526D02*
X0006000Y0226526D01*
X0006000Y0225328D02*
X0010550Y0225328D01*
X0010876Y0224129D02*
X0006000Y0224129D01*
X0006000Y0222931D02*
X0011372Y0222931D01*
X0012560Y0221732D02*
X0006000Y0221732D01*
X0006000Y0220534D02*
X0012826Y0220534D01*
X0011628Y0219335D02*
X0006000Y0219335D01*
X0006000Y0218137D02*
X0010986Y0218137D01*
X0010550Y0216938D02*
X0006000Y0216938D01*
X0006000Y0215739D02*
X0010550Y0215739D01*
X0010705Y0214541D02*
X0006000Y0214541D01*
X0006000Y0213342D02*
X0011202Y0213342D01*
X0012149Y0212144D02*
X0006000Y0212144D01*
X0006000Y0210945D02*
X0013698Y0210945D01*
X0012039Y0209747D02*
X0006000Y0209747D01*
X0006000Y0208548D02*
X0011157Y0208548D01*
X0010660Y0207350D02*
X0006000Y0207350D01*
X0006000Y0206151D02*
X0010550Y0206151D01*
X0010550Y0204953D02*
X0006000Y0204953D01*
X0006000Y0203754D02*
X0011031Y0203754D01*
X0011737Y0202556D02*
X0006000Y0202556D01*
X0006000Y0201357D02*
X0012967Y0201357D01*
X0012451Y0200159D02*
X0006000Y0200159D01*
X0006000Y0198960D02*
X0011327Y0198960D01*
X0010831Y0197762D02*
X0006000Y0197762D01*
X0006000Y0196563D02*
X0010550Y0196563D01*
X0010550Y0195365D02*
X0006000Y0195365D01*
X0006000Y0194166D02*
X0010861Y0194166D01*
X0011357Y0192968D02*
X0006000Y0192968D01*
X0006000Y0191769D02*
X0012523Y0191769D01*
X0012863Y0190571D02*
X0006000Y0190571D01*
X0006000Y0189372D02*
X0011665Y0189372D01*
X0011001Y0188174D02*
X0006000Y0188174D01*
X0006000Y0186975D02*
X0010550Y0186975D01*
X0010550Y0185777D02*
X0006000Y0185777D01*
X0006000Y0184578D02*
X0010690Y0184578D01*
X0011186Y0183380D02*
X0006000Y0183380D01*
X0006000Y0182181D02*
X0012111Y0182181D01*
X0013788Y0180983D02*
X0006000Y0180983D01*
X0006000Y0179784D02*
X0012077Y0179784D01*
X0011172Y0178586D02*
X0006000Y0178586D01*
X0006000Y0177387D02*
X0010676Y0177387D01*
X0010550Y0176189D02*
X0006000Y0176189D01*
X0006000Y0174990D02*
X0010550Y0174990D01*
X0011016Y0173792D02*
X0006000Y0173792D01*
X0006000Y0172593D02*
X0011699Y0172593D01*
X0012898Y0171395D02*
X0006000Y0171395D01*
X0006000Y0170196D02*
X0012489Y0170196D01*
X0011343Y0168998D02*
X0006000Y0168998D01*
X0006000Y0167799D02*
X0010846Y0167799D01*
X0010550Y0166601D02*
X0006000Y0166601D01*
X0006000Y0165402D02*
X0010550Y0165402D01*
X0010845Y0164203D02*
X0006000Y0164203D01*
X0006000Y0163005D02*
X0011342Y0163005D01*
X0012486Y0161806D02*
X0006000Y0161806D01*
X0006000Y0160608D02*
X0012901Y0160608D01*
X0011702Y0159409D02*
X0006000Y0159409D01*
X0006000Y0158211D02*
X0011017Y0158211D01*
X0010550Y0157012D02*
X0006000Y0157012D01*
X0006000Y0155814D02*
X0010550Y0155814D01*
X0010674Y0154615D02*
X0006000Y0154615D01*
X0006000Y0153417D02*
X0011171Y0153417D01*
X0012074Y0152218D02*
X0006000Y0152218D01*
X0006000Y0151020D02*
X0013782Y0151020D01*
X0012114Y0149821D02*
X0006000Y0149821D01*
X0006000Y0148623D02*
X0011187Y0148623D01*
X0010691Y0147424D02*
X0006000Y0147424D01*
X0006000Y0146226D02*
X0010550Y0146226D01*
X0010550Y0145027D02*
X0006000Y0145027D01*
X0006000Y0143829D02*
X0011000Y0143829D01*
X0011662Y0142630D02*
X0006000Y0142630D01*
X0006000Y0141432D02*
X0012861Y0141432D01*
X0012526Y0140233D02*
X0006000Y0140233D01*
X0006000Y0139035D02*
X0011358Y0139035D01*
X0010862Y0137836D02*
X0006000Y0137836D01*
X0006000Y0136638D02*
X0010550Y0136638D01*
X0010550Y0135439D02*
X0006000Y0135439D01*
X0006000Y0134241D02*
X0010830Y0134241D01*
X0011326Y0133042D02*
X0006000Y0133042D01*
X0006000Y0131844D02*
X0012449Y0131844D01*
X0012973Y0130645D02*
X0006000Y0130645D01*
X0006000Y0129447D02*
X0011739Y0129447D01*
X0011032Y0128248D02*
X0006000Y0128248D01*
X0006000Y0127050D02*
X0010550Y0127050D01*
X0010550Y0125851D02*
X0006000Y0125851D01*
X0006000Y0124653D02*
X0010659Y0124653D01*
X0011155Y0123454D02*
X0006000Y0123454D01*
X0006000Y0122256D02*
X0012037Y0122256D01*
X0013692Y0121057D02*
X0006000Y0121057D01*
X0006000Y0119859D02*
X0012151Y0119859D01*
X0011203Y0118660D02*
X0006000Y0118660D01*
X0006000Y0117462D02*
X0010706Y0117462D01*
X0010550Y0116263D02*
X0006000Y0116263D01*
X0006000Y0115065D02*
X0010550Y0115065D01*
X0010985Y0113866D02*
X0006000Y0113866D01*
X0006000Y0112668D02*
X0011625Y0112668D01*
X0012824Y0111469D02*
X0006000Y0111469D01*
X0006000Y0110270D02*
X0012563Y0110270D01*
X0011373Y0109072D02*
X0006000Y0109072D01*
X0006000Y0107873D02*
X0010877Y0107873D01*
X0010550Y0106675D02*
X0006000Y0106675D01*
X0006000Y0105476D02*
X0010550Y0105476D01*
X0010814Y0104278D02*
X0006000Y0104278D01*
X0006000Y0103079D02*
X0011311Y0103079D01*
X0012412Y0101881D02*
X0006000Y0101881D01*
X0006000Y0100682D02*
X0013063Y0100682D01*
X0011776Y0099484D02*
X0006000Y0099484D01*
X0006000Y0098285D02*
X0011048Y0098285D01*
X0010551Y0097087D02*
X0006000Y0097087D01*
X0006000Y0095888D02*
X0010550Y0095888D01*
X0010644Y0094690D02*
X0006000Y0094690D01*
X0006000Y0093491D02*
X0011140Y0093491D01*
X0012000Y0092293D02*
X0006000Y0092293D01*
X0006000Y0091094D02*
X0013602Y0091094D01*
X0012188Y0089896D02*
X0006000Y0089896D01*
X0006000Y0088697D02*
X0011218Y0088697D01*
X0010722Y0087499D02*
X0006000Y0087499D01*
X0006000Y0086300D02*
X0010550Y0086300D01*
X0010550Y0085102D02*
X0006000Y0085102D01*
X0006000Y0083903D02*
X0010969Y0083903D01*
X0011588Y0082705D02*
X0006000Y0082705D01*
X0006000Y0081506D02*
X0012786Y0081506D01*
X0012600Y0080308D02*
X0006000Y0080308D01*
X0006000Y0079109D02*
X0011402Y0079109D01*
X0010892Y0077911D02*
X0006000Y0077911D01*
X0006000Y0076712D02*
X0010550Y0076712D01*
X0010550Y0075514D02*
X0006000Y0075514D01*
X0006000Y0074315D02*
X0010799Y0074315D01*
X0011295Y0073117D02*
X0006000Y0073117D01*
X0006000Y0071918D02*
X0012374Y0071918D01*
X0014506Y0070720D02*
X0006000Y0070720D01*
X0017494Y0070720D02*
X0024506Y0070720D01*
X0022374Y0071918D02*
X0019626Y0071918D01*
X0020705Y0073117D02*
X0021295Y0073117D01*
X0061583Y0158211D02*
X0168200Y0158211D01*
X0168200Y0159409D02*
X0063369Y0159409D01*
X0064568Y0160608D02*
X0168200Y0160608D01*
X0168122Y0161806D02*
X0065766Y0161806D01*
X0066965Y0163005D02*
X0166924Y0163005D01*
X0166000Y0164203D02*
X0068163Y0164203D01*
X0068783Y0165402D02*
X0166000Y0165402D01*
X0166000Y0166601D02*
X0068800Y0166601D01*
X0069491Y0167799D02*
X0165241Y0167799D01*
X0164043Y0168998D02*
X0069800Y0168998D01*
X0069800Y0170196D02*
X0162844Y0170196D01*
X0161646Y0171395D02*
X0069800Y0171395D01*
X0069800Y0172593D02*
X0160447Y0172593D01*
X0159249Y0173792D02*
X0069661Y0173792D01*
X0069084Y0174990D02*
X0158050Y0174990D01*
X0156852Y0176189D02*
X0067508Y0176189D01*
X0064492Y0176189D02*
X0058800Y0176189D01*
X0058456Y0177387D02*
X0155653Y0177387D01*
X0172786Y0188174D02*
X0184866Y0188174D01*
X0183668Y0189372D02*
X0098332Y0189372D01*
X0099531Y0190571D02*
X0182469Y0190571D01*
X0181271Y0191769D02*
X0100729Y0191769D01*
X0101928Y0192968D02*
X0180072Y0192968D01*
X0178874Y0194166D02*
X0103126Y0194166D01*
X0103768Y0195365D02*
X0177675Y0195365D01*
X0176477Y0196563D02*
X0133289Y0196563D01*
X0134797Y0197762D02*
X0138051Y0197762D01*
X0138150Y0197663D02*
X0138707Y0197258D01*
X0139321Y0196946D01*
X0139976Y0196733D01*
X0140656Y0196625D01*
X0140813Y0196625D01*
X0140813Y0200813D01*
X0136625Y0200813D01*
X0136625Y0200656D01*
X0136733Y0199976D01*
X0136946Y0199321D01*
X0137258Y0198707D01*
X0137663Y0198150D01*
X0138150Y0197663D01*
X0137129Y0198960D02*
X0135540Y0198960D01*
X0135975Y0200159D02*
X0136704Y0200159D01*
X0136627Y0201357D02*
X0135975Y0201357D01*
X0136516Y0202556D02*
X0136906Y0202556D01*
X0138913Y0204953D02*
X0139122Y0204953D01*
X0140111Y0206151D02*
X0166889Y0206151D01*
X0168087Y0204953D02*
X0142878Y0204953D01*
X0141187Y0204953D02*
X0140813Y0204953D01*
X0140813Y0203754D02*
X0141187Y0203754D01*
X0141187Y0202556D02*
X0140813Y0202556D01*
X0140813Y0201357D02*
X0141187Y0201357D01*
X0141187Y0200159D02*
X0140813Y0200159D01*
X0140813Y0198960D02*
X0141187Y0198960D01*
X0141187Y0197762D02*
X0140813Y0197762D01*
X0143949Y0197762D02*
X0175278Y0197762D01*
X0174080Y0198960D02*
X0144871Y0198960D01*
X0145296Y0200159D02*
X0172881Y0200159D01*
X0171683Y0201357D02*
X0145373Y0201357D01*
X0145094Y0202556D02*
X0170484Y0202556D01*
X0169286Y0203754D02*
X0144406Y0203754D01*
X0141310Y0207350D02*
X0165690Y0207350D01*
X0166000Y0211000D02*
X0141000Y0211000D01*
X0131000Y0201000D01*
X0127203Y0197762D02*
X0125975Y0197762D01*
X0125975Y0197314D02*
X0124686Y0196025D01*
X0117314Y0196025D01*
X0116025Y0197314D01*
X0116025Y0204686D01*
X0117314Y0205975D01*
X0124686Y0205975D01*
X0125975Y0204686D01*
X0125975Y0197314D01*
X0125224Y0196563D02*
X0128711Y0196563D01*
X0126460Y0198960D02*
X0125975Y0198960D01*
X0125975Y0200159D02*
X0126025Y0200159D01*
X0126025Y0201357D02*
X0125975Y0201357D01*
X0125975Y0202556D02*
X0126260Y0202556D01*
X0125975Y0203754D02*
X0126756Y0203754D01*
X0125708Y0204953D02*
X0127917Y0204953D01*
X0132192Y0206151D02*
X0105111Y0206151D01*
X0103913Y0204953D02*
X0116292Y0204953D01*
X0116025Y0203754D02*
X0103800Y0203754D01*
X0103800Y0202556D02*
X0116025Y0202556D01*
X0116025Y0201357D02*
X0103800Y0201357D01*
X0103800Y0200159D02*
X0116025Y0200159D01*
X0116025Y0198960D02*
X0103800Y0198960D01*
X0103800Y0197762D02*
X0116025Y0197762D01*
X0116776Y0196563D02*
X0103800Y0196563D01*
X0106310Y0207350D02*
X0133390Y0207350D01*
X0134589Y0208548D02*
X0117398Y0208548D01*
X0118707Y0209747D02*
X0135787Y0209747D01*
X0136986Y0210945D02*
X0119905Y0210945D01*
X0121104Y0212144D02*
X0138184Y0212144D01*
X0139383Y0213342D02*
X0122302Y0213342D01*
X0123501Y0214541D02*
X0200705Y0214541D01*
X0200550Y0215739D02*
X0124699Y0215739D01*
X0125898Y0216938D02*
X0200550Y0216938D01*
X0200986Y0218137D02*
X0127096Y0218137D01*
X0128295Y0219335D02*
X0201628Y0219335D01*
X0202826Y0220534D02*
X0129493Y0220534D01*
X0143696Y0221732D02*
X0168197Y0221732D01*
X0166998Y0222931D02*
X0144966Y0222931D01*
X0145112Y0228923D02*
X0166852Y0228923D01*
X0168051Y0230122D02*
X0143914Y0230122D01*
X0166000Y0211000D02*
X0196000Y0181000D01*
X0196000Y0061000D01*
X0211000Y0046000D01*
X0215975Y0045551D02*
X0226000Y0045551D01*
X0226000Y0046749D02*
X0215975Y0046749D01*
X0215975Y0047948D02*
X0226000Y0047948D01*
X0226000Y0049146D02*
X0215975Y0049146D01*
X0215316Y0050345D02*
X0226000Y0050345D01*
X0226000Y0051543D02*
X0209416Y0051543D01*
X0208218Y0052742D02*
X0226000Y0052742D01*
X0226000Y0053940D02*
X0207019Y0053940D01*
X0205821Y0055139D02*
X0226000Y0055139D01*
X0226000Y0056337D02*
X0204622Y0056337D01*
X0203424Y0057536D02*
X0226000Y0057536D01*
X0226000Y0058734D02*
X0202225Y0058734D01*
X0201027Y0059933D02*
X0226000Y0059933D01*
X0226000Y0061132D02*
X0199828Y0061132D01*
X0198800Y0062330D02*
X0226000Y0062330D01*
X0226000Y0063529D02*
X0198800Y0063529D01*
X0198800Y0064727D02*
X0226000Y0064727D01*
X0226000Y0065926D02*
X0198800Y0065926D01*
X0198800Y0067124D02*
X0226000Y0067124D01*
X0226000Y0068323D02*
X0198800Y0068323D01*
X0198800Y0069521D02*
X0226000Y0069521D01*
X0226000Y0070720D02*
X0217494Y0070720D01*
X0219626Y0071918D02*
X0226000Y0071918D01*
X0226000Y0073117D02*
X0220705Y0073117D01*
X0221201Y0074315D02*
X0226000Y0074315D01*
X0226000Y0075514D02*
X0221450Y0075514D01*
X0221450Y0076712D02*
X0226000Y0076712D01*
X0226000Y0077911D02*
X0221108Y0077911D01*
X0220598Y0079109D02*
X0226000Y0079109D01*
X0226000Y0080308D02*
X0219400Y0080308D01*
X0219214Y0081506D02*
X0226000Y0081506D01*
X0226000Y0082705D02*
X0220412Y0082705D01*
X0221031Y0083903D02*
X0226000Y0083903D01*
X0226000Y0085102D02*
X0221450Y0085102D01*
X0221450Y0086300D02*
X0226000Y0086300D01*
X0226000Y0087499D02*
X0221278Y0087499D01*
X0220782Y0088697D02*
X0226000Y0088697D01*
X0226000Y0089896D02*
X0219812Y0089896D01*
X0218398Y0091094D02*
X0226000Y0091094D01*
X0226000Y0092293D02*
X0220000Y0092293D01*
X0220860Y0093491D02*
X0226000Y0093491D01*
X0226000Y0094690D02*
X0221356Y0094690D01*
X0221450Y0095888D02*
X0226000Y0095888D01*
X0226000Y0097087D02*
X0221449Y0097087D01*
X0220952Y0098285D02*
X0226000Y0098285D01*
X0226000Y0099484D02*
X0220224Y0099484D01*
X0218937Y0100682D02*
X0226000Y0100682D01*
X0226000Y0101881D02*
X0219588Y0101881D01*
X0220689Y0103079D02*
X0226000Y0103079D01*
X0226000Y0104278D02*
X0221186Y0104278D01*
X0221450Y0105476D02*
X0226000Y0105476D01*
X0226000Y0106675D02*
X0221450Y0106675D01*
X0221123Y0107873D02*
X0226000Y0107873D01*
X0226000Y0109072D02*
X0220627Y0109072D01*
X0219437Y0110270D02*
X0226000Y0110270D01*
X0226000Y0111469D02*
X0219176Y0111469D01*
X0220375Y0112668D02*
X0226000Y0112668D01*
X0226000Y0113866D02*
X0221015Y0113866D01*
X0221450Y0115065D02*
X0226000Y0115065D01*
X0226000Y0116263D02*
X0221450Y0116263D01*
X0221294Y0117462D02*
X0226000Y0117462D01*
X0226000Y0118660D02*
X0220797Y0118660D01*
X0219849Y0119859D02*
X0226000Y0119859D01*
X0226000Y0121057D02*
X0218308Y0121057D01*
X0219963Y0122256D02*
X0226000Y0122256D01*
X0226000Y0123454D02*
X0220844Y0123454D01*
X0221341Y0124653D02*
X0226000Y0124653D01*
X0226000Y0125851D02*
X0221450Y0125851D01*
X0221450Y0127050D02*
X0226000Y0127050D01*
X0226000Y0128248D02*
X0220968Y0128248D01*
X0220261Y0129447D02*
X0226000Y0129447D01*
X0226000Y0130645D02*
X0219027Y0130645D01*
X0219551Y0131844D02*
X0226000Y0131844D01*
X0226000Y0133042D02*
X0220674Y0133042D01*
X0221170Y0134241D02*
X0226000Y0134241D01*
X0226000Y0135439D02*
X0221450Y0135439D01*
X0221450Y0136638D02*
X0226000Y0136638D01*
X0226000Y0137836D02*
X0221138Y0137836D01*
X0220642Y0139035D02*
X0226000Y0139035D01*
X0226000Y0140233D02*
X0219474Y0140233D01*
X0219139Y0141432D02*
X0226000Y0141432D01*
X0226000Y0142630D02*
X0220338Y0142630D01*
X0221000Y0143829D02*
X0226000Y0143829D01*
X0226000Y0145027D02*
X0221450Y0145027D01*
X0221450Y0146226D02*
X0226000Y0146226D01*
X0226000Y0147424D02*
X0221309Y0147424D01*
X0220813Y0148623D02*
X0226000Y0148623D01*
X0226000Y0149821D02*
X0219886Y0149821D01*
X0218218Y0151020D02*
X0226000Y0151020D01*
X0226000Y0152218D02*
X0219926Y0152218D01*
X0220829Y0153417D02*
X0226000Y0153417D01*
X0226000Y0154615D02*
X0221326Y0154615D01*
X0221450Y0155814D02*
X0226000Y0155814D01*
X0226000Y0157012D02*
X0221450Y0157012D01*
X0220983Y0158211D02*
X0226000Y0158211D01*
X0226000Y0159409D02*
X0220298Y0159409D01*
X0219099Y0160608D02*
X0226000Y0160608D01*
X0226000Y0161806D02*
X0219514Y0161806D01*
X0220658Y0163005D02*
X0226000Y0163005D01*
X0226000Y0164203D02*
X0221155Y0164203D01*
X0221450Y0165402D02*
X0226000Y0165402D01*
X0226000Y0166601D02*
X0221450Y0166601D01*
X0221154Y0167799D02*
X0226000Y0167799D01*
X0226000Y0168998D02*
X0220657Y0168998D01*
X0219511Y0170196D02*
X0226000Y0170196D01*
X0226000Y0171395D02*
X0219102Y0171395D01*
X0220301Y0172593D02*
X0226000Y0172593D01*
X0226000Y0173792D02*
X0220984Y0173792D01*
X0221450Y0174990D02*
X0226000Y0174990D01*
X0226000Y0176189D02*
X0221450Y0176189D01*
X0221324Y0177387D02*
X0226000Y0177387D01*
X0226000Y0178586D02*
X0220828Y0178586D01*
X0219923Y0179784D02*
X0226000Y0179784D01*
X0226000Y0180983D02*
X0218212Y0180983D01*
X0219889Y0182181D02*
X0226000Y0182181D01*
X0226000Y0183380D02*
X0220814Y0183380D01*
X0221310Y0184578D02*
X0226000Y0184578D01*
X0226000Y0185777D02*
X0221450Y0185777D01*
X0221450Y0186975D02*
X0226000Y0186975D01*
X0226000Y0188174D02*
X0220999Y0188174D01*
X0220335Y0189372D02*
X0226000Y0189372D01*
X0226000Y0190571D02*
X0219137Y0190571D01*
X0219477Y0191769D02*
X0226000Y0191769D01*
X0226000Y0192968D02*
X0220643Y0192968D01*
X0221139Y0194166D02*
X0226000Y0194166D01*
X0226000Y0195365D02*
X0221450Y0195365D01*
X0221450Y0196563D02*
X0226000Y0196563D01*
X0226000Y0197762D02*
X0221169Y0197762D01*
X0220673Y0198960D02*
X0226000Y0198960D01*
X0226000Y0200159D02*
X0219549Y0200159D01*
X0219033Y0201357D02*
X0226000Y0201357D01*
X0226000Y0202556D02*
X0220263Y0202556D01*
X0220969Y0203754D02*
X0226000Y0203754D01*
X0226000Y0204953D02*
X0221450Y0204953D01*
X0221450Y0206151D02*
X0226000Y0206151D01*
X0226000Y0207350D02*
X0221340Y0207350D01*
X0220843Y0208548D02*
X0226000Y0208548D01*
X0226000Y0209747D02*
X0219961Y0209747D01*
X0218302Y0210945D02*
X0226000Y0210945D01*
X0226000Y0212144D02*
X0219851Y0212144D01*
X0220798Y0213342D02*
X0226000Y0213342D01*
X0226000Y0214541D02*
X0221295Y0214541D01*
X0221450Y0215739D02*
X0226000Y0215739D01*
X0226000Y0216938D02*
X0221450Y0216938D01*
X0221014Y0218137D02*
X0226000Y0218137D01*
X0226000Y0219335D02*
X0220372Y0219335D01*
X0219174Y0220534D02*
X0226000Y0220534D01*
X0226000Y0221732D02*
X0219439Y0221732D01*
X0220628Y0222931D02*
X0226000Y0222931D01*
X0226000Y0224129D02*
X0221124Y0224129D01*
X0221450Y0225328D02*
X0226000Y0225328D01*
X0226000Y0226526D02*
X0221450Y0226526D01*
X0221185Y0227725D02*
X0226000Y0227725D01*
X0226000Y0228923D02*
X0220688Y0228923D01*
X0219586Y0230122D02*
X0226000Y0230122D01*
X0226000Y0231320D02*
X0218943Y0231320D01*
X0220226Y0232519D02*
X0226000Y0232519D01*
X0226000Y0233717D02*
X0220953Y0233717D01*
X0221450Y0234916D02*
X0226000Y0234916D01*
X0226000Y0236114D02*
X0221450Y0236114D01*
X0221355Y0237313D02*
X0226000Y0237313D01*
X0226000Y0238511D02*
X0220859Y0238511D01*
X0219998Y0239710D02*
X0226000Y0239710D01*
X0226000Y0240908D02*
X0218392Y0240908D01*
X0219814Y0242107D02*
X0226000Y0242107D01*
X0226000Y0243305D02*
X0220783Y0243305D01*
X0221279Y0244504D02*
X0226000Y0244504D01*
X0226000Y0245702D02*
X0221450Y0245702D01*
X0221450Y0246901D02*
X0226000Y0246901D01*
X0226000Y0248099D02*
X0221029Y0248099D01*
X0220410Y0249298D02*
X0226000Y0249298D01*
X0226000Y0250496D02*
X0219211Y0250496D01*
X0219402Y0251695D02*
X0226000Y0251695D01*
X0226000Y0252893D02*
X0220601Y0252893D01*
X0221109Y0254092D02*
X0226000Y0254092D01*
X0226000Y0255290D02*
X0221450Y0255290D01*
X0221450Y0256489D02*
X0226000Y0256489D01*
X0226000Y0257687D02*
X0221200Y0257687D01*
X0220704Y0258886D02*
X0226000Y0258886D01*
X0226000Y0260084D02*
X0219623Y0260084D01*
X0218853Y0261283D02*
X0226000Y0261283D01*
X0226000Y0262481D02*
X0220189Y0262481D01*
X0220938Y0263680D02*
X0226000Y0263680D01*
X0226000Y0264878D02*
X0221434Y0264878D01*
X0221450Y0266077D02*
X0226000Y0266077D01*
X0226000Y0267275D02*
X0221371Y0267275D01*
X0220874Y0268474D02*
X0226000Y0268474D01*
X0226000Y0269672D02*
X0220035Y0269672D01*
X0218482Y0270871D02*
X0226000Y0270871D01*
X0226000Y0272070D02*
X0219777Y0272070D01*
X0220767Y0273268D02*
X0226000Y0273268D01*
X0226000Y0274467D02*
X0221264Y0274467D01*
X0221450Y0275665D02*
X0226000Y0275665D01*
X0226000Y0276864D02*
X0221450Y0276864D01*
X0221045Y0278062D02*
X0226000Y0278062D01*
X0226000Y0279261D02*
X0220447Y0279261D01*
X0219248Y0280459D02*
X0226000Y0280459D01*
X0226000Y0281658D02*
X0219365Y0281658D01*
X0220564Y0282856D02*
X0226000Y0282856D01*
X0226000Y0284055D02*
X0221093Y0284055D01*
X0221450Y0285253D02*
X0226000Y0285253D01*
X0226000Y0286452D02*
X0221450Y0286452D01*
X0221216Y0287650D02*
X0226000Y0287650D01*
X0226000Y0288849D02*
X0220719Y0288849D01*
X0219660Y0290047D02*
X0226000Y0290047D01*
X0226000Y0291246D02*
X0217577Y0291246D01*
X0219303Y0292444D02*
X0226000Y0292444D01*
X0226000Y0293643D02*
X0220242Y0293643D01*
X0220723Y0294841D02*
X0226000Y0294841D01*
X0226000Y0296040D02*
X0216425Y0296040D01*
X0216425Y0296425D02*
X0220843Y0296425D01*
X0220731Y0297136D01*
X0220495Y0297862D01*
X0220148Y0298542D01*
X0219699Y0299160D01*
X0219160Y0299699D01*
X0218542Y0300148D01*
X0217862Y0300495D01*
X0217136Y0300731D01*
X0216425Y0300843D01*
X0216425Y0296425D01*
X0216425Y0297238D02*
X0215575Y0297238D01*
X0215575Y0296040D02*
X0206425Y0296040D01*
X0206425Y0296425D02*
X0210850Y0296425D01*
X0210850Y0299461D01*
X0210741Y0299868D01*
X0210530Y0300232D01*
X0210232Y0300530D01*
X0209868Y0300741D01*
X0209461Y0300850D01*
X0206425Y0300850D01*
X0206425Y0296425D01*
X0206425Y0297238D02*
X0205575Y0297238D01*
X0205575Y0296040D02*
X0026425Y0296040D01*
X0026425Y0300834D02*
X0025575Y0300834D01*
X0025516Y0300834D02*
X0019521Y0300834D01*
X0020803Y0299635D02*
X0022776Y0299635D01*
X0021798Y0298437D02*
X0020850Y0298437D01*
X0020850Y0297238D02*
X0021303Y0297238D01*
X0021277Y0294841D02*
X0020850Y0294841D01*
X0020850Y0293643D02*
X0021758Y0293643D01*
X0020824Y0292444D02*
X0022697Y0292444D01*
X0024423Y0291246D02*
X0019818Y0291246D01*
X0019660Y0290047D02*
X0022340Y0290047D01*
X0021281Y0288849D02*
X0020719Y0288849D01*
X0016425Y0298437D02*
X0015575Y0298437D01*
X0015575Y0299635D02*
X0016425Y0299635D01*
X0016425Y0300834D02*
X0015575Y0300834D01*
X0026484Y0300834D02*
X0202479Y0300834D01*
X0205575Y0300834D02*
X0206425Y0300834D01*
X0206425Y0299635D02*
X0205575Y0299635D01*
X0205575Y0298437D02*
X0206425Y0298437D01*
X0209521Y0300834D02*
X0215516Y0300834D01*
X0215575Y0300834D02*
X0216425Y0300834D01*
X0216484Y0300834D02*
X0226000Y0300834D01*
X0226000Y0299635D02*
X0219224Y0299635D01*
X0220202Y0298437D02*
X0226000Y0298437D01*
X0226000Y0297238D02*
X0220697Y0297238D01*
X0216425Y0298437D02*
X0215575Y0298437D01*
X0215575Y0299635D02*
X0216425Y0299635D01*
X0212776Y0299635D02*
X0210803Y0299635D01*
X0210850Y0298437D02*
X0211798Y0298437D01*
X0211303Y0297238D02*
X0210850Y0297238D01*
X0210850Y0294841D02*
X0211277Y0294841D01*
X0210850Y0293643D02*
X0211758Y0293643D01*
X0210824Y0292444D02*
X0212697Y0292444D01*
X0214423Y0291246D02*
X0209818Y0291246D01*
X0209660Y0290047D02*
X0212340Y0290047D01*
X0211281Y0288849D02*
X0210719Y0288849D01*
X0201281Y0288849D02*
X0030719Y0288849D01*
X0031216Y0287650D02*
X0200784Y0287650D01*
X0200550Y0286452D02*
X0031450Y0286452D01*
X0031450Y0285253D02*
X0200550Y0285253D01*
X0200907Y0284055D02*
X0031905Y0284055D01*
X0033104Y0282856D02*
X0201436Y0282856D01*
X0202635Y0281658D02*
X0034302Y0281658D01*
X0035501Y0280459D02*
X0202752Y0280459D01*
X0201553Y0279261D02*
X0036699Y0279261D01*
X0037898Y0278062D02*
X0200955Y0278062D01*
X0200550Y0276864D02*
X0039096Y0276864D01*
X0040295Y0275665D02*
X0200550Y0275665D01*
X0200736Y0274467D02*
X0041493Y0274467D01*
X0042692Y0273268D02*
X0201233Y0273268D01*
X0202223Y0272070D02*
X0043890Y0272070D01*
X0045089Y0270871D02*
X0203518Y0270871D01*
X0201965Y0269672D02*
X0046287Y0269672D01*
X0047486Y0268474D02*
X0201126Y0268474D01*
X0200629Y0267275D02*
X0048684Y0267275D01*
X0049883Y0266077D02*
X0200550Y0266077D01*
X0200566Y0264878D02*
X0051081Y0264878D01*
X0052280Y0263680D02*
X0201062Y0263680D01*
X0201811Y0262481D02*
X0053417Y0262481D01*
X0053800Y0261283D02*
X0203147Y0261283D01*
X0202377Y0260084D02*
X0053800Y0260084D01*
X0053800Y0258886D02*
X0201296Y0258886D01*
X0200800Y0257687D02*
X0053800Y0257687D01*
X0053800Y0256489D02*
X0200550Y0256489D01*
X0200550Y0255290D02*
X0053800Y0255290D01*
X0053800Y0254092D02*
X0200891Y0254092D01*
X0201399Y0252893D02*
X0053800Y0252893D01*
X0053800Y0251695D02*
X0202598Y0251695D01*
X0202789Y0250496D02*
X0053800Y0250496D01*
X0053800Y0249298D02*
X0201590Y0249298D01*
X0200971Y0248099D02*
X0053800Y0248099D01*
X0053800Y0246901D02*
X0200550Y0246901D01*
X0200550Y0245702D02*
X0053800Y0245702D01*
X0053800Y0244504D02*
X0200721Y0244504D01*
X0201217Y0243305D02*
X0053800Y0243305D01*
X0053800Y0242107D02*
X0202186Y0242107D01*
X0203608Y0240908D02*
X0053800Y0240908D01*
X0053800Y0239710D02*
X0202002Y0239710D01*
X0206000Y0236000D02*
X0081000Y0236000D01*
X0066000Y0221000D01*
X0066000Y0195409D01*
X0063200Y0201357D02*
X0053800Y0201357D01*
X0053800Y0202556D02*
X0063200Y0202556D01*
X0063200Y0203754D02*
X0053800Y0203754D01*
X0053800Y0204953D02*
X0063200Y0204953D01*
X0063200Y0206151D02*
X0053800Y0206151D01*
X0053800Y0207350D02*
X0063200Y0207350D01*
X0063200Y0208548D02*
X0053800Y0208548D01*
X0053800Y0209747D02*
X0063200Y0209747D01*
X0063200Y0210945D02*
X0053800Y0210945D01*
X0053800Y0212144D02*
X0063200Y0212144D01*
X0063200Y0213342D02*
X0053800Y0213342D01*
X0053800Y0214541D02*
X0063200Y0214541D01*
X0063200Y0215739D02*
X0053800Y0215739D01*
X0053800Y0216938D02*
X0063200Y0216938D01*
X0063200Y0218137D02*
X0053800Y0218137D01*
X0053800Y0219335D02*
X0063200Y0219335D01*
X0063200Y0220534D02*
X0053800Y0220534D01*
X0053800Y0221732D02*
X0063273Y0221732D01*
X0063971Y0222931D02*
X0053800Y0222931D01*
X0053800Y0224129D02*
X0065169Y0224129D01*
X0066368Y0225328D02*
X0053800Y0225328D01*
X0053800Y0226526D02*
X0067566Y0226526D01*
X0068765Y0227725D02*
X0053800Y0227725D01*
X0053800Y0228923D02*
X0069963Y0228923D01*
X0071162Y0230122D02*
X0053800Y0230122D01*
X0053800Y0231320D02*
X0072360Y0231320D01*
X0073559Y0232519D02*
X0053800Y0232519D01*
X0053800Y0233717D02*
X0074757Y0233717D01*
X0075956Y0234916D02*
X0053800Y0234916D01*
X0053800Y0236114D02*
X0077154Y0236114D01*
X0078353Y0237313D02*
X0053800Y0237313D01*
X0053800Y0238511D02*
X0079746Y0238511D01*
X0081478Y0232519D02*
X0201774Y0232519D01*
X0202560Y0221732D02*
X0173803Y0221732D01*
X0167617Y0213342D02*
X0201202Y0213342D01*
X0202149Y0212144D02*
X0168816Y0212144D01*
X0170014Y0210945D02*
X0203698Y0210945D01*
X0202039Y0209747D02*
X0171213Y0209747D01*
X0172411Y0208548D02*
X0201157Y0208548D01*
X0200660Y0207350D02*
X0173610Y0207350D01*
X0174808Y0206151D02*
X0200550Y0206151D01*
X0200550Y0204953D02*
X0176007Y0204953D01*
X0177205Y0203754D02*
X0201031Y0203754D01*
X0201737Y0202556D02*
X0178404Y0202556D01*
X0179602Y0201357D02*
X0202967Y0201357D01*
X0202451Y0200159D02*
X0180801Y0200159D01*
X0181999Y0198960D02*
X0201327Y0198960D01*
X0200831Y0197762D02*
X0183198Y0197762D01*
X0184396Y0196563D02*
X0200550Y0196563D01*
X0200550Y0195365D02*
X0185595Y0195365D01*
X0186794Y0194166D02*
X0200861Y0194166D01*
X0201357Y0192968D02*
X0187992Y0192968D01*
X0189191Y0191769D02*
X0202523Y0191769D01*
X0202863Y0190571D02*
X0190389Y0190571D01*
X0191588Y0189372D02*
X0201665Y0189372D01*
X0201001Y0188174D02*
X0192786Y0188174D01*
X0193985Y0186975D02*
X0200550Y0186975D01*
X0200550Y0185777D02*
X0195183Y0185777D01*
X0196382Y0184578D02*
X0200690Y0184578D01*
X0201186Y0183380D02*
X0197580Y0183380D01*
X0198541Y0182181D02*
X0202111Y0182181D01*
X0203788Y0180983D02*
X0198800Y0180983D01*
X0198800Y0179784D02*
X0202077Y0179784D01*
X0201172Y0178586D02*
X0198800Y0178586D01*
X0198800Y0177387D02*
X0200676Y0177387D01*
X0200550Y0176189D02*
X0198800Y0176189D01*
X0198800Y0174990D02*
X0200550Y0174990D01*
X0201016Y0173792D02*
X0198800Y0173792D01*
X0198800Y0172593D02*
X0201699Y0172593D01*
X0202898Y0171395D02*
X0198800Y0171395D01*
X0198800Y0170196D02*
X0202489Y0170196D01*
X0201343Y0168998D02*
X0198800Y0168998D01*
X0198800Y0167799D02*
X0200846Y0167799D01*
X0200550Y0166601D02*
X0198800Y0166601D01*
X0198800Y0165402D02*
X0200550Y0165402D01*
X0200845Y0164203D02*
X0198800Y0164203D01*
X0198800Y0163005D02*
X0201342Y0163005D01*
X0202486Y0161806D02*
X0198800Y0161806D01*
X0198800Y0160608D02*
X0202901Y0160608D01*
X0201702Y0159409D02*
X0198800Y0159409D01*
X0198800Y0158211D02*
X0201017Y0158211D01*
X0200550Y0157012D02*
X0198800Y0157012D01*
X0198800Y0155814D02*
X0200550Y0155814D01*
X0200674Y0154615D02*
X0198800Y0154615D01*
X0198800Y0153417D02*
X0201171Y0153417D01*
X0202074Y0152218D02*
X0198800Y0152218D01*
X0198800Y0151020D02*
X0203782Y0151020D01*
X0202114Y0149821D02*
X0198800Y0149821D01*
X0198800Y0148623D02*
X0201187Y0148623D01*
X0200691Y0147424D02*
X0198800Y0147424D01*
X0198800Y0146226D02*
X0200550Y0146226D01*
X0200550Y0145027D02*
X0198800Y0145027D01*
X0198800Y0143829D02*
X0201000Y0143829D01*
X0201662Y0142630D02*
X0198800Y0142630D01*
X0198800Y0141432D02*
X0202861Y0141432D01*
X0202526Y0140233D02*
X0198800Y0140233D01*
X0198800Y0139035D02*
X0201358Y0139035D01*
X0200862Y0137836D02*
X0198800Y0137836D01*
X0198800Y0136638D02*
X0200550Y0136638D01*
X0200550Y0135439D02*
X0198800Y0135439D01*
X0198800Y0134241D02*
X0200830Y0134241D01*
X0201326Y0133042D02*
X0198800Y0133042D01*
X0198800Y0131844D02*
X0202449Y0131844D01*
X0202973Y0130645D02*
X0198800Y0130645D01*
X0198800Y0129447D02*
X0201739Y0129447D01*
X0201032Y0128248D02*
X0198800Y0128248D01*
X0198800Y0127050D02*
X0200550Y0127050D01*
X0200550Y0125851D02*
X0198800Y0125851D01*
X0198800Y0124653D02*
X0200659Y0124653D01*
X0201155Y0123454D02*
X0198800Y0123454D01*
X0198800Y0122256D02*
X0202037Y0122256D01*
X0203692Y0121057D02*
X0198800Y0121057D01*
X0198800Y0119859D02*
X0202151Y0119859D01*
X0201203Y0118660D02*
X0198800Y0118660D01*
X0198800Y0117462D02*
X0200706Y0117462D01*
X0200550Y0116263D02*
X0198800Y0116263D01*
X0198800Y0115065D02*
X0200550Y0115065D01*
X0200985Y0113866D02*
X0198800Y0113866D01*
X0198800Y0112668D02*
X0201625Y0112668D01*
X0202824Y0111469D02*
X0198800Y0111469D01*
X0198800Y0110270D02*
X0202563Y0110270D01*
X0201373Y0109072D02*
X0198800Y0109072D01*
X0198800Y0107873D02*
X0200877Y0107873D01*
X0200550Y0106675D02*
X0198800Y0106675D01*
X0198800Y0105476D02*
X0200550Y0105476D01*
X0200814Y0104278D02*
X0198800Y0104278D01*
X0198800Y0103079D02*
X0201311Y0103079D01*
X0202412Y0101881D02*
X0198800Y0101881D01*
X0198800Y0100682D02*
X0203063Y0100682D01*
X0201776Y0099484D02*
X0198800Y0099484D01*
X0198800Y0098285D02*
X0201048Y0098285D01*
X0200551Y0097087D02*
X0198800Y0097087D01*
X0198800Y0095888D02*
X0200550Y0095888D01*
X0200644Y0094690D02*
X0198800Y0094690D01*
X0198800Y0093491D02*
X0201140Y0093491D01*
X0202000Y0092293D02*
X0198800Y0092293D01*
X0198800Y0091094D02*
X0203602Y0091094D01*
X0202188Y0089896D02*
X0198800Y0089896D01*
X0198800Y0088697D02*
X0201218Y0088697D01*
X0200722Y0087499D02*
X0198800Y0087499D01*
X0198800Y0086300D02*
X0200550Y0086300D01*
X0200550Y0085102D02*
X0198800Y0085102D01*
X0198800Y0083903D02*
X0200969Y0083903D01*
X0201588Y0082705D02*
X0198800Y0082705D01*
X0198800Y0081506D02*
X0202786Y0081506D01*
X0202600Y0080308D02*
X0198800Y0080308D01*
X0198800Y0079109D02*
X0201402Y0079109D01*
X0200892Y0077911D02*
X0198800Y0077911D01*
X0198800Y0076712D02*
X0200550Y0076712D01*
X0200550Y0075514D02*
X0198800Y0075514D01*
X0198800Y0074315D02*
X0200799Y0074315D01*
X0201295Y0073117D02*
X0198800Y0073117D01*
X0198800Y0071918D02*
X0202374Y0071918D01*
X0204506Y0070720D02*
X0198800Y0070720D01*
X0207494Y0070720D02*
X0214506Y0070720D01*
X0212374Y0071918D02*
X0209626Y0071918D01*
X0210705Y0073117D02*
X0211295Y0073117D01*
X0196703Y0056337D02*
X0193800Y0056337D01*
X0193800Y0055139D02*
X0197901Y0055139D01*
X0199100Y0053940D02*
X0193800Y0053940D01*
X0193800Y0052742D02*
X0200298Y0052742D01*
X0201497Y0051543D02*
X0193800Y0051543D01*
X0193800Y0050345D02*
X0198490Y0050345D01*
X0197111Y0049146D02*
X0194889Y0049146D01*
X0195578Y0047948D02*
X0196422Y0047948D01*
X0196025Y0046749D02*
X0195975Y0046749D01*
X0195975Y0045551D02*
X0196025Y0045551D01*
X0196298Y0044352D02*
X0195702Y0044352D01*
X0195189Y0043154D02*
X0196811Y0043154D01*
X0198009Y0041955D02*
X0193991Y0041955D01*
X0189717Y0040757D02*
X0226000Y0040757D01*
X0226000Y0041955D02*
X0215616Y0041955D01*
X0215975Y0043154D02*
X0226000Y0043154D01*
X0226000Y0044352D02*
X0215975Y0044352D01*
X0206384Y0041955D02*
X0203991Y0041955D01*
X0205189Y0043154D02*
X0206025Y0043154D01*
X0206025Y0044352D02*
X0205702Y0044352D01*
X0205975Y0045551D02*
X0206025Y0045551D01*
X0206025Y0046749D02*
X0205975Y0046749D01*
X0195504Y0057536D02*
X0193800Y0057536D01*
X0193800Y0058734D02*
X0194306Y0058734D01*
X0188518Y0039558D02*
X0226000Y0039558D01*
X0226000Y0038360D02*
X0187320Y0038360D01*
X0186121Y0037161D02*
X0226000Y0037161D01*
X0226000Y0035963D02*
X0184923Y0035963D01*
X0183724Y0034764D02*
X0226000Y0034764D01*
X0226000Y0033566D02*
X0182526Y0033566D01*
X0181327Y0032367D02*
X0226000Y0032367D01*
X0226000Y0031169D02*
X0180129Y0031169D01*
X0178930Y0029970D02*
X0226000Y0029970D01*
X0226000Y0028772D02*
X0177731Y0028772D01*
X0176533Y0027573D02*
X0226000Y0027573D01*
X0226000Y0026375D02*
X0175334Y0026375D01*
X0174136Y0025176D02*
X0226000Y0025176D01*
X0226000Y0023978D02*
X0172937Y0023978D01*
X0167111Y0049146D02*
X0164889Y0049146D01*
X0148490Y0050345D02*
X0143510Y0050345D01*
X0143818Y0050217D02*
X0141990Y0050975D01*
X0140010Y0050975D01*
X0138182Y0050217D01*
X0136783Y0048818D01*
X0136025Y0046990D01*
X0136025Y0045010D01*
X0136783Y0043182D01*
X0138182Y0041783D01*
X0140010Y0041025D01*
X0141990Y0041025D01*
X0143818Y0041783D01*
X0145217Y0043182D01*
X0145975Y0045010D01*
X0145975Y0046990D01*
X0145217Y0048818D01*
X0143818Y0050217D01*
X0144889Y0049146D02*
X0147111Y0049146D01*
X0146422Y0047948D02*
X0145578Y0047948D01*
X0145975Y0046749D02*
X0146025Y0046749D01*
X0146025Y0045551D02*
X0145975Y0045551D01*
X0145702Y0044352D02*
X0146298Y0044352D01*
X0146811Y0043154D02*
X0145189Y0043154D01*
X0143991Y0041955D02*
X0148009Y0041955D01*
X0138490Y0050345D02*
X0133510Y0050345D01*
X0134889Y0049146D02*
X0137111Y0049146D01*
X0136422Y0047948D02*
X0135578Y0047948D01*
X0135975Y0046749D02*
X0136025Y0046749D01*
X0136025Y0045551D02*
X0135975Y0045551D01*
X0135702Y0044352D02*
X0136298Y0044352D01*
X0136811Y0043154D02*
X0135189Y0043154D01*
X0133991Y0041955D02*
X0138009Y0041955D01*
X0061000Y0161000D02*
X0041000Y0161000D01*
X0026000Y0176000D01*
X0040558Y0165402D02*
X0061442Y0165402D01*
X0061200Y0166601D02*
X0060800Y0166601D01*
X0060800Y0167799D02*
X0061200Y0167799D01*
X0061200Y0168998D02*
X0060800Y0168998D01*
X0060800Y0170196D02*
X0061200Y0170196D01*
X0061200Y0171395D02*
X0060800Y0171395D01*
X0060800Y0172593D02*
X0061200Y0172593D01*
X0061200Y0173792D02*
X0060800Y0173792D01*
X0060800Y0174990D02*
X0061200Y0174990D01*
X0059512Y0178586D02*
X0057374Y0178586D01*
X0058256Y0179784D02*
X0056176Y0179784D01*
X0057058Y0180983D02*
X0054977Y0180983D01*
X0055859Y0182181D02*
X0053800Y0182181D01*
X0053800Y0183380D02*
X0054661Y0183380D01*
X0066000Y0171000D02*
X0066000Y0166000D01*
X0061000Y0161000D01*
X0060244Y0164203D02*
X0041756Y0164203D01*
X0058675Y0166601D02*
X0059280Y0166601D01*
X0058675Y0200159D02*
X0058325Y0200159D01*
X0173985Y0186975D02*
X0186065Y0186975D01*
X0187263Y0185777D02*
X0175183Y0185777D01*
X0176382Y0184578D02*
X0188462Y0184578D01*
X0189661Y0183380D02*
X0177580Y0183380D01*
X0178779Y0182181D02*
X0190859Y0182181D01*
X0192058Y0180983D02*
X0179977Y0180983D01*
X0181176Y0179784D02*
X0193200Y0179784D01*
X0193200Y0178586D02*
X0182374Y0178586D01*
X0183573Y0177387D02*
X0193200Y0177387D01*
X0193200Y0176189D02*
X0184771Y0176189D01*
X0185970Y0174990D02*
X0193200Y0174990D01*
X0193200Y0173792D02*
X0187168Y0173792D01*
X0188367Y0172593D02*
X0193200Y0172593D01*
X0193200Y0171395D02*
X0189565Y0171395D01*
X0190764Y0170196D02*
X0193200Y0170196D01*
X0193200Y0168998D02*
X0191962Y0168998D01*
X0193161Y0167799D02*
X0193200Y0167799D01*
D18*
X0171000Y0046000D02*
X0161472Y0036472D01*
X0029622Y0036472D01*
M02*
