G75*
%MOIN*%
%OFA0B0*%
%FSLAX25Y25*%
%IPPOS*%
%LPD*%
%AMOC8*
5,1,8,0,0,1.08239X$1,22.5*
%
%ADD10R,0.07300X0.07300*%
%ADD11C,0.07300*%
%ADD12C,0.08182*%
%ADD13R,0.06350X0.06350*%
%ADD14C,0.06350*%
%ADD15C,0.04000*%
%ADD16OC8,0.06400*%
D10*
X0016000Y0296000D03*
X0206000Y0296000D03*
D11*
X0206000Y0286000D03*
X0206000Y0276000D03*
X0206000Y0266000D03*
X0206000Y0256000D03*
X0206000Y0246000D03*
X0206000Y0236000D03*
X0206000Y0226000D03*
X0206000Y0216000D03*
X0206000Y0206000D03*
X0206000Y0196000D03*
X0206000Y0186000D03*
X0206000Y0176000D03*
X0206000Y0166000D03*
X0206000Y0156000D03*
X0206000Y0146000D03*
X0206000Y0136000D03*
X0206000Y0126000D03*
X0206000Y0116000D03*
X0206000Y0106000D03*
X0206000Y0096000D03*
X0206000Y0086000D03*
X0206000Y0076000D03*
X0216000Y0076000D03*
X0216000Y0086000D03*
X0216000Y0096000D03*
X0216000Y0106000D03*
X0216000Y0116000D03*
X0216000Y0126000D03*
X0216000Y0136000D03*
X0216000Y0146000D03*
X0216000Y0156000D03*
X0216000Y0166000D03*
X0216000Y0176000D03*
X0216000Y0186000D03*
X0216000Y0196000D03*
X0216000Y0206000D03*
X0216000Y0216000D03*
X0216000Y0226000D03*
X0216000Y0236000D03*
X0216000Y0246000D03*
X0216000Y0256000D03*
X0216000Y0266000D03*
X0216000Y0276000D03*
X0216000Y0286000D03*
X0216000Y0296000D03*
X0026000Y0296000D03*
X0026000Y0286000D03*
X0026000Y0276000D03*
X0026000Y0266000D03*
X0026000Y0256000D03*
X0026000Y0246000D03*
X0026000Y0236000D03*
X0026000Y0226000D03*
X0026000Y0216000D03*
X0026000Y0206000D03*
X0026000Y0196000D03*
X0026000Y0186000D03*
X0026000Y0176000D03*
X0026000Y0166000D03*
X0026000Y0156000D03*
X0026000Y0146000D03*
X0026000Y0136000D03*
X0026000Y0126000D03*
X0026000Y0116000D03*
X0026000Y0106000D03*
X0026000Y0096000D03*
X0026000Y0086000D03*
X0026000Y0076000D03*
X0016000Y0076000D03*
X0016000Y0086000D03*
X0016000Y0096000D03*
X0016000Y0106000D03*
X0016000Y0116000D03*
X0016000Y0126000D03*
X0016000Y0136000D03*
X0016000Y0146000D03*
X0016000Y0156000D03*
X0016000Y0166000D03*
X0016000Y0176000D03*
X0016000Y0186000D03*
X0016000Y0196000D03*
X0016000Y0206000D03*
X0016000Y0216000D03*
X0016000Y0226000D03*
X0016000Y0236000D03*
X0016000Y0246000D03*
X0016000Y0256000D03*
X0016000Y0266000D03*
X0016000Y0276000D03*
X0016000Y0286000D03*
D12*
X0029622Y0016787D03*
X0029622Y0036472D03*
X0029622Y0056157D03*
D13*
X0121000Y0201000D03*
X0121000Y0226000D03*
X0211000Y0046000D03*
D14*
X0201000Y0046000D03*
X0191000Y0046000D03*
X0181000Y0046000D03*
X0171000Y0046000D03*
X0161000Y0046000D03*
X0151000Y0046000D03*
X0141000Y0046000D03*
X0131000Y0046000D03*
X0131000Y0201000D03*
X0141000Y0201000D03*
X0141000Y0226000D03*
X0131000Y0226000D03*
D15*
X0066000Y0197109D02*
X0066000Y0193709D01*
X0061000Y0193709D02*
X0061000Y0197109D01*
X0056000Y0197109D02*
X0056000Y0193709D01*
X0051000Y0193709D02*
X0051000Y0197109D01*
X0051000Y0172700D02*
X0051000Y0169300D01*
X0056000Y0169300D02*
X0056000Y0172700D01*
X0061000Y0172700D02*
X0061000Y0169300D01*
X0066000Y0169300D02*
X0066000Y0172700D01*
D16*
X0171000Y0166000D03*
X0171000Y0226000D03*
M02*
