%
M48
M72
T01C0.03200
T02C0.04100
T03C0.05906
%
T01
X171600Y166600
X171600Y226600
T02
X141600Y226600
X131600Y226600
X121600Y226600
X121600Y201600
X131600Y201600
X141600Y201600
X141600Y251600
X131600Y251600
X121600Y251600
X76600Y196600
X66600Y196600
X56600Y196600
X46600Y196600
X26600Y196600
X26600Y186600
X26600Y176600
X26600Y166600
X26600Y156600
X26600Y146600
X26600Y136600
X26600Y126600
X26600Y116600
X26600Y106600
X26600Y96600
X26600Y86600
X26600Y76600
X16600Y76600
X16600Y86600
X16600Y96600
X16600Y106600
X16600Y116600
X16600Y126600
X16600Y136600
X16600Y146600
X16600Y156600
X16600Y166600
X16600Y176600
X16600Y186600
X16600Y196600
X16600Y206600
X16600Y216600
X16600Y226600
X16600Y236600
X16600Y246600
X16600Y256600
X16600Y266600
X16600Y276600
X16600Y286600
X16600Y296600
X26600Y296600
X26600Y286600
X26600Y276600
X26600Y266600
X26600Y256600
X26600Y246600
X26600Y236600
X26600Y226600
X26600Y216600
X26600Y206600
X46600Y166600
X56600Y166600
X66600Y166600
X76600Y166600
X131600Y46600
X141600Y46600
X151600Y46600
X161600Y46600
X171600Y46600
X181600Y46600
X191600Y46600
X201600Y46600
X211600Y46600
X206600Y76600
X206600Y86600
X206600Y96600
X206600Y106600
X206600Y116600
X206600Y126600
X206600Y136600
X206600Y146600
X206600Y156600
X206600Y166600
X206600Y176600
X206600Y186600
X206600Y196600
X206600Y206600
X206600Y216600
X206600Y226600
X206600Y236600
X206600Y246600
X206600Y256600
X206600Y266600
X206600Y276600
X206600Y286600
X206600Y296600
X216600Y296600
X216600Y286600
X216600Y276600
X216600Y266600
X216600Y256600
X216600Y246600
X216600Y236600
X216600Y226600
X216600Y216600
X216600Y206600
X216600Y196600
X216600Y186600
X216600Y176600
X216600Y166600
X216600Y156600
X216600Y146600
X216600Y136600
X216600Y126600
X216600Y116600
X216600Y106600
X216600Y96600
X216600Y86600
X216600Y76600
T03
X30222Y17387
X30222Y37072
X30222Y56757
M30
